<?xml version="1.0" encoding="UTF-8" standalone="no"?>
<!DOCTYPE svg PUBLIC "-//W3C//DTD SVG 1.1//EN"
 "http://www.w3.org/Graphics/SVG/1.1/DTD/svg11.dtd">
<!-- Generated by graphviz version 3.0.0 (20220226.1711)
 -->
<!-- Title: snakemake_dag Pages: 1 -->
<svg width="367pt" height="260pt"
 viewBox="0.00 0.00 367.41 260.00" xmlns="http://www.w3.org/2000/svg" xmlns:xlink="http://www.w3.org/1999/xlink">
<g id="graph0" class="graph" transform="scale(1 1) rotate(0) translate(4 256)">
<title>snakemake_dag</title>
<polygon fill="white" stroke="transparent" points="-4,4 -4,-256 363.41,-256 363.41,4 -4,4"/>
<!-- 0 -->
<g id="node1" class="node">
<title>0</title>
<path fill="none" stroke="#56b1d8" stroke-width="2" d="M151.24,-36C151.24,-36 121.24,-36 121.24,-36 115.24,-36 109.24,-30 109.24,-24 109.24,-24 109.24,-12 109.24,-12 109.24,-6 115.24,0 121.24,0 121.24,0 151.24,0 151.24,0 157.24,0 163.24,-6 163.24,-12 163.24,-12 163.24,-24 163.24,-24 163.24,-30 157.24,-36 151.24,-36"/>
<text text-anchor="middle" x="136.24" y="-15.5" font-family="sans" font-size="10.00">all</text>
</g>
<!-- 1 -->
<g id="node2" class="node">
<title>1</title>
<path fill="none" stroke="#9fd856" stroke-width="2" d="M119.24,-252C119.24,-252 89.24,-252 89.24,-252 83.24,-252 77.24,-246 77.24,-240 77.24,-240 77.24,-228 77.24,-228 77.24,-222 83.24,-216 89.24,-216 89.24,-216 119.24,-216 119.24,-216 125.24,-216 131.24,-222 131.24,-228 131.24,-228 131.24,-240 131.24,-240 131.24,-246 125.24,-252 119.24,-252"/>
<text text-anchor="middle" x="104.24" y="-231.5" font-family="sans" font-size="10.00">trimming</text>
</g>
<!-- 1&#45;&gt;0 -->
<g id="edge3" class="edge">
<title>1&#45;&gt;0</title>
<path fill="none" stroke="grey" stroke-width="2" d="M76.97,-219.04C61.69,-209.89 43.5,-196.56 32.24,-180 4.83,-139.7 -13.55,-112.71 13.24,-72 32.13,-43.28 70.23,-30.06 99.04,-24.01"/>
<polygon fill="grey" stroke="grey" stroke-width="2" points="100.01,-27.39 109.19,-22.09 98.71,-20.51 100.01,-27.39"/>
</g>
<!-- 2 -->
<g id="node3" class="node">
<title>2</title>
<path fill="none" stroke="#5682d8" stroke-width="2" d="M83.24,-180C83.24,-180 53.24,-180 53.24,-180 47.24,-180 41.24,-174 41.24,-168 41.24,-168 41.24,-156 41.24,-156 41.24,-150 47.24,-144 53.24,-144 53.24,-144 83.24,-144 83.24,-144 89.24,-144 95.24,-150 95.24,-156 95.24,-156 95.24,-168 95.24,-168 95.24,-174 89.24,-180 83.24,-180"/>
<text text-anchor="middle" x="68.24" y="-159.5" font-family="sans" font-size="10.00">fastqc</text>
</g>
<!-- 1&#45;&gt;2 -->
<g id="edge7" class="edge">
<title>1&#45;&gt;2</title>
<path fill="none" stroke="grey" stroke-width="2" d="M95.34,-215.7C91.24,-207.73 86.29,-198.1 81.74,-189.26"/>
<polygon fill="grey" stroke="grey" stroke-width="2" points="84.72,-187.4 77.03,-180.1 78.49,-190.6 84.72,-187.4"/>
</g>
<!-- 4 -->
<g id="node5" class="node">
<title>4</title>
<path fill="none" stroke="#d88556" stroke-width="2" d="M179.24,-180C179.24,-180 149.24,-180 149.24,-180 143.24,-180 137.24,-174 137.24,-168 137.24,-168 137.24,-156 137.24,-156 137.24,-150 143.24,-144 149.24,-144 149.24,-144 179.24,-144 179.24,-144 185.24,-144 191.24,-150 191.24,-156 191.24,-156 191.24,-168 191.24,-168 191.24,-174 185.24,-180 179.24,-180"/>
<text text-anchor="middle" x="164.24" y="-159.5" font-family="sans" font-size="10.00">align</text>
</g>
<!-- 1&#45;&gt;4 -->
<g id="edge9" class="edge">
<title>1&#45;&gt;4</title>
<path fill="none" stroke="grey" stroke-width="2" d="M119.07,-215.7C126.26,-207.3 135.03,-197.07 142.93,-187.86"/>
<polygon fill="grey" stroke="grey" stroke-width="2" points="145.73,-189.97 149.58,-180.1 140.41,-185.42 145.73,-189.97"/>
</g>
<!-- 5 -->
<g id="node6" class="node">
<title>5</title>
<path fill="none" stroke="#ced856" stroke-width="2" d="M319.24,-180C319.24,-180 289.24,-180 289.24,-180 283.24,-180 277.24,-174 277.24,-168 277.24,-168 277.24,-156 277.24,-156 277.24,-150 283.24,-144 289.24,-144 289.24,-144 319.24,-144 319.24,-144 325.24,-144 331.24,-150 331.24,-156 331.24,-156 331.24,-168 331.24,-168 331.24,-174 325.24,-180 319.24,-180"/>
<text text-anchor="middle" x="304.24" y="-159.5" font-family="sans" font-size="10.00">salmon</text>
</g>
<!-- 1&#45;&gt;5 -->
<g id="edge10" class="edge">
<title>1&#45;&gt;5</title>
<path fill="none" stroke="grey" stroke-width="2" d="M131.63,-223.41C166.93,-211.06 228.44,-189.53 267.71,-175.79"/>
<polygon fill="grey" stroke="grey" stroke-width="2" points="268.9,-179.08 277.18,-172.47 266.58,-172.47 268.9,-179.08"/>
</g>
<!-- 2&#45;&gt;0 -->
<g id="edge6" class="edge">
<title>2&#45;&gt;0</title>
<path fill="none" stroke="grey" stroke-width="2" d="M48.06,-143.79C29.13,-125.51 5.88,-95.99 21.24,-72 38.32,-45.32 72.6,-31.89 99.31,-25.24"/>
<polygon fill="grey" stroke="grey" stroke-width="2" points="100.15,-28.63 109.13,-23.01 98.6,-21.81 100.15,-28.63"/>
</g>
<!-- 3 -->
<g id="node4" class="node">
<title>3</title>
<path fill="none" stroke="#d8b456" stroke-width="2" d="M123.74,-108C123.74,-108 42.74,-108 42.74,-108 36.74,-108 30.74,-102 30.74,-96 30.74,-96 30.74,-84 30.74,-84 30.74,-78 36.74,-72 42.74,-72 42.74,-72 123.74,-72 123.74,-72 129.74,-72 135.74,-78 135.74,-84 135.74,-84 135.74,-96 135.74,-96 135.74,-102 129.74,-108 123.74,-108"/>
<text text-anchor="middle" x="83.24" y="-87.5" font-family="sans" font-size="10.00">bamCoverage_CPM</text>
</g>
<!-- 3&#45;&gt;0 -->
<g id="edge1" class="edge">
<title>3&#45;&gt;0</title>
<path fill="none" stroke="grey" stroke-width="2" d="M96.34,-71.7C102.63,-63.39 110.28,-53.28 117.2,-44.14"/>
<polygon fill="grey" stroke="grey" stroke-width="2" points="120.04,-46.19 123.29,-36.1 114.46,-41.96 120.04,-46.19"/>
</g>
<!-- 4&#45;&gt;3 -->
<g id="edge8" class="edge">
<title>4&#45;&gt;3</title>
<path fill="none" stroke="grey" stroke-width="2" d="M144.21,-143.7C134.11,-134.97 121.7,-124.24 110.72,-114.75"/>
<polygon fill="grey" stroke="grey" stroke-width="2" points="112.88,-111.99 103.03,-108.1 108.31,-117.29 112.88,-111.99"/>
</g>
<!-- 6 -->
<g id="node7" class="node">
<title>6</title>
<path fill="none" stroke="#70d856" stroke-width="2" d="M212.24,-108C212.24,-108 166.24,-108 166.24,-108 160.24,-108 154.24,-102 154.24,-96 154.24,-96 154.24,-84 154.24,-84 154.24,-78 160.24,-72 166.24,-72 166.24,-72 212.24,-72 212.24,-72 218.24,-72 224.24,-78 224.24,-84 224.24,-84 224.24,-96 224.24,-96 224.24,-102 218.24,-108 212.24,-108"/>
<text text-anchor="middle" x="189.24" y="-87.5" font-family="sans" font-size="10.00">run_regtools</text>
</g>
<!-- 4&#45;&gt;6 -->
<g id="edge11" class="edge">
<title>4&#45;&gt;6</title>
<path fill="none" stroke="grey" stroke-width="2" d="M170.42,-143.7C173.23,-135.81 176.63,-126.3 179.76,-117.55"/>
<polygon fill="grey" stroke="grey" stroke-width="2" points="183.06,-118.7 183.13,-108.1 176.47,-116.34 183.06,-118.7"/>
</g>
<!-- 7 -->
<g id="node8" class="node">
<title>7</title>
<path fill="none" stroke="#56d89a" stroke-width="2" d="M331.74,-108C331.74,-108 254.74,-108 254.74,-108 248.74,-108 242.74,-102 242.74,-96 242.74,-96 242.74,-84 242.74,-84 242.74,-78 248.74,-72 254.74,-72 254.74,-72 331.74,-72 331.74,-72 337.74,-72 343.74,-78 343.74,-84 343.74,-84 343.74,-96 343.74,-96 343.74,-102 337.74,-108 331.74,-108"/>
<text text-anchor="middle" x="293.24" y="-87.5" font-family="sans" font-size="10.00">run_TPMCalculator</text>
</g>
<!-- 4&#45;&gt;7 -->
<g id="edge12" class="edge">
<title>4&#45;&gt;7</title>
<path fill="none" stroke="grey" stroke-width="2" d="M191.28,-146.33C209.09,-136.66 232.73,-123.83 252.77,-112.96"/>
<polygon fill="grey" stroke="grey" stroke-width="2" points="254.56,-115.97 261.68,-108.12 251.23,-109.82 254.56,-115.97"/>
</g>
<!-- 5&#45;&gt;0 -->
<g id="edge2" class="edge">
<title>5&#45;&gt;0</title>
<path fill="none" stroke="grey" stroke-width="2" d="M325.22,-143.93C345.66,-125.25 371.21,-94.89 353.24,-72 331.3,-44.06 229.64,-28.97 173.59,-22.64"/>
<polygon fill="grey" stroke="grey" stroke-width="2" points="173.67,-19.13 163.35,-21.53 172.91,-26.09 173.67,-19.13"/>
</g>
<!-- 6&#45;&gt;0 -->
<g id="edge4" class="edge">
<title>6&#45;&gt;0</title>
<path fill="none" stroke="grey" stroke-width="2" d="M176.14,-71.7C169.85,-63.39 162.19,-53.28 155.27,-44.14"/>
<polygon fill="grey" stroke="grey" stroke-width="2" points="158.01,-41.96 149.19,-36.1 152.43,-46.19 158.01,-41.96"/>
</g>
<!-- 7&#45;&gt;0 -->
<g id="edge5" class="edge">
<title>7&#45;&gt;0</title>
<path fill="none" stroke="grey" stroke-width="2" d="M254.83,-71.88C229.83,-60.73 197.4,-46.27 172.78,-35.29"/>
<polygon fill="grey" stroke="grey" stroke-width="2" points="173.98,-32 163.42,-31.12 171.13,-38.39 173.98,-32"/>
</g>
</g>
</svg>
