<?xml version="1.0" encoding="UTF-8" standalone="no"?>
<!DOCTYPE svg PUBLIC "-//W3C//DTD SVG 1.1//EN"
 "http://www.w3.org/Graphics/SVG/1.1/DTD/svg11.dtd">
<!-- Generated by graphviz version 2.47.0 (0)
 -->
<!-- Title: snakemake_dag Pages: 1 -->
<svg width="179pt" height="260pt"
 viewBox="0.00 0.00 178.53 260.00" xmlns="http://www.w3.org/2000/svg" xmlns:xlink="http://www.w3.org/1999/xlink">
<g id="graph0" class="graph" transform="scale(1 1) rotate(0) translate(4 256)">
<title>snakemake_dag</title>
<polygon fill="white" stroke="transparent" points="-4,4 -4,-256 174.53,-256 174.53,4 -4,4"/>
<!-- 0 -->
<g id="node1" class="node">
<title>0</title>
<path fill="none" stroke="#56a9d8" stroke-width="2" d="M48.53,-36C48.53,-36 18.53,-36 18.53,-36 12.53,-36 6.53,-30 6.53,-24 6.53,-24 6.53,-12 6.53,-12 6.53,-6 12.53,0 18.53,0 18.53,0 48.53,0 48.53,0 54.53,0 60.53,-6 60.53,-12 60.53,-12 60.53,-24 60.53,-24 60.53,-30 54.53,-36 48.53,-36"/>
<text text-anchor="middle" x="33.53" y="-15.5" font-family="sans" font-size="10.00">all</text>
</g>
<!-- 1 -->
<g id="node2" class="node">
<title>1</title>
<path fill="none" stroke="#d8ac56" stroke-width="2" d="M57.03,-252C57.03,-252 26.03,-252 26.03,-252 20.03,-252 14.03,-246 14.03,-240 14.03,-240 14.03,-228 14.03,-228 14.03,-222 20.03,-216 26.03,-216 26.03,-216 57.03,-216 57.03,-216 63.03,-216 69.03,-222 69.03,-228 69.03,-228 69.03,-240 69.03,-240 69.03,-246 63.03,-252 57.03,-252"/>
<text text-anchor="middle" x="41.53" y="-231.5" font-family="sans" font-size="10.00">trimming</text>
</g>
<!-- 1&#45;&gt;0 -->
<g id="edge1" class="edge">
<title>1&#45;&gt;0</title>
<path fill="none" stroke="grey" stroke-width="2" d="M25.92,-215.77C18.16,-206.03 9.58,-193.18 5.53,-180 -8.68,-133.8 8.43,-77.78 21.46,-45.48"/>
<polygon fill="grey" stroke="grey" stroke-width="2" points="24.69,-46.83 25.33,-36.25 18.23,-44.12 24.69,-46.83"/>
</g>
<!-- 2 -->
<g id="node3" class="node">
<title>2</title>
<path fill="none" stroke="#59d856" stroke-width="2" d="M56.53,-180C56.53,-180 26.53,-180 26.53,-180 20.53,-180 14.53,-174 14.53,-168 14.53,-168 14.53,-156 14.53,-156 14.53,-150 20.53,-144 26.53,-144 26.53,-144 56.53,-144 56.53,-144 62.53,-144 68.53,-150 68.53,-156 68.53,-156 68.53,-168 68.53,-168 68.53,-174 62.53,-180 56.53,-180"/>
<text text-anchor="middle" x="41.53" y="-159.5" font-family="sans" font-size="10.00">align</text>
</g>
<!-- 1&#45;&gt;2 -->
<g id="edge5" class="edge">
<title>1&#45;&gt;2</title>
<path fill="none" stroke="grey" stroke-width="2" d="M41.53,-215.7C41.53,-207.98 41.53,-198.71 41.53,-190.11"/>
<polygon fill="grey" stroke="grey" stroke-width="2" points="45.03,-190.1 41.53,-180.1 38.03,-190.1 45.03,-190.1"/>
</g>
<!-- 3 -->
<g id="node4" class="node">
<title>3</title>
<path fill="none" stroke="#56d8a9" stroke-width="2" d="M158.53,-108C158.53,-108 128.53,-108 128.53,-108 122.53,-108 116.53,-102 116.53,-96 116.53,-96 116.53,-84 116.53,-84 116.53,-78 122.53,-72 128.53,-72 128.53,-72 158.53,-72 158.53,-72 164.53,-72 170.53,-78 170.53,-84 170.53,-84 170.53,-96 170.53,-96 170.53,-102 164.53,-108 158.53,-108"/>
<text text-anchor="middle" x="143.53" y="-87.5" font-family="sans" font-size="10.00">salmon</text>
</g>
<!-- 1&#45;&gt;3 -->
<g id="edge6" class="edge">
<title>1&#45;&gt;3</title>
<path fill="none" stroke="grey" stroke-width="2" d="M53.83,-215.87C71.6,-191.14 104.57,-145.24 125.2,-116.51"/>
<polygon fill="grey" stroke="grey" stroke-width="2" points="128.19,-118.35 131.18,-108.19 122.5,-114.27 128.19,-118.35"/>
</g>
<!-- 2&#45;&gt;0 -->
<g id="edge3" class="edge">
<title>2&#45;&gt;0</title>
<path fill="none" stroke="grey" stroke-width="2" d="M33.22,-143.79C28.79,-133.63 23.79,-120.38 21.53,-108 17.77,-87.42 21.25,-63.97 25.41,-46.31"/>
<polygon fill="grey" stroke="grey" stroke-width="2" points="28.92,-46.69 28.03,-36.14 22.15,-44.95 28.92,-46.69"/>
</g>
<!-- 4 -->
<g id="node5" class="node">
<title>4</title>
<path fill="none" stroke="#d85656" stroke-width="2" d="M86.03,-108C86.03,-108 43.03,-108 43.03,-108 37.03,-108 31.03,-102 31.03,-96 31.03,-96 31.03,-84 31.03,-84 31.03,-78 37.03,-72 43.03,-72 43.03,-72 86.03,-72 86.03,-72 92.03,-72 98.03,-78 98.03,-84 98.03,-84 98.03,-96 98.03,-96 98.03,-102 92.03,-108 86.03,-108"/>
<text text-anchor="middle" x="64.53" y="-87.5" font-family="sans" font-size="10.00">majiq_build</text>
</g>
<!-- 2&#45;&gt;4 -->
<g id="edge7" class="edge">
<title>2&#45;&gt;4</title>
<path fill="none" stroke="grey" stroke-width="2" d="M47.21,-143.7C49.78,-135.9 52.86,-126.51 55.71,-117.83"/>
<polygon fill="grey" stroke="grey" stroke-width="2" points="59.11,-118.7 58.91,-108.1 52.46,-116.51 59.11,-118.7"/>
</g>
<!-- 3&#45;&gt;0 -->
<g id="edge4" class="edge">
<title>3&#45;&gt;0</title>
<path fill="none" stroke="grey" stroke-width="2" d="M116.62,-71.88C102.37,-62.81 84.68,-51.55 69.29,-41.76"/>
<polygon fill="grey" stroke="grey" stroke-width="2" points="70.86,-38.61 60.54,-36.19 67.1,-44.51 70.86,-38.61"/>
</g>
<!-- 4&#45;&gt;0 -->
<g id="edge2" class="edge">
<title>4&#45;&gt;0</title>
<path fill="none" stroke="grey" stroke-width="2" d="M56.87,-71.7C53.34,-63.73 49.07,-54.1 45.16,-45.26"/>
<polygon fill="grey" stroke="grey" stroke-width="2" points="48.35,-43.83 41.1,-36.1 41.95,-46.67 48.35,-43.83"/>
</g>
</g>
</svg>
