<?xml version="1.0" encoding="UTF-8" standalone="no"?>
<!DOCTYPE svg PUBLIC "-//W3C//DTD SVG 1.1//EN"
 "http://www.w3.org/Graphics/SVG/1.1/DTD/svg11.dtd">
<!-- Generated by graphviz version 9.0.0 (0)
 -->
<!-- Title: snakemake_dag Pages: 1 -->
<svg width="2728pt" height="620pt"
 viewBox="0.00 0.00 2728.00 620.00" xmlns="http://www.w3.org/2000/svg" xmlns:xlink="http://www.w3.org/1999/xlink">
<g id="graph0" class="graph" transform="scale(1 1) rotate(0) translate(4 616)">
<title>snakemake_dag</title>
<polygon fill="white" stroke="none" points="-4,4 -4,-616 2724,-616 2724,4 -4,4"/>
<!-- 0 -->
<g id="node1" class="node">
<title>0</title>
<path fill="none" stroke="#d89c56" stroke-width="2" d="M1298,-36C1298,-36 1268,-36 1268,-36 1262,-36 1256,-30 1256,-24 1256,-24 1256,-12 1256,-12 1256,-6 1262,0 1268,0 1268,0 1298,0 1298,0 1304,0 1310,-6 1310,-12 1310,-12 1310,-24 1310,-24 1310,-30 1304,-36 1298,-36"/>
<text text-anchor="middle" x="1283" y="-14.12" font-family="sans" font-size="10.00">all</text>
</g>
<!-- 1 -->
<g id="node2" class="node">
<title>1</title>
<path fill="none" stroke="#d8cb56" stroke-width="2" d="M1296,-612C1296,-612 1266,-612 1266,-612 1260,-612 1254,-606 1254,-600 1254,-600 1254,-588 1254,-588 1254,-582 1260,-576 1266,-576 1266,-576 1296,-576 1296,-576 1302,-576 1308,-582 1308,-588 1308,-588 1308,-600 1308,-600 1308,-606 1302,-612 1296,-612"/>
<text text-anchor="middle" x="1281" y="-590.12" font-family="sans" font-size="10.00">trimming</text>
</g>
<!-- 1&#45;&gt;0 -->
<g id="edge5" class="edge">
<title>1&#45;&gt;0</title>
<path fill="none" stroke="grey" stroke-width="2" d="M1253.09,-592.49C1089.6,-589.43 259.52,-572.35 151,-540 76.35,-517.74 0,-528.9 0,-451 0,-451 0,-451 0,-161 0,-112.02 21.82,-95.13 65,-72 170.62,-15.43 1042.28,-17.47 1242.23,-18.69"/>
<polygon fill="grey" stroke="grey" stroke-width="2" points="1242.14,-22.19 1252.17,-18.76 1242.19,-15.19 1242.14,-22.19"/>
</g>
<!-- 2 -->
<g id="node3" class="node">
<title>2</title>
<path fill="none" stroke="#56c9d8" stroke-width="2" d="M70,-180C70,-180 40,-180 40,-180 34,-180 28,-174 28,-168 28,-168 28,-156 28,-156 28,-150 34,-144 40,-144 40,-144 70,-144 70,-144 76,-144 82,-150 82,-156 82,-156 82,-168 82,-168 82,-174 76,-180 70,-180"/>
<text text-anchor="middle" x="55" y="-158.12" font-family="sans" font-size="10.00">fastqc</text>
</g>
<!-- 1&#45;&gt;2 -->
<g id="edge24" class="edge">
<title>1&#45;&gt;2</title>
<path fill="none" stroke="grey" stroke-width="2" d="M1253.16,-592.75C1072.27,-590.75 71,-574.14 71,-451 71,-451 71,-451 71,-305 71,-266.41 65.09,-222.29 60.46,-193.61"/>
<polygon fill="grey" stroke="grey" stroke-width="2" points="63.93,-193.13 58.82,-183.85 57.02,-194.29 63.93,-193.13"/>
</g>
<!-- 5 -->
<g id="node6" class="node">
<title>5</title>
<path fill="none" stroke="#56d8a2" stroke-width="2" d="M1574,-540C1574,-540 1544,-540 1544,-540 1538,-540 1532,-534 1532,-528 1532,-528 1532,-516 1532,-516 1532,-510 1538,-504 1544,-504 1544,-504 1574,-504 1574,-504 1580,-504 1586,-510 1586,-516 1586,-516 1586,-528 1586,-528 1586,-534 1580,-540 1574,-540"/>
<text text-anchor="middle" x="1559" y="-518.12" font-family="sans" font-size="10.00">align</text>
</g>
<!-- 1&#45;&gt;5 -->
<g id="edge26" class="edge">
<title>1&#45;&gt;5</title>
<path fill="none" stroke="grey" stroke-width="2" d="M1308.93,-585.97C1358.36,-573.52 1461.44,-547.57 1518.61,-533.17"/>
<polygon fill="grey" stroke="grey" stroke-width="2" points="1519.31,-536.6 1528.15,-530.77 1517.6,-529.81 1519.31,-536.6"/>
</g>
<!-- 8 -->
<g id="node9" class="node">
<title>8</title>
<path fill="none" stroke="#9fd856" stroke-width="2" d="M2708,-180C2708,-180 2678,-180 2678,-180 2672,-180 2666,-174 2666,-168 2666,-168 2666,-156 2666,-156 2666,-150 2672,-144 2678,-144 2678,-144 2708,-144 2708,-144 2714,-144 2720,-150 2720,-156 2720,-156 2720,-168 2720,-168 2720,-174 2714,-180 2708,-180"/>
<text text-anchor="middle" x="2693" y="-158.12" font-family="sans" font-size="10.00">salmon</text>
</g>
<!-- 1&#45;&gt;8 -->
<g id="edge29" class="edge">
<title>1&#45;&gt;8</title>
<path fill="none" stroke="grey" stroke-width="2" d="M1308.74,-592.87C1493.54,-591.68 2539,-579.23 2539,-451 2539,-451 2539,-451 2539,-305 2539,-242.74 2607.87,-200.25 2653.5,-178.93"/>
<polygon fill="grey" stroke="grey" stroke-width="2" points="2654.66,-182.24 2662.35,-174.96 2651.79,-175.86 2654.66,-182.24"/>
</g>
<!-- 26 -->
<g id="node27" class="node">
<title>26</title>
<path fill="none" stroke="#569ad8" stroke-width="2" d="M1304.12,-108C1304.12,-108 1261.88,-108 1261.88,-108 1255.88,-108 1249.88,-102 1249.88,-96 1249.88,-96 1249.88,-84 1249.88,-84 1249.88,-78 1255.88,-72 1261.88,-72 1261.88,-72 1304.12,-72 1304.12,-72 1310.12,-72 1316.12,-78 1316.12,-84 1316.12,-84 1316.12,-96 1316.12,-96 1316.12,-102 1310.12,-108 1304.12,-108"/>
<text text-anchor="middle" x="1283" y="-86.12" font-family="sans" font-size="10.00">run_multiqc</text>
</g>
<!-- 1&#45;&gt;26 -->
<g id="edge52" class="edge">
<title>1&#45;&gt;26</title>
<path fill="none" stroke="grey" stroke-width="2" d="M1281,-575.07C1281,-548.13 1281,-495.62 1281,-451 1281,-451 1281,-451 1281,-233 1281,-194.65 1281.74,-150.48 1282.32,-121.72"/>
<polygon fill="grey" stroke="grey" stroke-width="2" points="1285.81,-122.03 1282.52,-111.96 1278.81,-121.88 1285.81,-122.03"/>
</g>
<!-- 2&#45;&gt;0 -->
<g id="edge18" class="edge">
<title>2&#45;&gt;0</title>
<path fill="none" stroke="grey" stroke-width="2" d="M57.65,-143.08C61.79,-122.09 72,-88.13 96,-72 144.56,-39.36 1039.61,-22.94 1242.39,-19.63"/>
<polygon fill="grey" stroke="grey" stroke-width="2" points="1242.28,-23.14 1252.22,-19.47 1242.17,-16.14 1242.28,-23.14"/>
</g>
<!-- 2&#45;&gt;26 -->
<g id="edge65" class="edge">
<title>2&#45;&gt;26</title>
<path fill="none" stroke="grey" stroke-width="2" d="M82.98,-155.93C105.57,-152.04 138.23,-146.86 167,-144 580.14,-102.95 1082.57,-93.49 1236.18,-91.5"/>
<polygon fill="grey" stroke="grey" stroke-width="2" points="1236.14,-95 1246.1,-91.37 1236.05,-88 1236.14,-95"/>
</g>
<!-- 3 -->
<g id="node4" class="node">
<title>3</title>
<path fill="none" stroke="#d85656" stroke-width="2" d="M2598,-180C2598,-180 2504,-180 2504,-180 2498,-180 2492,-174 2492,-168 2492,-168 2492,-156 2492,-156 2492,-150 2498,-144 2504,-144 2504,-144 2598,-144 2598,-144 2604,-144 2610,-150 2610,-156 2610,-156 2610,-168 2610,-168 2610,-174 2604,-180 2598,-180"/>
<text text-anchor="middle" x="2551" y="-158.12" font-family="sans" font-size="10.00">fastqc_before_trimming</text>
</g>
<!-- 3&#45;&gt;0 -->
<g id="edge1" class="edge">
<title>3&#45;&gt;0</title>
<path fill="none" stroke="grey" stroke-width="2" d="M2497.19,-143.07C2431.6,-122.08 2317.02,-88.12 2216,-72 1874.03,-17.44 1453.71,-17.02 1323.42,-18.38"/>
<polygon fill="grey" stroke="grey" stroke-width="2" points="1323.68,-14.88 1313.72,-18.5 1323.76,-21.88 1323.68,-14.88"/>
</g>
<!-- 3&#45;&gt;26 -->
<g id="edge48" class="edge">
<title>3&#45;&gt;26</title>
<path fill="none" stroke="grey" stroke-width="2" d="M2491.06,-145.32C2488.35,-144.83 2485.65,-144.39 2483,-144 2254.4,-110.72 1522.66,-95.35 1329.91,-91.81"/>
<polygon fill="grey" stroke="grey" stroke-width="2" points="1330.06,-88.32 1320,-91.63 1329.93,-95.31 1330.06,-88.32"/>
</g>
<!-- 4 -->
<g id="node5" class="node">
<title>4</title>
<path fill="none" stroke="#567bd8" stroke-width="2" d="M1943.62,-180C1943.62,-180 1820.38,-180 1820.38,-180 1814.38,-180 1808.38,-174 1808.38,-168 1808.38,-168 1808.38,-156 1808.38,-156 1808.38,-150 1814.38,-144 1820.38,-144 1820.38,-144 1943.62,-144 1943.62,-144 1949.62,-144 1955.62,-150 1955.62,-156 1955.62,-156 1955.62,-168 1955.62,-168 1955.62,-174 1949.62,-180 1943.62,-180"/>
<text text-anchor="middle" x="1882" y="-158.12" font-family="sans" font-size="10.00">bamCoverage_CPM_stranded</text>
</g>
<!-- 4&#45;&gt;0 -->
<g id="edge22" class="edge">
<title>4&#45;&gt;0</title>
<path fill="none" stroke="grey" stroke-width="2" d="M1809.71,-143C1736.14,-124.77 1618.75,-95.93 1517,-72 1449.13,-56.04 1369.99,-38.3 1323.32,-27.92"/>
<polygon fill="grey" stroke="grey" stroke-width="2" points="1324.25,-24.54 1313.73,-25.79 1322.73,-31.38 1324.25,-24.54"/>
</g>
<!-- 4&#45;&gt;26 -->
<g id="edge68" class="edge">
<title>4&#45;&gt;26</title>
<path fill="none" stroke="grey" stroke-width="2" d="M1807.42,-145.2C1804.92,-144.78 1802.44,-144.38 1800,-144 1627.65,-117.37 1420.83,-100.74 1329.85,-94.19"/>
<polygon fill="grey" stroke="grey" stroke-width="2" points="1330.27,-90.71 1320.05,-93.49 1329.77,-97.69 1330.27,-90.71"/>
</g>
<!-- 5&#45;&gt;4 -->
<g id="edge25" class="edge">
<title>5&#45;&gt;4</title>
<path fill="none" stroke="grey" stroke-width="2" d="M1586.63,-518.03C1650.7,-509.46 1804,-478.55 1804,-379 1804,-379 1804,-379 1804,-305 1804,-260.85 1833.32,-217.47 1856.01,-190.5"/>
<polygon fill="grey" stroke="grey" stroke-width="2" points="1858.37,-193.11 1862.31,-183.28 1853.1,-188.51 1858.37,-193.11"/>
</g>
<!-- 6 -->
<g id="node7" class="node">
<title>6</title>
<path fill="none" stroke="#56d892" stroke-width="2" d="M2204.12,-180C2204.12,-180 2023.88,-180 2023.88,-180 2017.88,-180 2011.88,-174 2011.88,-168 2011.88,-168 2011.88,-156 2011.88,-156 2011.88,-150 2017.88,-144 2023.88,-144 2023.88,-144 2204.12,-144 2204.12,-144 2210.12,-144 2216.12,-150 2216.12,-156 2216.12,-156 2216.12,-168 2216.12,-168 2216.12,-174 2210.12,-180 2204.12,-180"/>
<text text-anchor="middle" x="2114" y="-158.12" font-family="sans" font-size="10.00">bamCoverage_CPM_stranded_no_blacklist</text>
</g>
<!-- 5&#45;&gt;6 -->
<g id="edge27" class="edge">
<title>5&#45;&gt;6</title>
<path fill="none" stroke="grey" stroke-width="2" d="M1586.88,-518.76C1688.49,-509.86 2033,-472.74 2033,-379 2033,-379 2033,-379 2033,-305 2033,-260.46 2063.45,-217.16 2087.01,-190.32"/>
<polygon fill="grey" stroke="grey" stroke-width="2" points="2089.43,-192.85 2093.58,-183.11 2084.26,-188.14 2089.43,-192.85"/>
</g>
<!-- 7 -->
<g id="node8" class="node">
<title>7</title>
<path fill="none" stroke="#d6d856" stroke-width="2" d="M2217.38,-252C2217.38,-252 2182.62,-252 2182.62,-252 2176.62,-252 2170.62,-246 2170.62,-240 2170.62,-240 2170.62,-228 2170.62,-228 2170.62,-222 2176.62,-216 2182.62,-216 2182.62,-216 2217.38,-216 2217.38,-216 2223.38,-216 2229.38,-222 2229.38,-228 2229.38,-228 2229.38,-240 2229.38,-240 2229.38,-246 2223.38,-252 2217.38,-252"/>
<text text-anchor="middle" x="2200" y="-230.12" font-family="sans" font-size="10.00">run_htseq</text>
</g>
<!-- 5&#45;&gt;7 -->
<g id="edge28" class="edge">
<title>5&#45;&gt;7</title>
<path fill="none" stroke="grey" stroke-width="2" d="M1586.85,-521.03C1678.44,-520.68 1968.94,-515.75 2047,-468 2124.85,-420.38 2171.03,-316.48 2189.95,-265.06"/>
<polygon fill="grey" stroke="grey" stroke-width="2" points="2193.21,-266.34 2193.26,-255.75 2186.62,-264 2193.21,-266.34"/>
</g>
<!-- 9 -->
<g id="node10" class="node">
<title>9</title>
<path fill="none" stroke="#56d882" stroke-width="2" d="M2461.62,-180C2461.62,-180 2416.38,-180 2416.38,-180 2410.38,-180 2404.38,-174 2404.38,-168 2404.38,-168 2404.38,-156 2404.38,-156 2404.38,-150 2410.38,-144 2416.38,-144 2416.38,-144 2461.62,-144 2461.62,-144 2467.62,-144 2473.62,-150 2473.62,-156 2473.62,-156 2473.62,-168 2473.62,-168 2473.62,-174 2467.62,-180 2461.62,-180"/>
<text text-anchor="middle" x="2439" y="-158.12" font-family="sans" font-size="10.00">run_regtools</text>
</g>
<!-- 5&#45;&gt;9 -->
<g id="edge30" class="edge">
<title>5&#45;&gt;9</title>
<path fill="none" stroke="grey" stroke-width="2" d="M1586.89,-520.36C1665.7,-518.09 1896.42,-508.24 2083,-468 2204.45,-441.81 2348,-503.24 2348,-379 2348,-379 2348,-379 2348,-305 2348,-259.1 2382.12,-216.17 2408.57,-189.79"/>
<polygon fill="grey" stroke="grey" stroke-width="2" points="2410.92,-192.38 2415.71,-182.93 2406.07,-187.33 2410.92,-192.38"/>
</g>
<!-- 10 -->
<g id="node11" class="node">
<title>10</title>
<path fill="none" stroke="#56d8c1" stroke-width="2" d="M272,-252C272,-252 196,-252 196,-252 190,-252 184,-246 184,-240 184,-240 184,-228 184,-228 184,-222 190,-216 196,-216 196,-216 272,-216 272,-216 278,-216 284,-222 284,-228 284,-228 284,-240 284,-240 284,-246 278,-252 272,-252"/>
<text text-anchor="middle" x="234" y="-230.12" font-family="sans" font-size="10.00">run_TPMCalculator</text>
</g>
<!-- 5&#45;&gt;10 -->
<g id="edge31" class="edge">
<title>5&#45;&gt;10</title>
<path fill="none" stroke="grey" stroke-width="2" d="M1531.21,-520.75C1350.49,-519.03 347.9,-507.73 298,-468 236.5,-419.04 230.74,-316.92 232.07,-265.69"/>
<polygon fill="grey" stroke="grey" stroke-width="2" points="235.57,-265.84 232.48,-255.7 228.58,-265.56 235.57,-265.84"/>
</g>
<!-- 11 -->
<g id="node12" class="node">
<title>11</title>
<path fill="none" stroke="#56a9d8" stroke-width="2" d="M424.5,-180C424.5,-180 321.5,-180 321.5,-180 315.5,-180 309.5,-174 309.5,-168 309.5,-168 309.5,-156 309.5,-156 309.5,-150 315.5,-144 321.5,-144 321.5,-144 424.5,-144 424.5,-144 430.5,-144 436.5,-150 436.5,-156 436.5,-156 436.5,-168 436.5,-168 436.5,-174 430.5,-180 424.5,-180"/>
<text text-anchor="middle" x="373" y="-158.12" font-family="sans" font-size="10.00">run_bam_selected_genes</text>
</g>
<!-- 5&#45;&gt;11 -->
<g id="edge32" class="edge">
<title>5&#45;&gt;11</title>
<path fill="none" stroke="grey" stroke-width="2" d="M1531.21,-520.85C1347.21,-519.47 312,-506.06 312,-379 312,-379 312,-379 312,-305 312,-262.98 334.83,-219.22 352.56,-191.58"/>
<polygon fill="grey" stroke="grey" stroke-width="2" points="355.45,-193.56 358.08,-183.3 349.63,-189.67 355.45,-193.56"/>
</g>
<!-- 12 -->
<g id="node13" class="node">
<title>12</title>
<path fill="none" stroke="#80d856" stroke-width="2" d="M1062.62,-468C1062.62,-468 945.38,-468 945.38,-468 939.38,-468 933.38,-462 933.38,-456 933.38,-456 933.38,-444 933.38,-444 933.38,-438 939.38,-432 945.38,-432 945.38,-432 1062.62,-432 1062.62,-432 1068.62,-432 1074.62,-438 1074.62,-444 1074.62,-444 1074.62,-456 1074.62,-456 1074.62,-462 1068.62,-468 1062.62,-468"/>
<text text-anchor="middle" x="1004" y="-446.12" font-family="sans" font-size="10.00">run_bam_just_numbered_chr</text>
</g>
<!-- 5&#45;&gt;12 -->
<g id="edge33" class="edge">
<title>5&#45;&gt;12</title>
<path fill="none" stroke="grey" stroke-width="2" d="M1531.1,-517.48C1450.55,-507.32 1215.33,-477.65 1088.08,-461.6"/>
<polygon fill="grey" stroke="grey" stroke-width="2" points="1088.72,-458.16 1078.36,-460.38 1087.85,-465.1 1088.72,-458.16"/>
</g>
<!-- 15 -->
<g id="node16" class="node">
<title>15</title>
<path fill="none" stroke="#d8ac56" stroke-width="2" d="M1377.25,-180C1377.25,-180 1320.75,-180 1320.75,-180 1314.75,-180 1308.75,-174 1308.75,-168 1308.75,-168 1308.75,-156 1308.75,-156 1308.75,-150 1314.75,-144 1320.75,-144 1320.75,-144 1377.25,-144 1377.25,-144 1383.25,-144 1389.25,-150 1389.25,-156 1389.25,-156 1389.25,-168 1389.25,-168 1389.25,-174 1383.25,-180 1377.25,-180"/>
<text text-anchor="middle" x="1349" y="-158.12" font-family="sans" font-size="10.00">run_bam_stats</text>
</g>
<!-- 5&#45;&gt;15 -->
<g id="edge37" class="edge">
<title>5&#45;&gt;15</title>
<path fill="none" stroke="grey" stroke-width="2" d="M1531.29,-510.23C1487.2,-491.06 1406,-446.59 1406,-379 1406,-379 1406,-379 1406,-305 1406,-263.39 1384.66,-219.54 1368.1,-191.77"/>
<polygon fill="grey" stroke="grey" stroke-width="2" points="1371.2,-190.14 1362.96,-183.48 1365.25,-193.82 1371.2,-190.14"/>
</g>
<!-- 18 -->
<g id="node19" class="node">
<title>18</title>
<path fill="none" stroke="#8fd856" stroke-width="2" d="M1614.62,-252C1614.62,-252 1503.38,-252 1503.38,-252 1497.38,-252 1491.38,-246 1491.38,-240 1491.38,-240 1491.38,-228 1491.38,-228 1491.38,-222 1497.38,-216 1503.38,-216 1503.38,-216 1614.62,-216 1614.62,-216 1620.62,-216 1626.62,-222 1626.62,-228 1626.62,-228 1626.62,-240 1626.62,-240 1626.62,-246 1620.62,-252 1614.62,-252"/>
<text text-anchor="middle" x="1559" y="-230.12" font-family="sans" font-size="10.00">run_convert_SJ_to_interact</text>
</g>
<!-- 5&#45;&gt;18 -->
<g id="edge40" class="edge">
<title>5&#45;&gt;18</title>
<path fill="none" stroke="grey" stroke-width="2" d="M1559,-503.11C1559,-455.56 1559,-325.6 1559,-265.83"/>
<polygon fill="grey" stroke="grey" stroke-width="2" points="1562.5,-265.91 1559,-255.91 1555.5,-265.91 1562.5,-265.91"/>
</g>
<!-- 20 -->
<g id="node21" class="node">
<title>20</title>
<path fill="none" stroke="#5663d8" stroke-width="2" d="M1778.75,-180C1778.75,-180 1665.25,-180 1665.25,-180 1659.25,-180 1653.25,-174 1653.25,-168 1653.25,-168 1653.25,-156 1653.25,-156 1653.25,-150 1659.25,-144 1665.25,-144 1665.25,-144 1778.75,-144 1778.75,-144 1784.75,-144 1790.75,-150 1790.75,-156 1790.75,-156 1790.75,-168 1790.75,-168 1790.75,-174 1784.75,-180 1778.75,-180"/>
<text text-anchor="middle" x="1722" y="-158.12" font-family="sans" font-size="10.00">run_merge_junctions_STAR</text>
</g>
<!-- 5&#45;&gt;20 -->
<g id="edge42" class="edge">
<title>5&#45;&gt;20</title>
<path fill="none" stroke="grey" stroke-width="2" d="M1586.99,-506.37C1624.93,-484.29 1688,-438.62 1688,-379 1688,-379 1688,-379 1688,-305 1688,-265.39 1700.67,-221.23 1710.54,-192.83"/>
<polygon fill="grey" stroke="grey" stroke-width="2" points="1713.82,-194.05 1713.93,-183.45 1707.24,-191.67 1713.82,-194.05"/>
</g>
<!-- 6&#45;&gt;0 -->
<g id="edge15" class="edge">
<title>6&#45;&gt;0</title>
<path fill="none" stroke="grey" stroke-width="2" d="M2097.54,-143.19C2076.69,-121.98 2038.56,-87.46 1998,-72 1873.31,-24.47 1455.93,-19.38 1323.61,-18.98"/>
<polygon fill="grey" stroke="grey" stroke-width="2" points="1323.69,-15.48 1313.68,-18.96 1323.67,-22.48 1323.69,-15.48"/>
</g>
<!-- 6&#45;&gt;26 -->
<g id="edge62" class="edge">
<title>6&#45;&gt;26</title>
<path fill="none" stroke="grey" stroke-width="2" d="M2011.05,-148.76C1995.63,-147.07 1979.9,-145.43 1965,-144 1726.68,-121.15 1440.79,-101.42 1330.03,-94.07"/>
<polygon fill="grey" stroke="grey" stroke-width="2" points="1330.33,-90.58 1320.12,-93.41 1329.87,-97.57 1330.33,-90.58"/>
</g>
<!-- 7&#45;&gt;0 -->
<g id="edge6" class="edge">
<title>7&#45;&gt;0</title>
<path fill="none" stroke="grey" stroke-width="2" d="M2230.28,-231.44C2322.18,-226.41 2593.27,-209.19 2619,-180 2629.58,-168 2628.95,-156.53 2619,-144 2536.28,-39.87 1538.12,-22.05 1323.49,-19.42"/>
<polygon fill="grey" stroke="grey" stroke-width="2" points="1323.84,-15.92 1313.8,-19.3 1323.76,-22.92 1323.84,-15.92"/>
</g>
<!-- 25 -->
<g id="node26" class="node">
<title>25</title>
<path fill="none" stroke="#afd856" stroke-width="2" d="M2373.88,-180C2373.88,-180 2246.12,-180 2246.12,-180 2240.12,-180 2234.12,-174 2234.12,-168 2234.12,-168 2234.12,-156 2234.12,-156 2234.12,-150 2240.12,-144 2246.12,-144 2246.12,-144 2373.88,-144 2373.88,-144 2379.88,-144 2385.88,-150 2385.88,-156 2385.88,-156 2385.88,-168 2385.88,-168 2385.88,-174 2379.88,-180 2373.88,-180"/>
<text text-anchor="middle" x="2310" y="-158.12" font-family="sans" font-size="10.00">run_merge_gene_htseq_counts</text>
</g>
<!-- 7&#45;&gt;25 -->
<g id="edge47" class="edge">
<title>7&#45;&gt;25</title>
<path fill="none" stroke="grey" stroke-width="2" d="M2228.04,-215.15C2241.1,-206.84 2256.85,-196.82 2271.04,-187.79"/>
<polygon fill="grey" stroke="grey" stroke-width="2" points="2272.9,-190.76 2279.46,-182.44 2269.14,-184.85 2272.9,-190.76"/>
</g>
<!-- 7&#45;&gt;26 -->
<g id="edge53" class="edge">
<title>7&#45;&gt;26</title>
<path fill="none" stroke="grey" stroke-width="2" d="M2169.79,-233.37C2049.17,-234.47 1602.32,-234.68 1474,-180 1452,-170.62 1454.57,-156.2 1434,-144 1401.23,-124.57 1360.25,-110.75 1329.25,-102.11"/>
<polygon fill="grey" stroke="grey" stroke-width="2" points="1330.54,-98.83 1319.98,-99.61 1328.73,-105.59 1330.54,-98.83"/>
</g>
<!-- 8&#45;&gt;0 -->
<g id="edge9" class="edge">
<title>8&#45;&gt;0</title>
<path fill="none" stroke="grey" stroke-width="2" d="M2690.37,-143.05C2686.24,-122.04 2676.05,-88.06 2652,-72 2595.39,-34.19 1545,-21.62 1323.71,-19.38"/>
<polygon fill="grey" stroke="grey" stroke-width="2" points="1323.98,-15.89 1313.94,-19.29 1323.91,-22.89 1323.98,-15.89"/>
</g>
<!-- 8&#45;&gt;26 -->
<g id="edge56" class="edge">
<title>8&#45;&gt;26</title>
<path fill="none" stroke="grey" stroke-width="2" d="M2665.11,-153.3C2651.34,-149.83 2634.42,-146.06 2619,-144 2361.9,-109.67 1535.56,-94.89 1329.76,-91.69"/>
<polygon fill="grey" stroke="grey" stroke-width="2" points="1329.92,-88.19 1319.86,-91.53 1329.81,-95.19 1329.92,-88.19"/>
</g>
<!-- 9&#45;&gt;0 -->
<g id="edge14" class="edge">
<title>9&#45;&gt;0</title>
<path fill="none" stroke="grey" stroke-width="2" d="M2403.58,-146.92C2400.69,-145.89 2397.81,-144.91 2395,-144 2274.77,-105.17 2244.74,-92.09 2120,-72 1816.87,-23.19 1445.21,-18.83 1323.6,-18.81"/>
<polygon fill="grey" stroke="grey" stroke-width="2" points="1323.69,-15.31 1313.7,-18.82 1323.7,-22.31 1323.69,-15.31"/>
</g>
<!-- 9&#45;&gt;26 -->
<g id="edge61" class="edge">
<title>9&#45;&gt;26</title>
<path fill="none" stroke="grey" stroke-width="2" d="M2403.76,-146.26C2400.83,-145.38 2397.88,-144.61 2395,-144 2186.76,-100.02 1513.8,-92.48 1329.85,-91.24"/>
<polygon fill="grey" stroke="grey" stroke-width="2" points="1330.02,-87.74 1320,-91.18 1329.97,-94.74 1330.02,-87.74"/>
</g>
<!-- 10&#45;&gt;0 -->
<g id="edge17" class="edge">
<title>10&#45;&gt;0</title>
<path fill="none" stroke="grey" stroke-width="2" d="M200.06,-215.04C187.23,-206.32 174.04,-194.55 167,-180 160.03,-165.6 158.25,-157.4 167,-144 210.53,-77.35 253.58,-90.51 331,-72 508.17,-29.65 1084.33,-20.94 1242.51,-19.34"/>
<polygon fill="grey" stroke="grey" stroke-width="2" points="1242.26,-22.84 1252.23,-19.24 1242.19,-15.84 1242.26,-22.84"/>
</g>
<!-- 21 -->
<g id="node22" class="node">
<title>21</title>
<path fill="none" stroke="#56d873" stroke-width="2" d="M279.5,-180C279.5,-180 188.5,-180 188.5,-180 182.5,-180 176.5,-174 176.5,-168 176.5,-168 176.5,-156 176.5,-156 176.5,-150 182.5,-144 188.5,-144 188.5,-144 279.5,-144 279.5,-144 285.5,-144 291.5,-150 291.5,-156 291.5,-156 291.5,-168 291.5,-168 291.5,-174 285.5,-180 279.5,-180"/>
<text text-anchor="middle" x="234" y="-158.12" font-family="sans" font-size="10.00">run_merge_gene_tpms</text>
</g>
<!-- 10&#45;&gt;21 -->
<g id="edge43" class="edge">
<title>10&#45;&gt;21</title>
<path fill="none" stroke="grey" stroke-width="2" d="M234,-215.34C234,-208.75 234,-201.08 234,-193.67"/>
<polygon fill="grey" stroke="grey" stroke-width="2" points="237.5,-193.93 234,-183.93 230.5,-193.93 237.5,-193.93"/>
</g>
<!-- 10&#45;&gt;26 -->
<g id="edge64" class="edge">
<title>10&#45;&gt;26</title>
<path fill="none" stroke="grey" stroke-width="2" d="M284.68,-223.12C327.93,-214.02 391.44,-199.05 445,-180 480.59,-167.34 485.43,-153.47 522,-144 658.16,-108.74 1092.23,-95.5 1236.14,-92.02"/>
<polygon fill="grey" stroke="grey" stroke-width="2" points="1236.2,-95.52 1246.12,-91.78 1236.04,-88.52 1236.2,-95.52"/>
</g>
<!-- 11&#45;&gt;0 -->
<g id="edge19" class="edge">
<title>11&#45;&gt;0</title>
<path fill="none" stroke="grey" stroke-width="2" d="M389.44,-143.14C410.27,-121.88 448.39,-87.31 489,-72 629.1,-19.18 1101.19,-17.81 1242.62,-18.63"/>
<polygon fill="grey" stroke="grey" stroke-width="2" points="1242.21,-22.13 1252.23,-18.7 1242.25,-15.13 1242.21,-22.13"/>
</g>
<!-- 11&#45;&gt;26 -->
<g id="edge66" class="edge">
<title>11&#45;&gt;26</title>
<path fill="none" stroke="grey" stroke-width="2" d="M437.13,-146.22C441.81,-145.39 446.47,-144.63 451,-144 748,-102.42 1109.26,-93.43 1236.2,-91.51"/>
<polygon fill="grey" stroke="grey" stroke-width="2" points="1236.16,-95.01 1246.11,-91.37 1236.06,-88.01 1236.16,-95.01"/>
</g>
<!-- 12&#45;&gt;0 -->
<g id="edge11" class="edge">
<title>12&#45;&gt;0</title>
<path fill="none" stroke="grey" stroke-width="2" d="M932.47,-436.36C877.25,-426.3 799.04,-411.4 731,-396 459.66,-334.58 91.11,-414.05 158,-144 166.7,-108.88 165.48,-91.43 196,-72 285.5,-15.02 1054.85,-17.23 1242.06,-18.63"/>
<polygon fill="grey" stroke="grey" stroke-width="2" points="1241.95,-22.12 1251.98,-18.7 1242,-15.12 1241.95,-22.12"/>
</g>
<!-- 13 -->
<g id="node14" class="node">
<title>13</title>
<path fill="none" stroke="#c6d856" stroke-width="2" d="M851.75,-324C851.75,-324 762.25,-324 762.25,-324 756.25,-324 750.25,-318 750.25,-312 750.25,-312 750.25,-300 750.25,-300 750.25,-294 756.25,-288 762.25,-288 762.25,-288 851.75,-288 851.75,-288 857.75,-288 863.75,-294 863.75,-300 863.75,-300 863.75,-312 863.75,-312 863.75,-318 857.75,-324 851.75,-324"/>
<text text-anchor="middle" x="807" y="-302.12" font-family="sans" font-size="10.00">run_downsample_bam</text>
</g>
<!-- 12&#45;&gt;13 -->
<g id="edge35" class="edge">
<title>12&#45;&gt;13</title>
<path fill="none" stroke="grey" stroke-width="2" d="M981.46,-431.16C958.14,-412.86 920.5,-383.8 887,-360 873.74,-350.58 858.95,-340.63 845.73,-331.93"/>
<polygon fill="grey" stroke="grey" stroke-width="2" points="847.89,-329.16 837.6,-326.61 844.06,-335.02 847.89,-329.16"/>
</g>
<!-- 14 -->
<g id="node15" class="node">
<title>14</title>
<path fill="none" stroke="#61d856" stroke-width="2" d="M865.75,-396C865.75,-396 752.25,-396 752.25,-396 746.25,-396 740.25,-390 740.25,-384 740.25,-384 740.25,-372 740.25,-372 740.25,-366 746.25,-360 752.25,-360 752.25,-360 865.75,-360 865.75,-360 871.75,-360 877.75,-366 877.75,-372 877.75,-372 877.75,-384 877.75,-384 877.75,-390 871.75,-396 865.75,-396"/>
<text text-anchor="middle" x="809" y="-374.12" font-family="sans" font-size="10.00">run_downsample_bam_prep</text>
</g>
<!-- 12&#45;&gt;14 -->
<g id="edge36" class="edge">
<title>12&#45;&gt;14</title>
<path fill="none" stroke="grey" stroke-width="2" d="M954.04,-431.06C928.69,-421.97 897.67,-410.83 870.84,-401.2"/>
<polygon fill="grey" stroke="grey" stroke-width="2" points="872.28,-398 861.68,-397.91 869.91,-404.58 872.28,-398"/>
</g>
<!-- 16 -->
<g id="node17" class="node">
<title>16</title>
<path fill="none" stroke="#70d856" stroke-width="2" d="M1117.38,-252C1117.38,-252 974.62,-252 974.62,-252 968.62,-252 962.62,-246 962.62,-240 962.62,-240 962.62,-228 962.62,-228 962.62,-222 968.62,-216 974.62,-216 974.62,-216 1117.38,-216 1117.38,-216 1123.38,-216 1129.38,-222 1129.38,-228 1129.38,-228 1129.38,-240 1129.38,-240 1129.38,-246 1123.38,-252 1117.38,-252"/>
<text text-anchor="middle" x="1046" y="-230.12" font-family="sans" font-size="10.00">run_TPMCalculator_numbered_chr</text>
</g>
<!-- 12&#45;&gt;16 -->
<g id="edge38" class="edge">
<title>12&#45;&gt;16</title>
<path fill="none" stroke="grey" stroke-width="2" d="M1007.51,-431.12C1014.67,-394.62 1031.06,-311.13 1039.97,-265.74"/>
<polygon fill="grey" stroke="grey" stroke-width="2" points="1043.4,-266.43 1041.89,-255.95 1036.53,-265.09 1043.4,-266.43"/>
</g>
<!-- 12&#45;&gt;26 -->
<g id="edge58" class="edge">
<title>12&#45;&gt;26</title>
<path fill="none" stroke="grey" stroke-width="2" d="M1075.38,-437.62C1145.81,-421.84 1243,-385.79 1243,-307 1243,-307 1243,-307 1243,-233 1243,-193.02 1257.87,-149 1269.48,-120.73"/>
<polygon fill="grey" stroke="grey" stroke-width="2" points="1272.62,-122.28 1273.33,-111.71 1266.19,-119.53 1272.62,-122.28"/>
</g>
<!-- 13&#45;&gt;0 -->
<g id="edge7" class="edge">
<title>13&#45;&gt;0</title>
<path fill="none" stroke="grey" stroke-width="2" d="M749.49,-296.35C649.34,-278.76 459.3,-232.77 522,-144 606,-25.08 1096.51,-18 1242.21,-18.56"/>
<polygon fill="grey" stroke="grey" stroke-width="2" points="1242.16,-22.06 1252.18,-18.62 1242.2,-15.06 1242.16,-22.06"/>
</g>
<!-- 17 -->
<g id="node18" class="node">
<title>17</title>
<path fill="none" stroke="#d87556" stroke-width="2" d="M643,-180C643,-180 543,-180 543,-180 537,-180 531,-174 531,-168 531,-168 531,-156 531,-156 531,-150 537,-144 543,-144 543,-144 643,-144 643,-144 649,-144 655,-150 655,-156 655,-156 655,-168 655,-168 655,-174 649,-180 643,-180"/>
<text text-anchor="middle" x="593" y="-158.12" font-family="sans" font-size="10.00">run_htseq_downsampled</text>
</g>
<!-- 13&#45;&gt;17 -->
<g id="edge39" class="edge">
<title>13&#45;&gt;17</title>
<path fill="none" stroke="grey" stroke-width="2" d="M771.65,-287.03C753.2,-277.27 730.49,-264.64 711,-252 680.57,-232.26 647.77,-207.19 624.49,-188.69"/>
<polygon fill="grey" stroke="grey" stroke-width="2" points="626.87,-186.11 616.87,-182.59 622.49,-191.57 626.87,-186.11"/>
</g>
<!-- 24 -->
<g id="node25" class="node">
<title>24</title>
<path fill="none" stroke="#56b9d8" stroke-width="2" d="M873.62,-252C873.62,-252 732.38,-252 732.38,-252 726.38,-252 720.38,-246 720.38,-240 720.38,-240 720.38,-228 720.38,-228 720.38,-222 726.38,-216 732.38,-216 732.38,-216 873.62,-216 873.62,-216 879.62,-216 885.62,-222 885.62,-228 885.62,-228 885.62,-240 885.62,-240 885.62,-246 879.62,-252 873.62,-252"/>
<text text-anchor="middle" x="803" y="-230.12" font-family="sans" font-size="10.00">run_TPMCalculator_downsampled</text>
</g>
<!-- 13&#45;&gt;24 -->
<g id="edge46" class="edge">
<title>13&#45;&gt;24</title>
<path fill="none" stroke="grey" stroke-width="2" d="M805.99,-287.34C805.61,-280.75 805.18,-273.08 804.75,-265.67"/>
<polygon fill="grey" stroke="grey" stroke-width="2" points="808.26,-265.71 804.2,-255.92 801.27,-266.11 808.26,-265.71"/>
</g>
<!-- 13&#45;&gt;26 -->
<g id="edge54" class="edge">
<title>13&#45;&gt;26</title>
<path fill="none" stroke="grey" stroke-width="2" d="M864.46,-300.64C946.48,-293.6 1092.28,-277.86 1138,-252 1192.64,-221.1 1186.33,-190.03 1229,-144 1237.11,-135.25 1246.26,-126.04 1254.7,-117.79"/>
<polygon fill="grey" stroke="grey" stroke-width="2" points="1256.89,-120.54 1261.64,-111.08 1252.02,-115.51 1256.89,-120.54"/>
</g>
<!-- 14&#45;&gt;13 -->
<g id="edge34" class="edge">
<title>14&#45;&gt;13</title>
<path fill="none" stroke="grey" stroke-width="2" d="M808.5,-359.34C808.31,-352.75 808.09,-345.08 807.88,-337.67"/>
<polygon fill="grey" stroke="grey" stroke-width="2" points="811.38,-337.82 807.6,-327.93 804.39,-338.02 811.38,-337.82"/>
</g>
<!-- 15&#45;&gt;0 -->
<g id="edge4" class="edge">
<title>15&#45;&gt;0</title>
<path fill="none" stroke="grey" stroke-width="2" d="M1346.39,-143.18C1343.18,-124.64 1336.67,-95.15 1325,-72 1320.57,-63.21 1314.53,-54.49 1308.42,-46.73"/>
<polygon fill="grey" stroke="grey" stroke-width="2" points="1311.21,-44.61 1302.12,-39.17 1305.83,-49.1 1311.21,-44.61"/>
</g>
<!-- 15&#45;&gt;26 -->
<g id="edge51" class="edge">
<title>15&#45;&gt;26</title>
<path fill="none" stroke="grey" stroke-width="2" d="M1332.35,-143.34C1325.21,-135.77 1316.71,-126.75 1308.79,-118.35"/>
<polygon fill="grey" stroke="grey" stroke-width="2" points="1311.36,-115.98 1301.96,-111.1 1306.27,-120.78 1311.36,-115.98"/>
</g>
<!-- 16&#45;&gt;0 -->
<g id="edge12" class="edge">
<title>16&#45;&gt;0</title>
<path fill="none" stroke="grey" stroke-width="2" d="M989.38,-215.08C973.16,-207.03 957.36,-195.7 948,-180 939.81,-166.26 938.96,-157.2 948,-144 1015.06,-46.14 1168.68,-24.73 1242.26,-20.16"/>
<polygon fill="grey" stroke="grey" stroke-width="2" points="1242.2,-23.67 1252.01,-19.65 1241.84,-16.68 1242.2,-23.67"/>
</g>
<!-- 22 -->
<g id="node23" class="node">
<title>22</title>
<path fill="none" stroke="#d86656" stroke-width="2" d="M1126.88,-180C1126.88,-180 969.12,-180 969.12,-180 963.12,-180 957.12,-174 957.12,-168 957.12,-168 957.12,-156 957.12,-156 957.12,-150 963.12,-144 969.12,-144 969.12,-144 1126.88,-144 1126.88,-144 1132.88,-144 1138.88,-150 1138.88,-156 1138.88,-156 1138.88,-168 1138.88,-168 1138.88,-174 1132.88,-180 1126.88,-180"/>
<text text-anchor="middle" x="1048" y="-158.12" font-family="sans" font-size="10.00">run_merge_gene_tpms_numbered_chr</text>
</g>
<!-- 16&#45;&gt;22 -->
<g id="edge44" class="edge">
<title>16&#45;&gt;22</title>
<path fill="none" stroke="grey" stroke-width="2" d="M1046.5,-215.34C1046.69,-208.75 1046.91,-201.08 1047.12,-193.67"/>
<polygon fill="grey" stroke="grey" stroke-width="2" points="1050.61,-194.02 1047.4,-183.93 1043.62,-193.82 1050.61,-194.02"/>
</g>
<!-- 16&#45;&gt;26 -->
<g id="edge59" class="edge">
<title>16&#45;&gt;26</title>
<path fill="none" stroke="grey" stroke-width="2" d="M1085.39,-215.03C1104.81,-205.55 1128.24,-193.18 1148,-180 1168.74,-166.17 1170.57,-158.28 1191,-144 1205.69,-133.74 1222.49,-123.62 1237.68,-115.03"/>
<polygon fill="grey" stroke="grey" stroke-width="2" points="1239.24,-118.17 1246.28,-110.25 1235.84,-112.05 1239.24,-118.17"/>
</g>
<!-- 17&#45;&gt;0 -->
<g id="edge3" class="edge">
<title>17&#45;&gt;0</title>
<path fill="none" stroke="grey" stroke-width="2" d="M635.66,-143.02C685.81,-122.62 772,-89.87 849,-72 991.3,-38.97 1164.91,-25.65 1242.35,-21.07"/>
<polygon fill="grey" stroke="grey" stroke-width="2" points="1242.42,-24.57 1252.2,-20.51 1242.02,-17.58 1242.42,-24.57"/>
</g>
<!-- 17&#45;&gt;26 -->
<g id="edge50" class="edge">
<title>17&#45;&gt;26</title>
<path fill="none" stroke="grey" stroke-width="2" d="M655.62,-145.47C658.44,-144.94 661.25,-144.44 664,-144 875.92,-109.75 1132.46,-96.72 1236.16,-92.62"/>
<polygon fill="grey" stroke="grey" stroke-width="2" points="1236.01,-96.13 1245.87,-92.25 1235.74,-89.13 1236.01,-96.13"/>
</g>
<!-- 18&#45;&gt;0 -->
<g id="edge10" class="edge">
<title>18&#45;&gt;0</title>
<path fill="none" stroke="grey" stroke-width="2" d="M1627.25,-228.94C1737.1,-221.7 1943.1,-204.94 1965,-180 1975.56,-167.98 1975.15,-156.37 1965,-144 1882.84,-43.94 1457.21,-23.78 1323.35,-19.89"/>
<polygon fill="grey" stroke="grey" stroke-width="2" points="1323.73,-16.4 1313.64,-19.63 1323.54,-23.4 1323.73,-16.4"/>
</g>
<!-- 19 -->
<g id="node20" class="node">
<title>19</title>
<path fill="none" stroke="#568ad8" stroke-width="2" d="M1622.88,-180C1622.88,-180 1495.12,-180 1495.12,-180 1489.12,-180 1483.12,-174 1483.12,-168 1483.12,-168 1483.12,-156 1483.12,-156 1483.12,-150 1489.12,-144 1495.12,-144 1495.12,-144 1622.88,-144 1622.88,-144 1628.88,-144 1634.88,-150 1634.88,-156 1634.88,-156 1634.88,-168 1634.88,-168 1634.88,-174 1628.88,-180 1622.88,-180"/>
<text text-anchor="middle" x="1559" y="-158.12" font-family="sans" font-size="10.00">run_convert_interact_to_bigbed</text>
</g>
<!-- 18&#45;&gt;19 -->
<g id="edge41" class="edge">
<title>18&#45;&gt;19</title>
<path fill="none" stroke="grey" stroke-width="2" d="M1559,-215.34C1559,-208.75 1559,-201.08 1559,-193.67"/>
<polygon fill="grey" stroke="grey" stroke-width="2" points="1562.5,-193.93 1559,-183.93 1555.5,-193.93 1562.5,-193.93"/>
</g>
<!-- 18&#45;&gt;26 -->
<g id="edge57" class="edge">
<title>18&#45;&gt;26</title>
<path fill="none" stroke="grey" stroke-width="2" d="M1511.25,-215.07C1489.15,-205.9 1462.98,-193.77 1441,-180 1419.88,-166.77 1419.06,-157.33 1398,-144 1376.32,-130.27 1350.5,-118.04 1328.82,-108.8"/>
<polygon fill="grey" stroke="grey" stroke-width="2" points="1330.3,-105.63 1319.72,-105.01 1327.61,-112.09 1330.3,-105.63"/>
</g>
<!-- 19&#45;&gt;0 -->
<g id="edge21" class="edge">
<title>19&#45;&gt;0</title>
<path fill="none" stroke="grey" stroke-width="2" d="M1524.04,-143.02C1472.39,-116.44 1376,-66.85 1322.08,-39.11"/>
<polygon fill="grey" stroke="grey" stroke-width="2" points="1323.8,-36.05 1313.31,-34.59 1320.6,-42.28 1323.8,-36.05"/>
</g>
<!-- 19&#45;&gt;26 -->
<g id="edge67" class="edge">
<title>19&#45;&gt;26</title>
<path fill="none" stroke="grey" stroke-width="2" d="M1488.28,-143.06C1438.38,-130.41 1372.95,-113.81 1329.51,-102.8"/>
<polygon fill="grey" stroke="grey" stroke-width="2" points="1330.54,-99.45 1319.99,-100.38 1328.82,-106.23 1330.54,-99.45"/>
</g>
<!-- 20&#45;&gt;0 -->
<g id="edge16" class="edge">
<title>20&#45;&gt;0</title>
<path fill="none" stroke="grey" stroke-width="2" d="M1666.4,-143.02C1576.57,-113.96 1401.67,-57.39 1323.01,-31.94"/>
<polygon fill="grey" stroke="grey" stroke-width="2" points="1324.27,-28.67 1313.68,-28.92 1322.12,-35.33 1324.27,-28.67"/>
</g>
<!-- 20&#45;&gt;26 -->
<g id="edge63" class="edge">
<title>20&#45;&gt;26</title>
<path fill="none" stroke="grey" stroke-width="2" d="M1652.31,-145.56C1649.5,-145.02 1646.73,-144.5 1644,-144 1531.59,-123.52 1398.37,-105.59 1329.47,-96.78"/>
<polygon fill="grey" stroke="grey" stroke-width="2" points="1330.34,-93.36 1319.97,-95.58 1329.45,-100.31 1330.34,-93.36"/>
</g>
<!-- 21&#45;&gt;0 -->
<g id="edge23" class="edge">
<title>21&#45;&gt;0</title>
<path fill="none" stroke="grey" stroke-width="2" d="M263.47,-143.18C300.26,-121.95 365.82,-87.42 427,-72 584.33,-32.34 1094.2,-21.79 1242.31,-19.54"/>
<polygon fill="grey" stroke="grey" stroke-width="2" points="1242.13,-23.04 1252.07,-19.39 1242.02,-16.04 1242.13,-23.04"/>
</g>
<!-- 21&#45;&gt;26 -->
<g id="edge69" class="edge">
<title>21&#45;&gt;26</title>
<path fill="none" stroke="grey" stroke-width="2" d="M292.17,-145.35C294.81,-144.85 297.43,-144.4 300,-144 483.99,-115.63 1066.69,-97.16 1236.27,-92.29"/>
<polygon fill="grey" stroke="grey" stroke-width="2" points="1236.2,-95.79 1246.1,-92.01 1236.01,-88.8 1236.2,-95.79"/>
</g>
<!-- 22&#45;&gt;0 -->
<g id="edge2" class="edge">
<title>22&#45;&gt;0</title>
<path fill="none" stroke="grey" stroke-width="2" d="M1077.76,-143.02C1120.09,-117.44 1197.72,-70.53 1244.42,-42.31"/>
<polygon fill="grey" stroke="grey" stroke-width="2" points="1245.96,-45.47 1252.71,-37.3 1242.34,-39.48 1245.96,-45.47"/>
</g>
<!-- 22&#45;&gt;26 -->
<g id="edge49" class="edge">
<title>22&#45;&gt;26</title>
<path fill="none" stroke="grey" stroke-width="2" d="M1108.21,-143.06C1148.24,-131.14 1200,-115.72 1236.78,-104.77"/>
<polygon fill="grey" stroke="grey" stroke-width="2" points="1237.64,-108.16 1246.22,-101.96 1235.64,-101.46 1237.64,-108.16"/>
</g>
<!-- 23 -->
<g id="node24" class="node">
<title>23</title>
<path fill="none" stroke="#56d85b" stroke-width="2" d="M889.12,-180C889.12,-180 684.88,-180 684.88,-180 678.88,-180 672.88,-174 672.88,-168 672.88,-168 672.88,-156 672.88,-156 672.88,-150 678.88,-144 684.88,-144 684.88,-144 889.12,-144 889.12,-144 895.12,-144 901.12,-150 901.12,-156 901.12,-156 901.12,-168 901.12,-168 901.12,-174 895.12,-180 889.12,-180"/>
<text text-anchor="middle" x="787" y="-158.12" font-family="sans" font-size="10.00">run_merge_gene_tpms_numbered_downsampled</text>
</g>
<!-- 23&#45;&gt;0 -->
<g id="edge13" class="edge">
<title>23&#45;&gt;0</title>
<path fill="none" stroke="grey" stroke-width="2" d="M806.14,-143.33C829.79,-122.58 872.19,-88.87 915,-72 1027.6,-27.64 1172.67,-19.83 1242.24,-18.82"/>
<polygon fill="grey" stroke="grey" stroke-width="2" points="1242.12,-22.33 1252.09,-18.73 1242.06,-15.33 1242.12,-22.33"/>
</g>
<!-- 23&#45;&gt;26 -->
<g id="edge60" class="edge">
<title>23&#45;&gt;26</title>
<path fill="none" stroke="grey" stroke-width="2" d="M902.04,-144.76C1008.14,-129.79 1160.33,-108.31 1236.23,-97.6"/>
<polygon fill="grey" stroke="grey" stroke-width="2" points="1236.64,-101.08 1246.06,-96.21 1235.67,-94.15 1236.64,-101.08"/>
</g>
<!-- 24&#45;&gt;23 -->
<g id="edge45" class="edge">
<title>24&#45;&gt;23</title>
<path fill="none" stroke="grey" stroke-width="2" d="M798.96,-215.34C797.44,-208.67 795.66,-200.89 793.95,-193.39"/>
<polygon fill="grey" stroke="grey" stroke-width="2" points="797.41,-192.82 791.77,-183.85 790.58,-194.38 797.41,-192.82"/>
</g>
<!-- 25&#45;&gt;0 -->
<g id="edge8" class="edge">
<title>25&#45;&gt;0</title>
<path fill="none" stroke="grey" stroke-width="2" d="M2267.27,-143.09C2215.12,-122.11 2123.76,-88.16 2042,-72 1771.79,-18.58 1438.19,-17.02 1323.75,-18.28"/>
<polygon fill="grey" stroke="grey" stroke-width="2" points="1323.88,-14.78 1313.93,-18.41 1323.97,-21.78 1323.88,-14.78"/>
</g>
<!-- 25&#45;&gt;26 -->
<g id="edge55" class="edge">
<title>25&#45;&gt;26</title>
<path fill="none" stroke="grey" stroke-width="2" d="M2233.17,-145.13C2230.42,-144.72 2227.69,-144.34 2225,-144 1883.38,-100.45 1467.51,-92.68 1329.77,-91.3"/>
<polygon fill="grey" stroke="grey" stroke-width="2" points="1330.01,-87.8 1319.98,-91.21 1329.95,-94.8 1330.01,-87.8"/>
</g>
<!-- 26&#45;&gt;0 -->
<g id="edge20" class="edge">
<title>26&#45;&gt;0</title>
<path fill="none" stroke="grey" stroke-width="2" d="M1283,-71.34C1283,-64.75 1283,-57.08 1283,-49.67"/>
<polygon fill="grey" stroke="grey" stroke-width="2" points="1286.5,-49.93 1283,-39.93 1279.5,-49.93 1286.5,-49.93"/>
</g>
</g>
</svg>
