<?xml version="1.0" encoding="UTF-8" standalone="no"?>
<!DOCTYPE svg PUBLIC "-//W3C//DTD SVG 1.1//EN"
 "http://www.w3.org/Graphics/SVG/1.1/DTD/svg11.dtd">
<!-- Generated by graphviz version 2.47.0 (0)
 -->
<!-- Title: snakemake_dag Pages: 1 -->
<svg width="217pt" height="260pt"
 viewBox="0.00 0.00 217.40 260.00" xmlns="http://www.w3.org/2000/svg" xmlns:xlink="http://www.w3.org/1999/xlink">
<g id="graph0" class="graph" transform="scale(1 1) rotate(0) translate(4 256)">
<title>snakemake_dag</title>
<polygon fill="white" stroke="transparent" points="-4,4 -4,-256 213.4,-256 213.4,4 -4,4"/>
<!-- 0 -->
<g id="node1" class="node">
<title>0</title>
<path fill="none" stroke="#56d87b" stroke-width="2" d="M69.4,-36C69.4,-36 39.4,-36 39.4,-36 33.4,-36 27.4,-30 27.4,-24 27.4,-24 27.4,-12 27.4,-12 27.4,-6 33.4,0 39.4,0 39.4,0 69.4,0 69.4,0 75.4,0 81.4,-6 81.4,-12 81.4,-12 81.4,-24 81.4,-24 81.4,-30 75.4,-36 69.4,-36"/>
<text text-anchor="middle" x="54.4" y="-15.5" font-family="sans" font-size="10.00">all</text>
</g>
<!-- 1 -->
<g id="node2" class="node">
<title>1</title>
<path fill="none" stroke="#78d856" stroke-width="2" d="M96.9,-252C96.9,-252 65.9,-252 65.9,-252 59.9,-252 53.9,-246 53.9,-240 53.9,-240 53.9,-228 53.9,-228 53.9,-222 59.9,-216 65.9,-216 65.9,-216 96.9,-216 96.9,-216 102.9,-216 108.9,-222 108.9,-228 108.9,-228 108.9,-240 108.9,-240 108.9,-246 102.9,-252 96.9,-252"/>
<text text-anchor="middle" x="81.4" y="-231.5" font-family="sans" font-size="10.00">trimming</text>
</g>
<!-- 1&#45;&gt;0 -->
<g id="edge3" class="edge">
<title>1&#45;&gt;0</title>
<path fill="none" stroke="grey" stroke-width="2" d="M53.76,-216.02C41.11,-206.87 27.05,-194.48 18.4,-180 1.64,-151.94 6.75,-140.51 3.4,-108 1.76,-92.08 -2.58,-86.84 3.4,-72 7.75,-61.21 15.46,-51.39 23.59,-43.21"/>
<polygon fill="grey" stroke="grey" stroke-width="2" points="26.19,-45.57 31.1,-36.18 21.4,-40.46 26.19,-45.57"/>
</g>
<!-- 2 -->
<g id="node3" class="node">
<title>2</title>
<path fill="none" stroke="#56d8c9" stroke-width="2" d="M69.4,-180C69.4,-180 39.4,-180 39.4,-180 33.4,-180 27.4,-174 27.4,-168 27.4,-168 27.4,-156 27.4,-156 27.4,-150 33.4,-144 39.4,-144 39.4,-144 69.4,-144 69.4,-144 75.4,-144 81.4,-150 81.4,-156 81.4,-156 81.4,-168 81.4,-168 81.4,-174 75.4,-180 69.4,-180"/>
<text text-anchor="middle" x="54.4" y="-159.5" font-family="sans" font-size="10.00">align</text>
</g>
<!-- 1&#45;&gt;2 -->
<g id="edge6" class="edge">
<title>1&#45;&gt;2</title>
<path fill="none" stroke="grey" stroke-width="2" d="M74.73,-215.7C71.69,-207.81 68.02,-198.3 64.64,-189.55"/>
<polygon fill="grey" stroke="grey" stroke-width="2" points="67.86,-188.17 61,-180.1 61.33,-190.69 67.86,-188.17"/>
</g>
<!-- 3 -->
<g id="node4" class="node">
<title>3</title>
<path fill="none" stroke="#56a2d8" stroke-width="2" d="M148.4,-108C148.4,-108 118.4,-108 118.4,-108 112.4,-108 106.4,-102 106.4,-96 106.4,-96 106.4,-84 106.4,-84 106.4,-78 112.4,-72 118.4,-72 118.4,-72 148.4,-72 148.4,-72 154.4,-72 160.4,-78 160.4,-84 160.4,-84 160.4,-96 160.4,-96 160.4,-102 154.4,-108 148.4,-108"/>
<text text-anchor="middle" x="133.4" y="-87.5" font-family="sans" font-size="10.00">salmon</text>
</g>
<!-- 1&#45;&gt;3 -->
<g id="edge7" class="edge">
<title>1&#45;&gt;3</title>
<path fill="none" stroke="grey" stroke-width="2" d="M87.67,-215.87C96.61,-191.46 113.1,-146.43 123.65,-117.64"/>
<polygon fill="grey" stroke="grey" stroke-width="2" points="126.95,-118.78 127.11,-108.19 120.38,-116.38 126.95,-118.78"/>
</g>
<!-- 5 -->
<g id="node6" class="node">
<title>5</title>
<path fill="none" stroke="#d85656" stroke-width="2" d="M197.4,-180C197.4,-180 167.4,-180 167.4,-180 161.4,-180 155.4,-174 155.4,-168 155.4,-168 155.4,-156 155.4,-156 155.4,-150 161.4,-144 167.4,-144 167.4,-144 197.4,-144 197.4,-144 203.4,-144 209.4,-150 209.4,-156 209.4,-156 209.4,-168 209.4,-168 209.4,-174 203.4,-180 197.4,-180"/>
<text text-anchor="middle" x="182.4" y="-159.5" font-family="sans" font-size="10.00">fastqc</text>
</g>
<!-- 1&#45;&gt;5 -->
<g id="edge9" class="edge">
<title>1&#45;&gt;5</title>
<path fill="none" stroke="grey" stroke-width="2" d="M106.11,-215.88C119.07,-206.89 135.13,-195.76 149.17,-186.03"/>
<polygon fill="grey" stroke="grey" stroke-width="2" points="151.37,-188.76 157.6,-180.19 147.39,-183.01 151.37,-188.76"/>
</g>
<!-- 2&#45;&gt;0 -->
<g id="edge4" class="edge">
<title>2&#45;&gt;0</title>
<path fill="none" stroke="grey" stroke-width="2" d="M35.36,-143.84C26.22,-134.3 16.23,-121.62 11.4,-108 6.05,-92.92 6.05,-87.08 11.4,-72 15.06,-61.68 21.69,-51.9 28.66,-43.61"/>
<polygon fill="grey" stroke="grey" stroke-width="2" points="31.27,-45.94 35.36,-36.16 26.07,-41.26 31.27,-45.94"/>
</g>
<!-- 4 -->
<g id="node5" class="node">
<title>4</title>
<path fill="none" stroke="#d8a456" stroke-width="2" d="M75.9,-108C75.9,-108 32.9,-108 32.9,-108 26.9,-108 20.9,-102 20.9,-96 20.9,-96 20.9,-84 20.9,-84 20.9,-78 26.9,-72 32.9,-72 32.9,-72 75.9,-72 75.9,-72 81.9,-72 87.9,-78 87.9,-84 87.9,-84 87.9,-96 87.9,-96 87.9,-102 81.9,-108 75.9,-108"/>
<text text-anchor="middle" x="54.4" y="-87.5" font-family="sans" font-size="10.00">majiq_build</text>
</g>
<!-- 2&#45;&gt;4 -->
<g id="edge8" class="edge">
<title>2&#45;&gt;4</title>
<path fill="none" stroke="grey" stroke-width="2" d="M54.4,-143.7C54.4,-135.98 54.4,-126.71 54.4,-118.11"/>
<polygon fill="grey" stroke="grey" stroke-width="2" points="57.9,-118.1 54.4,-108.1 50.9,-118.1 57.9,-118.1"/>
</g>
<!-- 3&#45;&gt;0 -->
<g id="edge5" class="edge">
<title>3&#45;&gt;0</title>
<path fill="none" stroke="grey" stroke-width="2" d="M113.87,-71.7C104.02,-62.97 91.91,-52.24 81.2,-42.75"/>
<polygon fill="grey" stroke="grey" stroke-width="2" points="83.51,-40.12 73.7,-36.1 78.87,-45.36 83.51,-40.12"/>
</g>
<!-- 4&#45;&gt;0 -->
<g id="edge2" class="edge">
<title>4&#45;&gt;0</title>
<path fill="none" stroke="grey" stroke-width="2" d="M54.4,-71.7C54.4,-63.98 54.4,-54.71 54.4,-46.11"/>
<polygon fill="grey" stroke="grey" stroke-width="2" points="57.9,-46.1 54.4,-36.1 50.9,-46.1 57.9,-46.1"/>
</g>
<!-- 5&#45;&gt;0 -->
<g id="edge1" class="edge">
<title>5&#45;&gt;0</title>
<path fill="none" stroke="grey" stroke-width="2" d="M184.44,-143.78C185.79,-124.4 185.02,-92.89 169.4,-72 150.69,-46.98 117.31,-33.4 91.31,-26.28"/>
<polygon fill="grey" stroke="grey" stroke-width="2" points="91.95,-22.83 81.4,-23.77 90.24,-29.61 91.95,-22.83"/>
</g>
</g>
</svg>
