<?xml version="1.0" encoding="UTF-8" standalone="no"?>
<!DOCTYPE svg PUBLIC "-//W3C//DTD SVG 1.1//EN"
 "http://www.w3.org/Graphics/SVG/1.1/DTD/svg11.dtd">
<!-- Generated by graphviz version 9.0.0 (0)
 -->
<!-- Title: snakemake_dag Pages: 1 -->
<svg width="1971pt" height="620pt"
 viewBox="0.00 0.00 1970.50 620.00" xmlns="http://www.w3.org/2000/svg" xmlns:xlink="http://www.w3.org/1999/xlink">
<g id="graph0" class="graph" transform="scale(1 1) rotate(0) translate(4 616)">
<title>snakemake_dag</title>
<polygon fill="white" stroke="none" points="-4,4 -4,-616 1966.5,-616 1966.5,4 -4,4"/>
<!-- 0 -->
<g id="node1" class="node">
<title>0</title>
<path fill="none" stroke="#56c9d8" stroke-width="2" d="M856,-36C856,-36 826,-36 826,-36 820,-36 814,-30 814,-24 814,-24 814,-12 814,-12 814,-6 820,0 826,0 826,0 856,0 856,0 862,0 868,-6 868,-12 868,-12 868,-24 868,-24 868,-30 862,-36 856,-36"/>
<text text-anchor="middle" x="841" y="-14.12" font-family="sans" font-size="10.00">all</text>
</g>
<!-- 1 -->
<g id="node2" class="node">
<title>1</title>
<path fill="none" stroke="#78d856" stroke-width="2" d="M180,-612C180,-612 150,-612 150,-612 144,-612 138,-606 138,-600 138,-600 138,-588 138,-588 138,-582 144,-576 150,-576 150,-576 180,-576 180,-576 186,-576 192,-582 192,-588 192,-588 192,-600 192,-600 192,-606 186,-612 180,-612"/>
<text text-anchor="middle" x="165" y="-590.12" font-family="sans" font-size="10.00">trimming</text>
</g>
<!-- 1&#45;&gt;0 -->
<g id="edge12" class="edge">
<title>1&#45;&gt;0</title>
<path fill="none" stroke="grey" stroke-width="2" d="M137.01,-583.59C89.93,-565.79 0,-522.43 0,-451 0,-451 0,-451 0,-161 0,-111.75 22.8,-95.63 66,-72 130.68,-36.62 650.23,-23.01 800.46,-19.8"/>
<polygon fill="grey" stroke="grey" stroke-width="2" points="800.07,-23.31 810,-19.6 799.93,-16.31 800.07,-23.31"/>
</g>
<!-- 2 -->
<g id="node3" class="node">
<title>2</title>
<path fill="none" stroke="#56d8d8" stroke-width="2" d="M70,-180C70,-180 40,-180 40,-180 34,-180 28,-174 28,-168 28,-168 28,-156 28,-156 28,-150 34,-144 40,-144 40,-144 70,-144 70,-144 76,-144 82,-150 82,-156 82,-156 82,-168 82,-168 82,-174 76,-180 70,-180"/>
<text text-anchor="middle" x="55" y="-158.12" font-family="sans" font-size="10.00">fastqc</text>
</g>
<!-- 1&#45;&gt;2 -->
<g id="edge19" class="edge">
<title>1&#45;&gt;2</title>
<path fill="none" stroke="grey" stroke-width="2" d="M140.81,-575.04C110.93,-550.59 64,-503.79 64,-451 64,-451 64,-451 64,-305 64,-266.58 60.68,-222.42 58.07,-193.69"/>
<polygon fill="grey" stroke="grey" stroke-width="2" points="61.57,-193.55 57.15,-183.92 54.6,-194.21 61.57,-193.55"/>
</g>
<!-- 5 -->
<g id="node6" class="node">
<title>5</title>
<path fill="none" stroke="#566bd8" stroke-width="2" d="M1422,-540C1422,-540 1392,-540 1392,-540 1386,-540 1380,-534 1380,-528 1380,-528 1380,-516 1380,-516 1380,-510 1386,-504 1392,-504 1392,-504 1422,-504 1422,-504 1428,-504 1434,-510 1434,-516 1434,-516 1434,-528 1434,-528 1434,-534 1428,-540 1422,-540"/>
<text text-anchor="middle" x="1407" y="-518.12" font-family="sans" font-size="10.00">align</text>
</g>
<!-- 1&#45;&gt;5 -->
<g id="edge21" class="edge">
<title>1&#45;&gt;5</title>
<path fill="none" stroke="grey" stroke-width="2" d="M192.76,-591.62C309.21,-585.82 769.69,-562.61 1148,-540 1225.22,-535.38 1315.33,-529.32 1366.33,-525.82"/>
<polygon fill="grey" stroke="grey" stroke-width="2" points="1366.27,-529.33 1376.01,-525.15 1365.79,-522.35 1366.27,-529.33"/>
</g>
<!-- 6 -->
<g id="node7" class="node">
<title>6</title>
<path fill="none" stroke="#56d87b" stroke-width="2" d="M180,-180C180,-180 150,-180 150,-180 144,-180 138,-174 138,-168 138,-168 138,-156 138,-156 138,-150 144,-144 150,-144 150,-144 180,-144 180,-144 186,-144 192,-150 192,-156 192,-156 192,-168 192,-168 192,-174 186,-180 180,-180"/>
<text text-anchor="middle" x="165" y="-158.12" font-family="sans" font-size="10.00">salmon</text>
</g>
<!-- 1&#45;&gt;6 -->
<g id="edge22" class="edge">
<title>1&#45;&gt;6</title>
<path fill="none" stroke="grey" stroke-width="2" d="M165,-575.07C165,-548.13 165,-495.62 165,-451 165,-451 165,-451 165,-305 165,-266.65 165,-222.48 165,-193.72"/>
<polygon fill="grey" stroke="grey" stroke-width="2" points="168.5,-193.96 165,-183.96 161.5,-193.96 168.5,-193.96"/>
</g>
<!-- 21 -->
<g id="node22" class="node">
<title>21</title>
<path fill="none" stroke="#59d856" stroke-width="2" d="M1098.12,-108C1098.12,-108 1055.88,-108 1055.88,-108 1049.88,-108 1043.88,-102 1043.88,-96 1043.88,-96 1043.88,-84 1043.88,-84 1043.88,-78 1049.88,-72 1055.88,-72 1055.88,-72 1098.12,-72 1098.12,-72 1104.12,-72 1110.12,-78 1110.12,-84 1110.12,-84 1110.12,-96 1110.12,-96 1110.12,-102 1104.12,-108 1098.12,-108"/>
<text text-anchor="middle" x="1077" y="-86.12" font-family="sans" font-size="10.00">run_multiqc</text>
</g>
<!-- 1&#45;&gt;21 -->
<g id="edge48" class="edge">
<title>1&#45;&gt;21</title>
<path fill="none" stroke="grey" stroke-width="2" d="M192.96,-591.93C351.83,-585.48 1134,-548.76 1134,-451 1134,-451 1134,-451 1134,-233 1134,-191.39 1112.66,-147.54 1096.1,-119.77"/>
<polygon fill="grey" stroke="grey" stroke-width="2" points="1099.2,-118.14 1090.96,-111.48 1093.25,-121.82 1099.2,-118.14"/>
</g>
<!-- 2&#45;&gt;0 -->
<g id="edge17" class="edge">
<title>2&#45;&gt;0</title>
<path fill="none" stroke="grey" stroke-width="2" d="M57.72,-143.19C61.94,-122.3 72.21,-88.45 96,-72 154.11,-31.81 653.25,-21.64 800.36,-19.5"/>
<polygon fill="grey" stroke="grey" stroke-width="2" points="800.11,-23.01 810.06,-19.37 800.01,-16.01 800.11,-23.01"/>
</g>
<!-- 2&#45;&gt;21 -->
<g id="edge53" class="edge">
<title>2&#45;&gt;21</title>
<path fill="none" stroke="grey" stroke-width="2" d="M82.9,-153.41C96.67,-149.97 113.6,-146.18 129,-144 472.54,-95.3 892.05,-90.85 1030.34,-90.81"/>
<polygon fill="grey" stroke="grey" stroke-width="2" points="1030.18,-94.31 1040.18,-90.82 1030.19,-87.31 1030.18,-94.31"/>
</g>
<!-- 3 -->
<g id="node4" class="node">
<title>3</title>
<path fill="none" stroke="#d88d56" stroke-width="2" d="M354,-180C354,-180 260,-180 260,-180 254,-180 248,-174 248,-168 248,-168 248,-156 248,-156 248,-150 254,-144 260,-144 260,-144 354,-144 354,-144 360,-144 366,-150 366,-156 366,-156 366,-168 366,-168 366,-174 360,-180 354,-180"/>
<text text-anchor="middle" x="307" y="-158.12" font-family="sans" font-size="10.00">fastqc_before_trimming</text>
</g>
<!-- 3&#45;&gt;0 -->
<g id="edge6" class="edge">
<title>3&#45;&gt;0</title>
<path fill="none" stroke="grey" stroke-width="2" d="M366.72,-143.58C430.32,-125.17 534.01,-95.61 624,-72 685.36,-55.9 756.9,-38.73 800.56,-28.44"/>
<polygon fill="grey" stroke="grey" stroke-width="2" points="801.3,-31.86 810.23,-26.17 799.69,-25.05 801.3,-31.86"/>
</g>
<!-- 3&#45;&gt;21 -->
<g id="edge42" class="edge">
<title>3&#45;&gt;21</title>
<path fill="none" stroke="grey" stroke-width="2" d="M366.96,-145.43C369.67,-144.91 372.36,-144.43 375,-144 619.64,-104.48 917.12,-94.31 1030.28,-91.8"/>
<polygon fill="grey" stroke="grey" stroke-width="2" points="1030.2,-95.3 1040.13,-91.59 1030.05,-88.3 1030.2,-95.3"/>
</g>
<!-- 4 -->
<g id="node5" class="node">
<title>4</title>
<path fill="none" stroke="#d85656" stroke-width="2" d="M1546.25,-180C1546.25,-180 1465.75,-180 1465.75,-180 1459.75,-180 1453.75,-174 1453.75,-168 1453.75,-168 1453.75,-156 1453.75,-156 1453.75,-150 1459.75,-144 1465.75,-144 1465.75,-144 1546.25,-144 1546.25,-144 1552.25,-144 1558.25,-150 1558.25,-156 1558.25,-156 1558.25,-168 1558.25,-168 1558.25,-174 1552.25,-180 1546.25,-180"/>
<text text-anchor="middle" x="1506" y="-158.12" font-family="sans" font-size="10.00">bamCoverage_CPM</text>
</g>
<!-- 4&#45;&gt;0 -->
<g id="edge1" class="edge">
<title>4&#45;&gt;0</title>
<path fill="none" stroke="grey" stroke-width="2" d="M1454.21,-143.08C1395.06,-123.2 1295.07,-91.38 1207,-72 1090.02,-46.26 949.16,-29.89 881.35,-22.9"/>
<polygon fill="grey" stroke="grey" stroke-width="2" points="882.11,-19.46 871.81,-21.93 881.4,-26.42 882.11,-19.46"/>
</g>
<!-- 4&#45;&gt;21 -->
<g id="edge38" class="edge">
<title>4&#45;&gt;21</title>
<path fill="none" stroke="grey" stroke-width="2" d="M1452.8,-146.78C1448.48,-145.78 1444.18,-144.84 1440,-144 1327.23,-121.31 1192.9,-104.26 1123.56,-96.18"/>
<polygon fill="grey" stroke="grey" stroke-width="2" points="1124.33,-92.74 1114,-95.08 1123.53,-99.7 1124.33,-92.74"/>
</g>
<!-- 5&#45;&gt;4 -->
<g id="edge20" class="edge">
<title>5&#45;&gt;4</title>
<path fill="none" stroke="grey" stroke-width="2" d="M1418.72,-503C1434.6,-476.83 1461,-426.21 1461,-379 1461,-379 1461,-379 1461,-305 1461,-264.45 1477.88,-220.3 1490.96,-192.18"/>
<polygon fill="grey" stroke="grey" stroke-width="2" points="1493.94,-194.06 1495.14,-183.53 1487.64,-191.01 1493.94,-194.06"/>
</g>
<!-- 7 -->
<g id="node8" class="node">
<title>7</title>
<path fill="none" stroke="#56d8c9" stroke-width="2" d="M1633.62,-180C1633.62,-180 1588.38,-180 1588.38,-180 1582.38,-180 1576.38,-174 1576.38,-168 1576.38,-168 1576.38,-156 1576.38,-156 1576.38,-150 1582.38,-144 1588.38,-144 1588.38,-144 1633.62,-144 1633.62,-144 1639.62,-144 1645.62,-150 1645.62,-156 1645.62,-156 1645.62,-168 1645.62,-168 1645.62,-174 1639.62,-180 1633.62,-180"/>
<text text-anchor="middle" x="1611" y="-158.12" font-family="sans" font-size="10.00">run_regtools</text>
</g>
<!-- 5&#45;&gt;7 -->
<g id="edge23" class="edge">
<title>5&#45;&gt;7</title>
<path fill="none" stroke="grey" stroke-width="2" d="M1434.87,-511.04C1480.71,-492.67 1567,-448.82 1567,-379 1567,-379 1567,-379 1567,-305 1567,-264.71 1583.36,-220.76 1596.13,-192.59"/>
<polygon fill="grey" stroke="grey" stroke-width="2" points="1599.28,-194.11 1600.38,-183.57 1592.95,-191.12 1599.28,-194.11"/>
</g>
<!-- 8 -->
<g id="node9" class="node">
<title>8</title>
<path fill="none" stroke="#567bd8" stroke-width="2" d="M1733,-252C1733,-252 1657,-252 1657,-252 1651,-252 1645,-246 1645,-240 1645,-240 1645,-228 1645,-228 1645,-222 1651,-216 1657,-216 1657,-216 1733,-216 1733,-216 1739,-216 1745,-222 1745,-228 1745,-228 1745,-240 1745,-240 1745,-246 1739,-252 1733,-252"/>
<text text-anchor="middle" x="1695" y="-230.12" font-family="sans" font-size="10.00">run_TPMCalculator</text>
</g>
<!-- 5&#45;&gt;8 -->
<g id="edge24" class="edge">
<title>5&#45;&gt;8</title>
<path fill="none" stroke="grey" stroke-width="2" d="M1434.96,-519.27C1472.32,-515.58 1538.7,-504.05 1581,-468 1644.76,-413.67 1676.05,-315.28 1688.39,-265.54"/>
<polygon fill="grey" stroke="grey" stroke-width="2" points="1691.8,-266.36 1690.69,-255.83 1684.98,-264.75 1691.8,-266.36"/>
</g>
<!-- 9 -->
<g id="node10" class="node">
<title>9</title>
<path fill="none" stroke="#56d8b1" stroke-width="2" d="M1950.5,-180C1950.5,-180 1847.5,-180 1847.5,-180 1841.5,-180 1835.5,-174 1835.5,-168 1835.5,-168 1835.5,-156 1835.5,-156 1835.5,-150 1841.5,-144 1847.5,-144 1847.5,-144 1950.5,-144 1950.5,-144 1956.5,-144 1962.5,-150 1962.5,-156 1962.5,-156 1962.5,-168 1962.5,-168 1962.5,-174 1956.5,-180 1950.5,-180"/>
<text text-anchor="middle" x="1899" y="-158.12" font-family="sans" font-size="10.00">run_bam_selected_genes</text>
</g>
<!-- 5&#45;&gt;9 -->
<g id="edge25" class="edge">
<title>5&#45;&gt;9</title>
<path fill="none" stroke="grey" stroke-width="2" d="M1434.92,-518.16C1531.86,-507.52 1848,-466.17 1848,-379 1848,-379 1848,-379 1848,-305 1848,-263.93 1867.13,-219.9 1881.96,-191.94"/>
<polygon fill="grey" stroke="grey" stroke-width="2" points="1884.96,-193.75 1886.72,-183.3 1878.83,-190.37 1884.96,-193.75"/>
</g>
<!-- 10 -->
<g id="node11" class="node">
<title>10</title>
<path fill="none" stroke="#568ad8" stroke-width="2" d="M925.62,-468C925.62,-468 808.38,-468 808.38,-468 802.38,-468 796.38,-462 796.38,-456 796.38,-456 796.38,-444 796.38,-444 796.38,-438 802.38,-432 808.38,-432 808.38,-432 925.62,-432 925.62,-432 931.62,-432 937.62,-438 937.62,-444 937.62,-444 937.62,-456 937.62,-456 937.62,-462 931.62,-468 925.62,-468"/>
<text text-anchor="middle" x="867" y="-446.12" font-family="sans" font-size="10.00">run_bam_just_numbered_chr</text>
</g>
<!-- 5&#45;&gt;10 -->
<g id="edge26" class="edge">
<title>5&#45;&gt;10</title>
<path fill="none" stroke="grey" stroke-width="2" d="M1379.1,-517.38C1300.57,-507.2 1075.28,-478 951.3,-461.93"/>
<polygon fill="grey" stroke="grey" stroke-width="2" points="951.9,-458.48 941.53,-460.66 951,-465.42 951.9,-458.48"/>
</g>
<!-- 13 -->
<g id="node14" class="node">
<title>13</title>
<path fill="none" stroke="#56d88a" stroke-width="2" d="M1230.25,-180C1230.25,-180 1173.75,-180 1173.75,-180 1167.75,-180 1161.75,-174 1161.75,-168 1161.75,-168 1161.75,-156 1161.75,-156 1161.75,-150 1167.75,-144 1173.75,-144 1173.75,-144 1230.25,-144 1230.25,-144 1236.25,-144 1242.25,-150 1242.25,-156 1242.25,-156 1242.25,-168 1242.25,-168 1242.25,-174 1236.25,-180 1230.25,-180"/>
<text text-anchor="middle" x="1202" y="-158.12" font-family="sans" font-size="10.00">run_bam_stats</text>
</g>
<!-- 5&#45;&gt;13 -->
<g id="edge30" class="edge">
<title>5&#45;&gt;13</title>
<path fill="none" stroke="grey" stroke-width="2" d="M1379.03,-507.43C1339.49,-486.06 1272,-440.57 1272,-379 1272,-379 1272,-379 1272,-305 1272,-261.81 1245.62,-218.14 1225.25,-190.85"/>
<polygon fill="grey" stroke="grey" stroke-width="2" points="1228.28,-189.04 1219.39,-183.28 1222.75,-193.33 1228.28,-189.04"/>
</g>
<!-- 16 -->
<g id="node17" class="node">
<title>16</title>
<path fill="none" stroke="#68d856" stroke-width="2" d="M1385.75,-180C1385.75,-180 1272.25,-180 1272.25,-180 1266.25,-180 1260.25,-174 1260.25,-168 1260.25,-168 1260.25,-156 1260.25,-156 1260.25,-150 1266.25,-144 1272.25,-144 1272.25,-144 1385.75,-144 1385.75,-144 1391.75,-144 1397.75,-150 1397.75,-156 1397.75,-156 1397.75,-168 1397.75,-168 1397.75,-174 1391.75,-180 1385.75,-180"/>
<text text-anchor="middle" x="1329" y="-158.12" font-family="sans" font-size="10.00">run_merge_junctions_STAR</text>
</g>
<!-- 5&#45;&gt;16 -->
<g id="edge33" class="edge">
<title>5&#45;&gt;16</title>
<path fill="none" stroke="grey" stroke-width="2" d="M1395.76,-503.41C1380.2,-477.33 1354,-426.37 1354,-379 1354,-379 1354,-379 1354,-305 1354,-265.89 1344.69,-221.62 1337.43,-193.06"/>
<polygon fill="grey" stroke="grey" stroke-width="2" points="1340.89,-192.46 1334.95,-183.68 1334.12,-194.25 1340.89,-192.46"/>
</g>
<!-- 6&#45;&gt;0 -->
<g id="edge10" class="edge">
<title>6&#45;&gt;0</title>
<path fill="none" stroke="grey" stroke-width="2" d="M167.75,-143.23C172.01,-122.4 182.31,-88.6 206,-72 254.56,-37.97 667.22,-23.77 800.02,-20.05"/>
<polygon fill="grey" stroke="grey" stroke-width="2" points="800.11,-23.55 810.01,-19.77 799.92,-16.55 800.11,-23.55"/>
</g>
<!-- 6&#45;&gt;21 -->
<g id="edge46" class="edge">
<title>6&#45;&gt;21</title>
<path fill="none" stroke="grey" stroke-width="2" d="M192.91,-153.46C206.68,-150.03 223.61,-146.24 239,-144 538.25,-100.46 902.77,-92.68 1030.29,-91.3"/>
<polygon fill="grey" stroke="grey" stroke-width="2" points="1030.28,-94.8 1040.24,-91.2 1030.21,-87.8 1030.28,-94.8"/>
</g>
<!-- 7&#45;&gt;0 -->
<g id="edge15" class="edge">
<title>7&#45;&gt;0</title>
<path fill="none" stroke="grey" stroke-width="2" d="M1575.59,-146.91C1572.7,-145.88 1569.81,-144.9 1567,-144 1444.64,-104.78 1413.3,-95.63 1287,-72 1138.83,-44.27 960.11,-28.2 881.47,-21.99"/>
<polygon fill="grey" stroke="grey" stroke-width="2" points="882.12,-18.53 871.88,-21.25 881.57,-25.51 882.12,-18.53"/>
</g>
<!-- 7&#45;&gt;21 -->
<g id="edge51" class="edge">
<title>7&#45;&gt;21</title>
<path fill="none" stroke="grey" stroke-width="2" d="M1575.71,-146.46C1572.79,-145.53 1569.86,-144.7 1567,-144 1407.6,-105.29 1212.16,-94.84 1124.04,-92.03"/>
<polygon fill="grey" stroke="grey" stroke-width="2" points="1124.21,-88.53 1114.11,-91.73 1124.01,-95.53 1124.21,-88.53"/>
</g>
<!-- 8&#45;&gt;0 -->
<g id="edge8" class="edge">
<title>8&#45;&gt;0</title>
<path fill="none" stroke="grey" stroke-width="2" d="M1745.62,-216.09C1762.1,-207.9 1778.57,-196.23 1788,-180 1796.04,-166.17 1797.99,-156.5 1788,-144 1730.34,-71.82 1055.56,-30.59 881.67,-21.12"/>
<polygon fill="grey" stroke="grey" stroke-width="2" points="882.09,-17.63 871.92,-20.59 881.71,-24.62 882.09,-17.63"/>
</g>
<!-- 17 -->
<g id="node18" class="node">
<title>17</title>
<path fill="none" stroke="#d8a456" stroke-width="2" d="M1766.5,-180C1766.5,-180 1675.5,-180 1675.5,-180 1669.5,-180 1663.5,-174 1663.5,-168 1663.5,-168 1663.5,-156 1663.5,-156 1663.5,-150 1669.5,-144 1675.5,-144 1675.5,-144 1766.5,-144 1766.5,-144 1772.5,-144 1778.5,-150 1778.5,-156 1778.5,-156 1778.5,-168 1778.5,-168 1778.5,-174 1772.5,-180 1766.5,-180"/>
<text text-anchor="middle" x="1721" y="-158.12" font-family="sans" font-size="10.00">run_merge_gene_tpms</text>
</g>
<!-- 8&#45;&gt;17 -->
<g id="edge34" class="edge">
<title>8&#45;&gt;17</title>
<path fill="none" stroke="grey" stroke-width="2" d="M1701.56,-215.34C1704.07,-208.59 1707,-200.69 1709.82,-193.11"/>
<polygon fill="grey" stroke="grey" stroke-width="2" points="1713.1,-194.33 1713.3,-183.74 1706.53,-191.9 1713.1,-194.33"/>
</g>
<!-- 8&#45;&gt;21 -->
<g id="edge44" class="edge">
<title>8&#45;&gt;21</title>
<path fill="none" stroke="grey" stroke-width="2" d="M1644.37,-230.33C1591.84,-225.77 1508.63,-213.42 1445,-180 1424.4,-169.18 1427.86,-154.3 1407,-144 1358.07,-119.83 1202.86,-102.56 1123.98,-95.1"/>
<polygon fill="grey" stroke="grey" stroke-width="2" points="1124.39,-91.63 1114.11,-94.19 1123.74,-98.6 1124.39,-91.63"/>
</g>
<!-- 9&#45;&gt;0 -->
<g id="edge14" class="edge">
<title>9&#45;&gt;0</title>
<path fill="none" stroke="grey" stroke-width="2" d="M1889.36,-143.16C1876.78,-121.91 1852.6,-87.36 1821,-72 1735.64,-30.49 1056.38,-21.09 881.79,-19.35"/>
<polygon fill="grey" stroke="grey" stroke-width="2" points="882.03,-15.85 872,-19.25 881.96,-22.85 882.03,-15.85"/>
</g>
<!-- 9&#45;&gt;21 -->
<g id="edge50" class="edge">
<title>9&#45;&gt;21</title>
<path fill="none" stroke="grey" stroke-width="2" d="M1834.55,-150.26C1819.32,-147.97 1803.11,-145.72 1788,-144 1538.34,-115.62 1237.55,-98.92 1123.71,-93.23"/>
<polygon fill="grey" stroke="grey" stroke-width="2" points="1123.95,-89.73 1113.79,-92.73 1123.6,-96.72 1123.95,-89.73"/>
</g>
<!-- 10&#45;&gt;0 -->
<g id="edge9" class="edge">
<title>10&#45;&gt;0</title>
<path fill="none" stroke="grey" stroke-width="2" d="M795.44,-443.08C606.74,-426.51 110,-376.32 110,-307 110,-307 110,-307 110,-161 110,-112.02 132.24,-95.9 175,-72 229.51,-41.53 663.61,-24.82 800.09,-20.28"/>
<polygon fill="grey" stroke="grey" stroke-width="2" points="800.16,-23.78 810.04,-19.95 799.93,-16.78 800.16,-23.78"/>
</g>
<!-- 11 -->
<g id="node12" class="node">
<title>11</title>
<path fill="none" stroke="#d6d856" stroke-width="2" d="M740.75,-324C740.75,-324 651.25,-324 651.25,-324 645.25,-324 639.25,-318 639.25,-312 639.25,-312 639.25,-300 639.25,-300 639.25,-294 645.25,-288 651.25,-288 651.25,-288 740.75,-288 740.75,-288 746.75,-288 752.75,-294 752.75,-300 752.75,-300 752.75,-312 752.75,-312 752.75,-318 746.75,-324 740.75,-324"/>
<text text-anchor="middle" x="696" y="-302.12" font-family="sans" font-size="10.00">run_downsample_bam</text>
</g>
<!-- 10&#45;&gt;11 -->
<g id="edge28" class="edge">
<title>10&#45;&gt;11</title>
<path fill="none" stroke="grey" stroke-width="2" d="M852.74,-431.28C836.94,-412.29 810.08,-381.93 783,-360 770.09,-349.55 754.95,-339.63 740.95,-331.27"/>
<polygon fill="grey" stroke="grey" stroke-width="2" points="743.05,-328.44 732.64,-326.43 739.53,-334.49 743.05,-328.44"/>
</g>
<!-- 12 -->
<g id="node13" class="node">
<title>12</title>
<path fill="none" stroke="#d87d56" stroke-width="2" d="M761.75,-396C761.75,-396 648.25,-396 648.25,-396 642.25,-396 636.25,-390 636.25,-384 636.25,-384 636.25,-372 636.25,-372 636.25,-366 642.25,-360 648.25,-360 648.25,-360 761.75,-360 761.75,-360 767.75,-360 773.75,-366 773.75,-372 773.75,-372 773.75,-384 773.75,-384 773.75,-390 767.75,-396 761.75,-396"/>
<text text-anchor="middle" x="705" y="-374.12" font-family="sans" font-size="10.00">run_downsample_bam_prep</text>
</g>
<!-- 10&#45;&gt;12 -->
<g id="edge29" class="edge">
<title>10&#45;&gt;12</title>
<path fill="none" stroke="grey" stroke-width="2" d="M825.7,-431.15C805.22,-422.3 780.23,-411.51 758.31,-402.04"/>
<polygon fill="grey" stroke="grey" stroke-width="2" points="759.85,-398.89 749.28,-398.13 757.07,-405.31 759.85,-398.89"/>
</g>
<!-- 14 -->
<g id="node15" class="node">
<title>14</title>
<path fill="none" stroke="#d86656" stroke-width="2" d="M971.38,-252C971.38,-252 828.62,-252 828.62,-252 822.62,-252 816.62,-246 816.62,-240 816.62,-240 816.62,-228 816.62,-228 816.62,-222 822.62,-216 828.62,-216 828.62,-216 971.38,-216 971.38,-216 977.38,-216 983.38,-222 983.38,-228 983.38,-228 983.38,-240 983.38,-240 983.38,-246 977.38,-252 971.38,-252"/>
<text text-anchor="middle" x="900" y="-230.12" font-family="sans" font-size="10.00">run_TPMCalculator_numbered_chr</text>
</g>
<!-- 10&#45;&gt;14 -->
<g id="edge31" class="edge">
<title>10&#45;&gt;14</title>
<path fill="none" stroke="grey" stroke-width="2" d="M869.76,-431.12C875.39,-394.62 888.26,-311.13 895.26,-265.74"/>
<polygon fill="grey" stroke="grey" stroke-width="2" points="898.7,-266.39 896.77,-255.97 891.78,-265.32 898.7,-266.39"/>
</g>
<!-- 10&#45;&gt;21 -->
<g id="edge45" class="edge">
<title>10&#45;&gt;21</title>
<path fill="none" stroke="grey" stroke-width="2" d="M938.52,-435.89C1005.71,-418.95 1096,-382.2 1096,-307 1096,-307 1096,-307 1096,-233 1096,-194.31 1088.99,-150.21 1083.48,-121.56"/>
<polygon fill="grey" stroke="grey" stroke-width="2" points="1086.92,-120.92 1081.53,-111.8 1080.06,-122.29 1086.92,-120.92"/>
</g>
<!-- 11&#45;&gt;0 -->
<g id="edge2" class="edge">
<title>11&#45;&gt;0</title>
<path fill="none" stroke="grey" stroke-width="2" d="M638.32,-304.81C493.78,-302.31 134.86,-282.37 239,-144 307.14,-53.47 676.25,-27.13 800.3,-20.77"/>
<polygon fill="grey" stroke="grey" stroke-width="2" points="800.35,-24.27 810.17,-20.29 800.01,-17.28 800.35,-24.27"/>
</g>
<!-- 15 -->
<g id="node16" class="node">
<title>15</title>
<path fill="none" stroke="#56d86b" stroke-width="2" d="M742,-180C742,-180 642,-180 642,-180 636,-180 630,-174 630,-168 630,-168 630,-156 630,-156 630,-150 636,-144 642,-144 642,-144 742,-144 742,-144 748,-144 754,-150 754,-156 754,-156 754,-168 754,-168 754,-174 748,-180 742,-180"/>
<text text-anchor="middle" x="692" y="-158.12" font-family="sans" font-size="10.00">run_htseq_downsampled</text>
</g>
<!-- 11&#45;&gt;15 -->
<g id="edge32" class="edge">
<title>11&#45;&gt;15</title>
<path fill="none" stroke="grey" stroke-width="2" d="M695.49,-287.02C694.83,-263.54 693.66,-222.11 692.86,-193.64"/>
<polygon fill="grey" stroke="grey" stroke-width="2" points="696.37,-193.76 692.59,-183.86 689.37,-193.96 696.37,-193.76"/>
</g>
<!-- 20 -->
<g id="node21" class="node">
<title>20</title>
<path fill="none" stroke="#c6d856" stroke-width="2" d="M610.62,-252C610.62,-252 469.38,-252 469.38,-252 463.38,-252 457.38,-246 457.38,-240 457.38,-240 457.38,-228 457.38,-228 457.38,-222 463.38,-216 469.38,-216 469.38,-216 610.62,-216 610.62,-216 616.62,-216 622.62,-222 622.62,-228 622.62,-228 622.62,-240 622.62,-240 622.62,-246 616.62,-252 610.62,-252"/>
<text text-anchor="middle" x="540" y="-230.12" font-family="sans" font-size="10.00">run_TPMCalculator_downsampled</text>
</g>
<!-- 11&#45;&gt;20 -->
<g id="edge37" class="edge">
<title>11&#45;&gt;20</title>
<path fill="none" stroke="grey" stroke-width="2" d="M656.23,-287.15C636.6,-278.34 612.66,-267.61 591.63,-258.17"/>
<polygon fill="grey" stroke="grey" stroke-width="2" points="593.29,-255.07 582.73,-254.17 590.42,-261.46 593.29,-255.07"/>
</g>
<!-- 11&#45;&gt;21 -->
<g id="edge39" class="edge">
<title>11&#45;&gt;21</title>
<path fill="none" stroke="grey" stroke-width="2" d="M753.66,-300.47C828.64,-293.62 954.48,-278.51 992,-252 1036.49,-220.57 1059.6,-158.49 1069.95,-121.28"/>
<polygon fill="grey" stroke="grey" stroke-width="2" points="1073.31,-122.28 1072.44,-111.72 1066.53,-120.52 1073.31,-122.28"/>
</g>
<!-- 12&#45;&gt;11 -->
<g id="edge27" class="edge">
<title>12&#45;&gt;11</title>
<path fill="none" stroke="grey" stroke-width="2" d="M702.73,-359.34C701.88,-352.75 700.9,-345.08 699.94,-337.67"/>
<polygon fill="grey" stroke="grey" stroke-width="2" points="703.43,-337.38 698.69,-327.9 696.49,-338.27 703.43,-337.38"/>
</g>
<!-- 13&#45;&gt;0 -->
<g id="edge11" class="edge">
<title>13&#45;&gt;0</title>
<path fill="none" stroke="grey" stroke-width="2" d="M1190.59,-143.13C1176.42,-122.51 1150.26,-89.25 1119,-72 1042.7,-29.89 938.67,-20.69 881.97,-19.01"/>
<polygon fill="grey" stroke="grey" stroke-width="2" points="882.05,-15.51 871.98,-18.8 881.9,-22.51 882.05,-15.51"/>
</g>
<!-- 13&#45;&gt;21 -->
<g id="edge47" class="edge">
<title>13&#45;&gt;21</title>
<path fill="none" stroke="grey" stroke-width="2" d="M1170.13,-143.15C1154.85,-134.6 1136.33,-124.22 1119.84,-114.99"/>
<polygon fill="grey" stroke="grey" stroke-width="2" points="1121.88,-112.12 1111.45,-110.29 1118.46,-118.23 1121.88,-112.12"/>
</g>
<!-- 14&#45;&gt;0 -->
<g id="edge3" class="edge">
<title>14&#45;&gt;0</title>
<path fill="none" stroke="grey" stroke-width="2" d="M842.55,-215.08C826.27,-207.04 810.42,-195.72 801,-180 775.98,-138.23 801.45,-81.41 821.64,-47.64"/>
<polygon fill="grey" stroke="grey" stroke-width="2" points="824.53,-49.62 826.86,-39.28 818.59,-45.91 824.53,-49.62"/>
</g>
<!-- 18 -->
<g id="node19" class="node">
<title>18</title>
<path fill="none" stroke="#d8b456" stroke-width="2" d="M979.88,-180C979.88,-180 822.12,-180 822.12,-180 816.12,-180 810.12,-174 810.12,-168 810.12,-168 810.12,-156 810.12,-156 810.12,-150 816.12,-144 822.12,-144 822.12,-144 979.88,-144 979.88,-144 985.88,-144 991.88,-150 991.88,-156 991.88,-156 991.88,-168 991.88,-168 991.88,-174 985.88,-180 979.88,-180"/>
<text text-anchor="middle" x="901" y="-158.12" font-family="sans" font-size="10.00">run_merge_gene_tpms_numbered_chr</text>
</g>
<!-- 14&#45;&gt;18 -->
<g id="edge35" class="edge">
<title>14&#45;&gt;18</title>
<path fill="none" stroke="grey" stroke-width="2" d="M900.25,-215.34C900.35,-208.75 900.46,-201.08 900.56,-193.67"/>
<polygon fill="grey" stroke="grey" stroke-width="2" points="904.06,-193.98 900.7,-183.93 897.06,-193.88 904.06,-193.98"/>
</g>
<!-- 14&#45;&gt;21 -->
<g id="edge40" class="edge">
<title>14&#45;&gt;21</title>
<path fill="none" stroke="grey" stroke-width="2" d="M942.47,-215.17C961.4,-206.13 983.36,-194.08 1001,-180 1022.9,-162.52 1043.27,-138.04 1057.39,-119.18"/>
<polygon fill="grey" stroke="grey" stroke-width="2" points="1060.1,-121.4 1063.17,-111.26 1054.44,-117.28 1060.1,-121.4"/>
</g>
<!-- 15&#45;&gt;0 -->
<g id="edge7" class="edge">
<title>15&#45;&gt;0</title>
<path fill="none" stroke="grey" stroke-width="2" d="M705.17,-143.2C719.52,-124.41 743.68,-94.48 768,-72 778.66,-62.15 791.16,-52.49 802.78,-44.17"/>
<polygon fill="grey" stroke="grey" stroke-width="2" points="804.45,-47.27 810.64,-38.68 800.44,-41.54 804.45,-47.27"/>
</g>
<!-- 15&#45;&gt;21 -->
<g id="edge43" class="edge">
<title>15&#45;&gt;21</title>
<path fill="none" stroke="grey" stroke-width="2" d="M754.71,-149.6C831.98,-135.55 961.47,-112.01 1030.44,-99.46"/>
<polygon fill="grey" stroke="grey" stroke-width="2" points="1030.8,-102.96 1040.02,-97.72 1029.55,-96.07 1030.8,-102.96"/>
</g>
<!-- 16&#45;&gt;0 -->
<g id="edge16" class="edge">
<title>16&#45;&gt;0</title>
<path fill="none" stroke="grey" stroke-width="2" d="M1300.46,-143.05C1266.75,-122.68 1208.37,-89.96 1154,-72 1059.37,-40.73 942.26,-27.19 881.64,-21.94"/>
<polygon fill="grey" stroke="grey" stroke-width="2" points="882.16,-18.47 871.91,-21.13 881.58,-25.45 882.16,-18.47"/>
</g>
<!-- 16&#45;&gt;21 -->
<g id="edge52" class="edge">
<title>16&#45;&gt;21</title>
<path fill="none" stroke="grey" stroke-width="2" d="M1264.43,-143.06C1220.31,-130.81 1162.89,-114.86 1123.29,-103.86"/>
<polygon fill="grey" stroke="grey" stroke-width="2" points="1124.34,-100.52 1113.76,-101.21 1122.46,-107.26 1124.34,-100.52"/>
</g>
<!-- 17&#45;&gt;0 -->
<g id="edge13" class="edge">
<title>17&#45;&gt;0</title>
<path fill="none" stroke="grey" stroke-width="2" d="M1663.86,-143.08C1596.8,-122.73 1481.91,-90.04 1381,-72 1196.22,-38.96 971.91,-25.24 881.58,-20.79"/>
<polygon fill="grey" stroke="grey" stroke-width="2" points="881.93,-17.3 871.77,-20.32 881.59,-24.29 881.93,-17.3"/>
</g>
<!-- 17&#45;&gt;21 -->
<g id="edge49" class="edge">
<title>17&#45;&gt;21</title>
<path fill="none" stroke="grey" stroke-width="2" d="M1662.81,-145.47C1660.18,-144.94 1657.56,-144.44 1655,-144 1459.42,-110.07 1222.6,-96.98 1123.81,-92.74"/>
<polygon fill="grey" stroke="grey" stroke-width="2" points="1123.96,-89.25 1113.83,-92.33 1123.67,-96.24 1123.96,-89.25"/>
</g>
<!-- 18&#45;&gt;0 -->
<g id="edge18" class="edge">
<title>18&#45;&gt;0</title>
<path fill="none" stroke="grey" stroke-width="2" d="M893.4,-143.02C883.35,-119.22 865.5,-76.97 853.46,-48.48"/>
<polygon fill="grey" stroke="grey" stroke-width="2" points="856.83,-47.48 849.72,-39.63 850.38,-50.2 856.83,-47.48"/>
</g>
<!-- 18&#45;&gt;21 -->
<g id="edge54" class="edge">
<title>18&#45;&gt;21</title>
<path fill="none" stroke="grey" stroke-width="2" d="M945.87,-143.15C971.98,-132.77 1004.82,-119.71 1031.11,-109.25"/>
<polygon fill="grey" stroke="grey" stroke-width="2" points="1032.24,-112.57 1040.24,-105.62 1029.65,-106.06 1032.24,-112.57"/>
</g>
<!-- 19 -->
<g id="node20" class="node">
<title>19</title>
<path fill="none" stroke="#56b1d8" stroke-width="2" d="M600.12,-180C600.12,-180 395.88,-180 395.88,-180 389.88,-180 383.88,-174 383.88,-168 383.88,-168 383.88,-156 383.88,-156 383.88,-150 389.88,-144 395.88,-144 395.88,-144 600.12,-144 600.12,-144 606.12,-144 612.12,-150 612.12,-156 612.12,-156 612.12,-168 612.12,-168 612.12,-174 606.12,-180 600.12,-180"/>
<text text-anchor="middle" x="498" y="-158.12" font-family="sans" font-size="10.00">run_merge_gene_tpms_numbered_downsampled</text>
</g>
<!-- 19&#45;&gt;0 -->
<g id="edge4" class="edge">
<title>19&#45;&gt;0</title>
<path fill="none" stroke="grey" stroke-width="2" d="M541.44,-143.02C608.67,-115.18 736.91,-62.09 801.6,-35.31"/>
<polygon fill="grey" stroke="grey" stroke-width="2" points="802.58,-38.69 810.49,-31.63 799.91,-32.22 802.58,-38.69"/>
</g>
<!-- 19&#45;&gt;21 -->
<g id="edge41" class="edge">
<title>19&#45;&gt;21</title>
<path fill="none" stroke="grey" stroke-width="2" d="M612.89,-145.04C615.62,-144.69 618.33,-144.34 621,-144 770.22,-125.02 947.28,-105.22 1030.01,-96.12"/>
<polygon fill="grey" stroke="grey" stroke-width="2" points="1030.37,-99.6 1039.92,-95.03 1029.6,-92.65 1030.37,-99.6"/>
</g>
<!-- 20&#45;&gt;19 -->
<g id="edge36" class="edge">
<title>20&#45;&gt;19</title>
<path fill="none" stroke="grey" stroke-width="2" d="M529.4,-215.34C525.16,-208.26 520.15,-199.92 515.4,-192"/>
<polygon fill="grey" stroke="grey" stroke-width="2" points="518.44,-190.27 510.3,-183.5 512.44,-193.87 518.44,-190.27"/>
</g>
<!-- 21&#45;&gt;0 -->
<g id="edge5" class="edge">
<title>21&#45;&gt;0</title>
<path fill="none" stroke="grey" stroke-width="2" d="M1042.94,-78.9C1000.09,-66.19 926.63,-44.4 881.12,-30.9"/>
<polygon fill="grey" stroke="grey" stroke-width="2" points="882.27,-27.59 871.69,-28.1 880.28,-34.3 882.27,-27.59"/>
</g>
</g>
</svg>
