<?xml version="1.0" encoding="UTF-8" standalone="no"?>
<!DOCTYPE svg PUBLIC "-//W3C//DTD SVG 1.1//EN"
 "http://www.w3.org/Graphics/SVG/1.1/DTD/svg11.dtd">
<!-- Generated by graphviz version 3.0.0 (20220226.1711)
 -->
<!-- Title: snakemake_dag Pages: 1 -->
<svg width="453pt" height="260pt"
 viewBox="0.00 0.00 453.01 260.00" xmlns="http://www.w3.org/2000/svg" xmlns:xlink="http://www.w3.org/1999/xlink">
<g id="graph0" class="graph" transform="scale(1 1) rotate(0) translate(4 256)">
<title>snakemake_dag</title>
<polygon fill="white" stroke="transparent" points="-4,4 -4,-256 449.01,-256 449.01,4 -4,4"/>
<!-- 0 -->
<g id="node1" class="node">
<title>0</title>
<path fill="none" stroke="#d88556" stroke-width="2" d="M203.24,-36C203.24,-36 173.24,-36 173.24,-36 167.24,-36 161.24,-30 161.24,-24 161.24,-24 161.24,-12 161.24,-12 161.24,-6 167.24,0 173.24,0 173.24,0 203.24,0 203.24,0 209.24,0 215.24,-6 215.24,-12 215.24,-12 215.24,-24 215.24,-24 215.24,-30 209.24,-36 203.24,-36"/>
<text text-anchor="middle" x="188.24" y="-15.5" font-family="sans" font-size="10.00">all</text>
</g>
<!-- 1 -->
<g id="node2" class="node">
<title>1</title>
<path fill="none" stroke="#56d86b" stroke-width="2" d="M120.24,-252C120.24,-252 90.24,-252 90.24,-252 84.24,-252 78.24,-246 78.24,-240 78.24,-240 78.24,-228 78.24,-228 78.24,-222 84.24,-216 90.24,-216 90.24,-216 120.24,-216 120.24,-216 126.24,-216 132.24,-222 132.24,-228 132.24,-228 132.24,-240 132.24,-240 132.24,-246 126.24,-252 120.24,-252"/>
<text text-anchor="middle" x="105.24" y="-231.5" font-family="sans" font-size="10.00">trimming</text>
</g>
<!-- 1&#45;&gt;0 -->
<g id="edge5" class="edge">
<title>1&#45;&gt;0</title>
<path fill="none" stroke="grey" stroke-width="2" d="M77.97,-219.04C62.69,-209.89 44.49,-196.56 33.24,-180 5.83,-139.7 -14.78,-111.16 14.24,-72 45.53,-29.75 109.73,-20.04 150.78,-18.41"/>
<polygon fill="grey" stroke="grey" stroke-width="2" points="151.03,-21.91 160.94,-18.16 150.86,-14.91 151.03,-21.91"/>
</g>
<!-- 2 -->
<g id="node3" class="node">
<title>2</title>
<path fill="none" stroke="#56d89a" stroke-width="2" d="M84.24,-180C84.24,-180 54.24,-180 54.24,-180 48.24,-180 42.24,-174 42.24,-168 42.24,-168 42.24,-156 42.24,-156 42.24,-150 48.24,-144 54.24,-144 54.24,-144 84.24,-144 84.24,-144 90.24,-144 96.24,-150 96.24,-156 96.24,-156 96.24,-168 96.24,-168 96.24,-174 90.24,-180 84.24,-180"/>
<text text-anchor="middle" x="69.24" y="-159.5" font-family="sans" font-size="10.00">fastqc</text>
</g>
<!-- 1&#45;&gt;2 -->
<g id="edge8" class="edge">
<title>1&#45;&gt;2</title>
<path fill="none" stroke="grey" stroke-width="2" d="M96.34,-215.7C92.24,-207.73 87.29,-198.1 82.74,-189.26"/>
<polygon fill="grey" stroke="grey" stroke-width="2" points="85.72,-187.4 78.03,-180.1 79.49,-190.6 85.72,-187.4"/>
</g>
<!-- 4 -->
<g id="node5" class="node">
<title>4</title>
<path fill="none" stroke="#56b1d8" stroke-width="2" d="M203.24,-180C203.24,-180 173.24,-180 173.24,-180 167.24,-180 161.24,-174 161.24,-168 161.24,-168 161.24,-156 161.24,-156 161.24,-150 167.24,-144 173.24,-144 173.24,-144 203.24,-144 203.24,-144 209.24,-144 215.24,-150 215.24,-156 215.24,-156 215.24,-168 215.24,-168 215.24,-174 209.24,-180 203.24,-180"/>
<text text-anchor="middle" x="188.24" y="-159.5" font-family="sans" font-size="10.00">align</text>
</g>
<!-- 1&#45;&gt;4 -->
<g id="edge10" class="edge">
<title>1&#45;&gt;4</title>
<path fill="none" stroke="grey" stroke-width="2" d="M125.75,-215.7C136.1,-206.97 148.82,-196.24 160.07,-186.75"/>
<polygon fill="grey" stroke="grey" stroke-width="2" points="162.57,-189.23 167.95,-180.1 158.05,-183.88 162.57,-189.23"/>
</g>
<!-- 5 -->
<g id="node6" class="node">
<title>5</title>
<path fill="none" stroke="#d85656" stroke-width="2" d="M373.24,-180C373.24,-180 343.24,-180 343.24,-180 337.24,-180 331.24,-174 331.24,-168 331.24,-168 331.24,-156 331.24,-156 331.24,-150 337.24,-144 343.24,-144 343.24,-144 373.24,-144 373.24,-144 379.24,-144 385.24,-150 385.24,-156 385.24,-156 385.24,-168 385.24,-168 385.24,-174 379.24,-180 373.24,-180"/>
<text text-anchor="middle" x="358.24" y="-159.5" font-family="sans" font-size="10.00">salmon</text>
</g>
<!-- 1&#45;&gt;5 -->
<g id="edge11" class="edge">
<title>1&#45;&gt;5</title>
<path fill="none" stroke="grey" stroke-width="2" d="M132.31,-225.51C177.84,-212.91 269.8,-187.47 321.25,-173.23"/>
<polygon fill="grey" stroke="grey" stroke-width="2" points="322.27,-176.58 330.97,-170.54 320.4,-169.84 322.27,-176.58"/>
</g>
<!-- 2&#45;&gt;0 -->
<g id="edge6" class="edge">
<title>2&#45;&gt;0</title>
<path fill="none" stroke="grey" stroke-width="2" d="M49.17,-143.71C30.03,-125.09 6.43,-95.05 23.24,-72 52.24,-32.22 111.57,-21.64 150.61,-19.18"/>
<polygon fill="grey" stroke="grey" stroke-width="2" points="151.22,-22.66 161.04,-18.69 150.89,-15.67 151.22,-22.66"/>
</g>
<!-- 3 -->
<g id="node4" class="node">
<title>3</title>
<path fill="none" stroke="#ced856" stroke-width="2" d="M125.74,-108C125.74,-108 44.74,-108 44.74,-108 38.74,-108 32.74,-102 32.74,-96 32.74,-96 32.74,-84 32.74,-84 32.74,-78 38.74,-72 44.74,-72 44.74,-72 125.74,-72 125.74,-72 131.74,-72 137.74,-78 137.74,-84 137.74,-84 137.74,-96 137.74,-96 137.74,-102 131.74,-108 125.74,-108"/>
<text text-anchor="middle" x="85.24" y="-87.5" font-family="sans" font-size="10.00">bamCoverage_CPM</text>
</g>
<!-- 3&#45;&gt;0 -->
<g id="edge2" class="edge">
<title>3&#45;&gt;0</title>
<path fill="none" stroke="grey" stroke-width="2" d="M110.43,-71.88C123.65,-62.89 140.03,-51.76 154.34,-42.03"/>
<polygon fill="grey" stroke="grey" stroke-width="2" points="156.64,-44.71 162.94,-36.19 152.7,-38.92 156.64,-44.71"/>
</g>
<!-- 4&#45;&gt;3 -->
<g id="edge9" class="edge">
<title>4&#45;&gt;3</title>
<path fill="none" stroke="grey" stroke-width="2" d="M163.04,-143.88C149.82,-134.89 133.44,-123.76 119.13,-114.03"/>
<polygon fill="grey" stroke="grey" stroke-width="2" points="120.77,-110.92 110.53,-108.19 116.83,-116.71 120.77,-110.92"/>
</g>
<!-- 6 -->
<g id="node7" class="node">
<title>6</title>
<path fill="none" stroke="#70d856" stroke-width="2" d="M208.74,-108C208.74,-108 167.74,-108 167.74,-108 161.74,-108 155.74,-102 155.74,-96 155.74,-96 155.74,-84 155.74,-84 155.74,-78 161.74,-72 167.74,-72 167.74,-72 208.74,-72 208.74,-72 214.74,-72 220.74,-78 220.74,-84 220.74,-84 220.74,-96 220.74,-96 220.74,-102 214.74,-108 208.74,-108"/>
<text text-anchor="middle" x="188.24" y="-87.5" font-family="sans" font-size="10.00">majiq_build</text>
</g>
<!-- 4&#45;&gt;6 -->
<g id="edge12" class="edge">
<title>4&#45;&gt;6</title>
<path fill="none" stroke="grey" stroke-width="2" d="M188.24,-143.7C188.24,-135.98 188.24,-126.71 188.24,-118.11"/>
<polygon fill="grey" stroke="grey" stroke-width="2" points="191.74,-118.1 188.24,-108.1 184.74,-118.1 191.74,-118.1"/>
</g>
<!-- 7 -->
<g id="node8" class="node">
<title>7</title>
<path fill="none" stroke="#9fd856" stroke-width="2" d="M297.24,-108C297.24,-108 251.24,-108 251.24,-108 245.24,-108 239.24,-102 239.24,-96 239.24,-96 239.24,-84 239.24,-84 239.24,-78 245.24,-72 251.24,-72 251.24,-72 297.24,-72 297.24,-72 303.24,-72 309.24,-78 309.24,-84 309.24,-84 309.24,-96 309.24,-96 309.24,-102 303.24,-108 297.24,-108"/>
<text text-anchor="middle" x="274.24" y="-87.5" font-family="sans" font-size="10.00">run_regtools</text>
</g>
<!-- 4&#45;&gt;7 -->
<g id="edge13" class="edge">
<title>4&#45;&gt;7</title>
<path fill="none" stroke="grey" stroke-width="2" d="M209.49,-143.7C220.32,-134.88 233.65,-124.03 245.4,-114.47"/>
<polygon fill="grey" stroke="grey" stroke-width="2" points="247.67,-117.13 253.22,-108.1 243.26,-111.7 247.67,-117.13"/>
</g>
<!-- 8 -->
<g id="node9" class="node">
<title>8</title>
<path fill="none" stroke="#5682d8" stroke-width="2" d="M416.74,-108C416.74,-108 339.74,-108 339.74,-108 333.74,-108 327.74,-102 327.74,-96 327.74,-96 327.74,-84 327.74,-84 327.74,-78 333.74,-72 339.74,-72 339.74,-72 416.74,-72 416.74,-72 422.74,-72 428.74,-78 428.74,-84 428.74,-84 428.74,-96 428.74,-96 428.74,-102 422.74,-108 416.74,-108"/>
<text text-anchor="middle" x="378.24" y="-87.5" font-family="sans" font-size="10.00">run_TPMCalculator</text>
</g>
<!-- 4&#45;&gt;8 -->
<g id="edge14" class="edge">
<title>4&#45;&gt;8</title>
<path fill="none" stroke="grey" stroke-width="2" d="M215.46,-150.97C243.22,-140.74 287.1,-124.58 322.3,-111.61"/>
<polygon fill="grey" stroke="grey" stroke-width="2" points="323.81,-114.78 331.98,-108.04 321.39,-108.21 323.81,-114.78"/>
</g>
<!-- 5&#45;&gt;0 -->
<g id="edge1" class="edge">
<title>5&#45;&gt;0</title>
<path fill="none" stroke="grey" stroke-width="2" d="M385.43,-151.05C403.98,-142.67 427.12,-128.7 438.24,-108 445.81,-93.9 448.31,-84.43 438.24,-72 411.9,-39.49 288.69,-26.12 225.63,-21.33"/>
<polygon fill="grey" stroke="grey" stroke-width="2" points="225.55,-17.81 215.32,-20.58 225.04,-24.79 225.55,-17.81"/>
</g>
<!-- 6&#45;&gt;0 -->
<g id="edge4" class="edge">
<title>6&#45;&gt;0</title>
<path fill="none" stroke="grey" stroke-width="2" d="M188.24,-71.7C188.24,-63.98 188.24,-54.71 188.24,-46.11"/>
<polygon fill="grey" stroke="grey" stroke-width="2" points="191.74,-46.1 188.24,-36.1 184.74,-46.1 191.74,-46.1"/>
</g>
<!-- 7&#45;&gt;0 -->
<g id="edge3" class="edge">
<title>7&#45;&gt;0</title>
<path fill="none" stroke="grey" stroke-width="2" d="M252.98,-71.7C242.15,-62.88 228.82,-52.03 217.07,-42.47"/>
<polygon fill="grey" stroke="grey" stroke-width="2" points="219.21,-39.7 209.25,-36.1 214.8,-45.13 219.21,-39.7"/>
</g>
<!-- 8&#45;&gt;0 -->
<g id="edge7" class="edge">
<title>8&#45;&gt;0</title>
<path fill="none" stroke="grey" stroke-width="2" d="M331.76,-71.88C298.84,-59.75 255.31,-43.71 224.85,-32.49"/>
<polygon fill="grey" stroke="grey" stroke-width="2" points="226.05,-29.2 215.45,-29.03 223.63,-35.77 226.05,-29.2"/>
</g>
</g>
</svg>
