<?xml version="1.0" encoding="UTF-8" standalone="no"?>
<!DOCTYPE svg PUBLIC "-//W3C//DTD SVG 1.1//EN"
 "http://www.w3.org/Graphics/SVG/1.1/DTD/svg11.dtd">
<!-- Generated by graphviz version 9.0.0 (0)
 -->
<!-- Title: snakemake_dag Pages: 1 -->
<svg width="2461pt" height="620pt"
 viewBox="0.00 0.00 2461.04 620.00" xmlns="http://www.w3.org/2000/svg" xmlns:xlink="http://www.w3.org/1999/xlink">
<g id="graph0" class="graph" transform="scale(1 1) rotate(0) translate(4 616)">
<title>snakemake_dag</title>
<polygon fill="white" stroke="none" points="-4,4 -4,-616 2457.04,-616 2457.04,4 -4,4"/>
<!-- 0 -->
<g id="node1" class="node">
<title>0</title>
<path fill="none" stroke="#d89c56" stroke-width="2" d="M1039,-36C1039,-36 1009,-36 1009,-36 1003,-36 997,-30 997,-24 997,-24 997,-12 997,-12 997,-6 1003,0 1009,0 1009,0 1039,0 1039,0 1045,0 1051,-6 1051,-12 1051,-12 1051,-24 1051,-24 1051,-30 1045,-36 1039,-36"/>
<text text-anchor="middle" x="1024" y="-14.12" font-family="sans" font-size="10.00">all</text>
</g>
<!-- 1 -->
<g id="node2" class="node">
<title>1</title>
<path fill="none" stroke="#d86656" stroke-width="2" d="M131,-612C131,-612 101,-612 101,-612 95,-612 89,-606 89,-600 89,-600 89,-588 89,-588 89,-582 95,-576 101,-576 101,-576 131,-576 131,-576 137,-576 143,-582 143,-588 143,-588 143,-600 143,-600 143,-606 137,-612 131,-612"/>
<text text-anchor="middle" x="116" y="-590.12" font-family="sans" font-size="10.00">trimming</text>
</g>
<!-- 1&#45;&gt;0 -->
<g id="edge1" class="edge">
<title>1&#45;&gt;0</title>
<path fill="none" stroke="grey" stroke-width="2" d="M88.22,-575.88C53.9,-552.35 0,-506.55 0,-451 0,-451 0,-451 0,-161 0,-104.74 38.59,-94.85 90,-72 172.41,-35.37 814.96,-22.4 983.58,-19.61"/>
<polygon fill="grey" stroke="grey" stroke-width="2" points="983.47,-23.12 993.41,-19.46 983.36,-16.12 983.47,-23.12"/>
</g>
<!-- 2 -->
<g id="node3" class="node">
<title>2</title>
<path fill="none" stroke="#56d8b9" stroke-width="2" d="M70,-180C70,-180 40,-180 40,-180 34,-180 28,-174 28,-168 28,-168 28,-156 28,-156 28,-150 34,-144 40,-144 40,-144 70,-144 70,-144 76,-144 82,-150 82,-156 82,-156 82,-168 82,-168 82,-174 76,-180 70,-180"/>
<text text-anchor="middle" x="55" y="-158.12" font-family="sans" font-size="10.00">fastqc</text>
</g>
<!-- 1&#45;&gt;2 -->
<g id="edge22" class="edge">
<title>1&#45;&gt;2</title>
<path fill="none" stroke="grey" stroke-width="2" d="M106.67,-575.17C93.75,-548.79 72,-497.46 72,-451 72,-451 72,-451 72,-305 72,-266.38 65.72,-222.27 60.8,-193.59"/>
<polygon fill="grey" stroke="grey" stroke-width="2" points="64.26,-193.06 59.05,-183.83 57.37,-194.29 64.26,-193.06"/>
</g>
<!-- 5 -->
<g id="node6" class="node">
<title>5</title>
<path fill="none" stroke="#b6d856" stroke-width="2" d="M1648,-540C1648,-540 1618,-540 1618,-540 1612,-540 1606,-534 1606,-528 1606,-528 1606,-516 1606,-516 1606,-510 1612,-504 1618,-504 1618,-504 1648,-504 1648,-504 1654,-504 1660,-510 1660,-516 1660,-516 1660,-528 1660,-528 1660,-534 1654,-540 1648,-540"/>
<text text-anchor="middle" x="1633" y="-518.12" font-family="sans" font-size="10.00">align</text>
</g>
<!-- 1&#45;&gt;5 -->
<g id="edge24" class="edge">
<title>1&#45;&gt;5</title>
<path fill="none" stroke="grey" stroke-width="2" d="M143.83,-591.8C273.84,-586.19 834.41,-561.86 1294,-540 1401.76,-534.87 1528.76,-528.39 1592.37,-525.11"/>
<polygon fill="grey" stroke="grey" stroke-width="2" points="1592.49,-528.6 1602.3,-524.59 1592.13,-521.61 1592.49,-528.6"/>
</g>
<!-- 7 -->
<g id="node8" class="node">
<title>7</title>
<path fill="none" stroke="#567bd8" stroke-width="2" d="M142,-180C142,-180 112,-180 112,-180 106,-180 100,-174 100,-168 100,-168 100,-156 100,-156 100,-150 106,-144 112,-144 112,-144 142,-144 142,-144 148,-144 154,-150 154,-156 154,-156 154,-168 154,-168 154,-174 148,-180 142,-180"/>
<text text-anchor="middle" x="127" y="-158.12" font-family="sans" font-size="10.00">salmon</text>
</g>
<!-- 1&#45;&gt;7 -->
<g id="edge26" class="edge">
<title>1&#45;&gt;7</title>
<path fill="none" stroke="grey" stroke-width="2" d="M116,-575.07C116,-548.13 116,-495.62 116,-451 116,-451 116,-451 116,-305 116,-266.54 120.06,-222.39 123.25,-193.67"/>
<polygon fill="grey" stroke="grey" stroke-width="2" points="126.71,-194.24 124.37,-183.91 119.75,-193.44 126.71,-194.24"/>
</g>
<!-- 24 -->
<g id="node25" class="node">
<title>24</title>
<path fill="none" stroke="#d88d56" stroke-width="2" d="M1263.12,-108C1263.12,-108 1220.88,-108 1220.88,-108 1214.88,-108 1208.88,-102 1208.88,-96 1208.88,-96 1208.88,-84 1208.88,-84 1208.88,-78 1214.88,-72 1220.88,-72 1220.88,-72 1263.12,-72 1263.12,-72 1269.12,-72 1275.12,-78 1275.12,-84 1275.12,-84 1275.12,-96 1275.12,-96 1275.12,-102 1269.12,-108 1263.12,-108"/>
<text text-anchor="middle" x="1242" y="-86.12" font-family="sans" font-size="10.00">run_multiqc</text>
</g>
<!-- 1&#45;&gt;24 -->
<g id="edge44" class="edge">
<title>1&#45;&gt;24</title>
<path fill="none" stroke="grey" stroke-width="2" d="M143.91,-592.62C320.93,-589.83 1280,-569.27 1280,-451 1280,-451 1280,-451 1280,-233 1280,-193.16 1265.87,-149.11 1254.85,-120.8"/>
<polygon fill="grey" stroke="grey" stroke-width="2" points="1258.19,-119.73 1251.19,-111.77 1251.7,-122.36 1258.19,-119.73"/>
</g>
<!-- 2&#45;&gt;0 -->
<g id="edge16" class="edge">
<title>2&#45;&gt;0</title>
<path fill="none" stroke="grey" stroke-width="2" d="M65.38,-143.17C78.86,-121.94 104.54,-87.4 137,-72 214.1,-35.42 820.63,-22.48 983.73,-19.64"/>
<polygon fill="grey" stroke="grey" stroke-width="2" points="983.45,-23.15 993.39,-19.48 983.33,-16.15 983.45,-23.15"/>
</g>
<!-- 2&#45;&gt;24 -->
<g id="edge58" class="edge">
<title>2&#45;&gt;24</title>
<path fill="none" stroke="grey" stroke-width="2" d="M82.91,-146.54C85.59,-145.54 88.32,-144.67 91,-144 305.36,-90.73 1006.41,-89.92 1194.95,-90.71"/>
<polygon fill="grey" stroke="grey" stroke-width="2" points="1194.83,-94.21 1204.85,-90.76 1194.87,-87.21 1194.83,-94.21"/>
</g>
<!-- 3 -->
<g id="node4" class="node">
<title>3</title>
<path fill="none" stroke="#61d856" stroke-width="2" d="M316,-180C316,-180 222,-180 222,-180 216,-180 210,-174 210,-168 210,-168 210,-156 210,-156 210,-150 216,-144 222,-144 222,-144 316,-144 316,-144 322,-144 328,-150 328,-156 328,-156 328,-168 328,-168 328,-174 322,-180 316,-180"/>
<text text-anchor="middle" x="269" y="-158.12" font-family="sans" font-size="10.00">fastqc_before_trimming</text>
</g>
<!-- 3&#45;&gt;0 -->
<g id="edge11" class="edge">
<title>3&#45;&gt;0</title>
<path fill="none" stroke="grey" stroke-width="2" d="M295.79,-143.04C328.67,-122.02 386.86,-88.03 442,-72 543.93,-42.36 868.05,-25.77 983.05,-20.69"/>
<polygon fill="grey" stroke="grey" stroke-width="2" points="983.14,-24.19 992.98,-20.26 982.84,-17.2 983.14,-24.19"/>
</g>
<!-- 3&#45;&gt;24 -->
<g id="edge53" class="edge">
<title>3&#45;&gt;24</title>
<path fill="none" stroke="grey" stroke-width="2" d="M328.71,-145.58C331.84,-144.99 334.95,-144.46 338,-144 663.37,-94.8 1061.01,-90.62 1195.23,-90.74"/>
<polygon fill="grey" stroke="grey" stroke-width="2" points="1195.08,-94.24 1205.09,-90.76 1195.09,-87.24 1195.08,-94.24"/>
</g>
<!-- 4 -->
<g id="node5" class="node">
<title>4</title>
<path fill="none" stroke="#80d856" stroke-width="2" d="M1943.62,-180C1943.62,-180 1820.38,-180 1820.38,-180 1814.38,-180 1808.38,-174 1808.38,-168 1808.38,-168 1808.38,-156 1808.38,-156 1808.38,-150 1814.38,-144 1820.38,-144 1820.38,-144 1943.62,-144 1943.62,-144 1949.62,-144 1955.62,-150 1955.62,-156 1955.62,-156 1955.62,-168 1955.62,-168 1955.62,-174 1949.62,-180 1943.62,-180"/>
<text text-anchor="middle" x="1882" y="-158.12" font-family="sans" font-size="10.00">bamCoverage_CPM_stranded</text>
</g>
<!-- 4&#45;&gt;0 -->
<g id="edge10" class="edge">
<title>4&#45;&gt;0</title>
<path fill="none" stroke="grey" stroke-width="2" d="M1807.47,-143.18C1723.61,-123.61 1583.15,-92.28 1461,-72 1316.09,-47.94 1142.43,-30.13 1064.89,-22.75"/>
<polygon fill="grey" stroke="grey" stroke-width="2" points="1065.28,-19.27 1055,-21.82 1064.63,-26.24 1065.28,-19.27"/>
</g>
<!-- 4&#45;&gt;24 -->
<g id="edge52" class="edge">
<title>4&#45;&gt;24</title>
<path fill="none" stroke="grey" stroke-width="2" d="M1807.67,-146.12C1803.05,-145.36 1798.47,-144.64 1794,-144 1607.85,-117.15 1384.36,-100.41 1288.92,-93.99"/>
<polygon fill="grey" stroke="grey" stroke-width="2" points="1289.28,-90.51 1279.07,-93.34 1288.82,-97.49 1289.28,-90.51"/>
</g>
<!-- 5&#45;&gt;4 -->
<g id="edge23" class="edge">
<title>5&#45;&gt;4</title>
<path fill="none" stroke="grey" stroke-width="2" d="M1660.74,-512.02C1708.46,-494.63 1801,-451.56 1801,-379 1801,-379 1801,-379 1801,-305 1801,-260.46 1831.45,-217.16 1855.01,-190.32"/>
<polygon fill="grey" stroke="grey" stroke-width="2" points="1857.43,-192.85 1861.58,-183.11 1852.26,-188.14 1857.43,-192.85"/>
</g>
<!-- 6 -->
<g id="node7" class="node">
<title>6</title>
<path fill="none" stroke="#d87d56" stroke-width="2" d="M2204.12,-180C2204.12,-180 2023.88,-180 2023.88,-180 2017.88,-180 2011.88,-174 2011.88,-168 2011.88,-168 2011.88,-156 2011.88,-156 2011.88,-150 2017.88,-144 2023.88,-144 2023.88,-144 2204.12,-144 2204.12,-144 2210.12,-144 2216.12,-150 2216.12,-156 2216.12,-156 2216.12,-168 2216.12,-168 2216.12,-174 2210.12,-180 2204.12,-180"/>
<text text-anchor="middle" x="2114" y="-158.12" font-family="sans" font-size="10.00">bamCoverage_CPM_stranded_no_blacklist</text>
</g>
<!-- 5&#45;&gt;6 -->
<g id="edge25" class="edge">
<title>5&#45;&gt;6</title>
<path fill="none" stroke="grey" stroke-width="2" d="M1660.92,-515.99C1744.17,-500.27 1985,-448.77 1985,-379 1985,-379 1985,-379 1985,-305 1985,-253.31 2032.4,-212.11 2069.74,-187.68"/>
<polygon fill="grey" stroke="grey" stroke-width="2" points="2071.28,-190.84 2077.88,-182.55 2067.55,-184.91 2071.28,-190.84"/>
</g>
<!-- 8 -->
<g id="node9" class="node">
<title>8</title>
<path fill="none" stroke="#97d856" stroke-width="2" d="M2291.62,-180C2291.62,-180 2246.38,-180 2246.38,-180 2240.38,-180 2234.38,-174 2234.38,-168 2234.38,-168 2234.38,-156 2234.38,-156 2234.38,-150 2240.38,-144 2246.38,-144 2246.38,-144 2291.62,-144 2291.62,-144 2297.62,-144 2303.62,-150 2303.62,-156 2303.62,-156 2303.62,-168 2303.62,-168 2303.62,-174 2297.62,-180 2291.62,-180"/>
<text text-anchor="middle" x="2269" y="-158.12" font-family="sans" font-size="10.00">run_regtools</text>
</g>
<!-- 5&#45;&gt;8 -->
<g id="edge27" class="edge">
<title>5&#45;&gt;8</title>
<path fill="none" stroke="grey" stroke-width="2" d="M1660.64,-519.51C1768.35,-512.94 2154,-482.24 2154,-379 2154,-379 2154,-379 2154,-305 2154,-255.48 2196.76,-213.55 2230.13,-188.37"/>
<polygon fill="grey" stroke="grey" stroke-width="2" points="2232.09,-191.28 2238.12,-182.57 2227.97,-185.61 2232.09,-191.28"/>
</g>
<!-- 9 -->
<g id="node10" class="node">
<title>9</title>
<path fill="none" stroke="#d8d356" stroke-width="2" d="M2352,-252C2352,-252 2276,-252 2276,-252 2270,-252 2264,-246 2264,-240 2264,-240 2264,-228 2264,-228 2264,-222 2270,-216 2276,-216 2276,-216 2352,-216 2352,-216 2358,-216 2364,-222 2364,-228 2364,-228 2364,-240 2364,-240 2364,-246 2358,-252 2352,-252"/>
<text text-anchor="middle" x="2314" y="-230.12" font-family="sans" font-size="10.00">run_TPMCalculator</text>
</g>
<!-- 5&#45;&gt;9 -->
<g id="edge28" class="edge">
<title>5&#45;&gt;9</title>
<path fill="none" stroke="grey" stroke-width="2" d="M1660.81,-521.4C1758.11,-522.34 2082.02,-521.29 2168,-468 2244.52,-420.57 2287.53,-316.58 2304.88,-265.1"/>
<polygon fill="grey" stroke="grey" stroke-width="2" points="2308.14,-266.39 2307.89,-255.8 2301.48,-264.23 2308.14,-266.39"/>
</g>
<!-- 10 -->
<g id="node11" class="node">
<title>10</title>
<path fill="none" stroke="#ced856" stroke-width="2" d="M461.5,-180C461.5,-180 358.5,-180 358.5,-180 352.5,-180 346.5,-174 346.5,-168 346.5,-168 346.5,-156 346.5,-156 346.5,-150 352.5,-144 358.5,-144 358.5,-144 461.5,-144 461.5,-144 467.5,-144 473.5,-150 473.5,-156 473.5,-156 473.5,-168 473.5,-168 473.5,-174 467.5,-180 461.5,-180"/>
<text text-anchor="middle" x="410" y="-158.12" font-family="sans" font-size="10.00">run_bam_selected_genes</text>
</g>
<!-- 5&#45;&gt;10 -->
<g id="edge29" class="edge">
<title>5&#45;&gt;10</title>
<path fill="none" stroke="grey" stroke-width="2" d="M1605.1,-519.83C1401.63,-511.15 154,-454.81 154,-379 154,-379 154,-379 154,-305 154,-261.52 268.35,-212.73 344.2,-185.15"/>
<polygon fill="grey" stroke="grey" stroke-width="2" points="344.94,-188.6 353.17,-181.93 342.58,-182.01 344.94,-188.6"/>
</g>
<!-- 11 -->
<g id="node12" class="node">
<title>11</title>
<path fill="none" stroke="#d8ac56" stroke-width="2" d="M1025.62,-468C1025.62,-468 908.38,-468 908.38,-468 902.38,-468 896.38,-462 896.38,-456 896.38,-456 896.38,-444 896.38,-444 896.38,-438 902.38,-432 908.38,-432 908.38,-432 1025.62,-432 1025.62,-432 1031.62,-432 1037.62,-438 1037.62,-444 1037.62,-444 1037.62,-456 1037.62,-456 1037.62,-462 1031.62,-468 1025.62,-468"/>
<text text-anchor="middle" x="967" y="-446.12" font-family="sans" font-size="10.00">run_bam_just_numbered_chr</text>
</g>
<!-- 5&#45;&gt;11 -->
<g id="edge30" class="edge">
<title>5&#45;&gt;11</title>
<path fill="none" stroke="grey" stroke-width="2" d="M1605.23,-518.08C1511.16,-508.19 1202.02,-475.7 1051.22,-459.85"/>
<polygon fill="grey" stroke="grey" stroke-width="2" points="1051.77,-456.39 1041.46,-458.83 1051.04,-463.35 1051.77,-456.39"/>
</g>
<!-- 14 -->
<g id="node15" class="node">
<title>14</title>
<path fill="none" stroke="#56d85b" stroke-width="2" d="M1414.25,-180C1414.25,-180 1357.75,-180 1357.75,-180 1351.75,-180 1345.75,-174 1345.75,-168 1345.75,-168 1345.75,-156 1345.75,-156 1345.75,-150 1351.75,-144 1357.75,-144 1357.75,-144 1414.25,-144 1414.25,-144 1420.25,-144 1426.25,-150 1426.25,-156 1426.25,-156 1426.25,-168 1426.25,-168 1426.25,-174 1420.25,-180 1414.25,-180"/>
<text text-anchor="middle" x="1386" y="-158.12" font-family="sans" font-size="10.00">run_bam_stats</text>
</g>
<!-- 5&#45;&gt;14 -->
<g id="edge34" class="edge">
<title>5&#45;&gt;14</title>
<path fill="none" stroke="grey" stroke-width="2" d="M1605.42,-515.9C1548.22,-503.56 1422,-466.43 1422,-379 1422,-379 1422,-379 1422,-305 1422,-265.08 1408.47,-220.73 1398,-192.39"/>
<polygon fill="grey" stroke="grey" stroke-width="2" points="1401.39,-191.48 1394.54,-183.4 1394.86,-193.99 1401.39,-191.48"/>
</g>
<!-- 17 -->
<g id="node18" class="node">
<title>17</title>
<path fill="none" stroke="#56a2d8" stroke-width="2" d="M1592.62,-252C1592.62,-252 1481.38,-252 1481.38,-252 1475.38,-252 1469.38,-246 1469.38,-240 1469.38,-240 1469.38,-228 1469.38,-228 1469.38,-222 1475.38,-216 1481.38,-216 1481.38,-216 1592.62,-216 1592.62,-216 1598.62,-216 1604.62,-222 1604.62,-228 1604.62,-228 1604.62,-240 1604.62,-240 1604.62,-246 1598.62,-252 1592.62,-252"/>
<text text-anchor="middle" x="1537" y="-230.12" font-family="sans" font-size="10.00">run_convert_SJ_to_interact</text>
</g>
<!-- 5&#45;&gt;17 -->
<g id="edge37" class="edge">
<title>5&#45;&gt;17</title>
<path fill="none" stroke="grey" stroke-width="2" d="M1626.99,-503.11C1610.97,-455.36 1567.04,-324.51 1547.1,-265.08"/>
<polygon fill="grey" stroke="grey" stroke-width="2" points="1550.47,-264.12 1543.97,-255.75 1543.83,-266.35 1550.47,-264.12"/>
</g>
<!-- 19 -->
<g id="node20" class="node">
<title>19</title>
<path fill="none" stroke="#568ad8" stroke-width="2" d="M1739.75,-180C1739.75,-180 1626.25,-180 1626.25,-180 1620.25,-180 1614.25,-174 1614.25,-168 1614.25,-168 1614.25,-156 1614.25,-156 1614.25,-150 1620.25,-144 1626.25,-144 1626.25,-144 1739.75,-144 1739.75,-144 1745.75,-144 1751.75,-150 1751.75,-156 1751.75,-156 1751.75,-168 1751.75,-168 1751.75,-174 1745.75,-180 1739.75,-180"/>
<text text-anchor="middle" x="1683" y="-158.12" font-family="sans" font-size="10.00">run_merge_junctions_STAR</text>
</g>
<!-- 5&#45;&gt;19 -->
<g id="edge39" class="edge">
<title>5&#45;&gt;19</title>
<path fill="none" stroke="grey" stroke-width="2" d="M1639.84,-503.37C1649.5,-476.83 1666,-424.81 1666,-379 1666,-379 1666,-379 1666,-305 1666,-266.38 1672.28,-222.27 1677.2,-193.59"/>
<polygon fill="grey" stroke="grey" stroke-width="2" points="1680.63,-194.29 1678.95,-183.83 1673.74,-193.06 1680.63,-194.29"/>
</g>
<!-- 6&#45;&gt;0 -->
<g id="edge2" class="edge">
<title>6&#45;&gt;0</title>
<path fill="none" stroke="grey" stroke-width="2" d="M2097.59,-143.06C2076.79,-121.71 2038.71,-87.06 1998,-72 1909.57,-39.28 1237.8,-23.38 1064.62,-19.8"/>
<polygon fill="grey" stroke="grey" stroke-width="2" points="1064.77,-16.3 1054.7,-19.59 1064.62,-23.3 1064.77,-16.3"/>
</g>
<!-- 6&#45;&gt;24 -->
<g id="edge45" class="edge">
<title>6&#45;&gt;24</title>
<path fill="none" stroke="grey" stroke-width="2" d="M2011.06,-148.71C1995.63,-147.02 1979.91,-145.4 1965,-144 1710.06,-120.12 1403.71,-100.72 1288.67,-93.77"/>
<polygon fill="grey" stroke="grey" stroke-width="2" points="1289.13,-90.29 1278.94,-93.18 1288.71,-97.27 1289.13,-90.29"/>
</g>
<!-- 7&#45;&gt;0 -->
<g id="edge20" class="edge">
<title>7&#45;&gt;0</title>
<path fill="none" stroke="grey" stroke-width="2" d="M129.69,-143.15C133.89,-122.23 144.14,-88.34 168,-72 235.74,-25.61 822.22,-19.81 983.25,-19.1"/>
<polygon fill="grey" stroke="grey" stroke-width="2" points="983.21,-22.6 993.19,-19.06 983.18,-15.6 983.21,-22.6"/>
</g>
<!-- 7&#45;&gt;24 -->
<g id="edge62" class="edge">
<title>7&#45;&gt;24</title>
<path fill="none" stroke="grey" stroke-width="2" d="M154.9,-153.38C168.67,-149.92 185.59,-146.14 201,-144 582.07,-90.94 1048.21,-89.46 1195.27,-90.48"/>
<polygon fill="grey" stroke="grey" stroke-width="2" points="1195.04,-93.98 1205.07,-90.56 1195.1,-86.98 1195.04,-93.98"/>
</g>
<!-- 8&#45;&gt;0 -->
<g id="edge9" class="edge">
<title>8&#45;&gt;0</title>
<path fill="none" stroke="grey" stroke-width="2" d="M2233.78,-143.14C2189.9,-121.87 2112.03,-87.3 2041,-72 1849.77,-30.82 1229.29,-21.23 1064.5,-19.39"/>
<polygon fill="grey" stroke="grey" stroke-width="2" points="1064.76,-15.89 1054.72,-19.28 1064.69,-22.89 1064.76,-15.89"/>
</g>
<!-- 8&#45;&gt;24 -->
<g id="edge51" class="edge">
<title>8&#45;&gt;24</title>
<path fill="none" stroke="grey" stroke-width="2" d="M2233.75,-146.28C2230.82,-145.4 2227.88,-144.62 2225,-144 2042.98,-104.96 1458.9,-93.98 1288.86,-91.58"/>
<polygon fill="grey" stroke="grey" stroke-width="2" points="1289.04,-88.08 1279,-91.44 1288.95,-95.08 1289.04,-88.08"/>
</g>
<!-- 9&#45;&gt;0 -->
<g id="edge6" class="edge">
<title>9&#45;&gt;0</title>
<path fill="none" stroke="grey" stroke-width="2" d="M2364.72,-226.6C2393.74,-220.05 2427.88,-206.8 2446,-180 2454.96,-166.75 2455.69,-156.73 2446,-144 2360.02,-30.98 1288.13,-20.14 1064.66,-19.11"/>
<polygon fill="grey" stroke="grey" stroke-width="2" points="1064.8,-15.61 1054.78,-19.07 1064.77,-22.61 1064.8,-15.61"/>
</g>
<!-- 20 -->
<g id="node21" class="node">
<title>20</title>
<path fill="none" stroke="#d8c356" stroke-width="2" d="M2424.5,-180C2424.5,-180 2333.5,-180 2333.5,-180 2327.5,-180 2321.5,-174 2321.5,-168 2321.5,-168 2321.5,-156 2321.5,-156 2321.5,-150 2327.5,-144 2333.5,-144 2333.5,-144 2424.5,-144 2424.5,-144 2430.5,-144 2436.5,-150 2436.5,-156 2436.5,-156 2436.5,-168 2436.5,-168 2436.5,-174 2430.5,-180 2424.5,-180"/>
<text text-anchor="middle" x="2379" y="-158.12" font-family="sans" font-size="10.00">run_merge_gene_tpms</text>
</g>
<!-- 9&#45;&gt;20 -->
<g id="edge40" class="edge">
<title>9&#45;&gt;20</title>
<path fill="none" stroke="grey" stroke-width="2" d="M2330.4,-215.34C2337.43,-207.77 2345.8,-198.75 2353.6,-190.35"/>
<polygon fill="grey" stroke="grey" stroke-width="2" points="2356.08,-192.83 2360.32,-183.12 2350.95,-188.07 2356.08,-192.83"/>
</g>
<!-- 9&#45;&gt;24 -->
<g id="edge48" class="edge">
<title>9&#45;&gt;24</title>
<path fill="none" stroke="grey" stroke-width="2" d="M2263,-231.9C2149.74,-228.79 1880.78,-217.55 1799,-180 1777.86,-170.29 1782.15,-153.7 1761,-144 1739.65,-134.21 1412.12,-105.48 1288.63,-94.94"/>
<polygon fill="grey" stroke="grey" stroke-width="2" points="1289.25,-91.48 1278.99,-94.12 1288.65,-98.45 1289.25,-91.48"/>
</g>
<!-- 10&#45;&gt;0 -->
<g id="edge7" class="edge">
<title>10&#45;&gt;0</title>
<path fill="none" stroke="grey" stroke-width="2" d="M419.98,-143.02C432.73,-121.98 456.94,-87.97 488,-72 574.42,-27.57 873.79,-20.35 983.39,-19.2"/>
<polygon fill="grey" stroke="grey" stroke-width="2" points="983.09,-22.71 993.06,-19.12 983.03,-15.71 983.09,-22.71"/>
</g>
<!-- 10&#45;&gt;24 -->
<g id="edge49" class="edge">
<title>10&#45;&gt;24</title>
<path fill="none" stroke="grey" stroke-width="2" d="M474.45,-150.25C489.68,-147.96 505.89,-145.71 521,-144 774.73,-115.29 1080.53,-98.74 1195.4,-93.15"/>
<polygon fill="grey" stroke="grey" stroke-width="2" points="1195.28,-96.66 1205.1,-92.69 1194.95,-89.67 1195.28,-96.66"/>
</g>
<!-- 11&#45;&gt;0 -->
<g id="edge4" class="edge">
<title>11&#45;&gt;0</title>
<path fill="none" stroke="grey" stroke-width="2" d="M895.6,-447.86C676.4,-441.62 37.63,-401.43 201,-144 241.27,-80.55 281.36,-91.28 354,-72 473.97,-40.16 857.27,-24.64 983.36,-20.3"/>
<polygon fill="grey" stroke="grey" stroke-width="2" points="983.19,-23.81 993.07,-19.97 982.96,-16.81 983.19,-23.81"/>
</g>
<!-- 12 -->
<g id="node13" class="node">
<title>12</title>
<path fill="none" stroke="#56d873" stroke-width="2" d="M1012.75,-324C1012.75,-324 923.25,-324 923.25,-324 917.25,-324 911.25,-318 911.25,-312 911.25,-312 911.25,-300 911.25,-300 911.25,-294 917.25,-288 923.25,-288 923.25,-288 1012.75,-288 1012.75,-288 1018.75,-288 1024.75,-294 1024.75,-300 1024.75,-300 1024.75,-312 1024.75,-312 1024.75,-318 1018.75,-324 1012.75,-324"/>
<text text-anchor="middle" x="968" y="-302.12" font-family="sans" font-size="10.00">run_downsample_bam</text>
</g>
<!-- 11&#45;&gt;12 -->
<g id="edge32" class="edge">
<title>11&#45;&gt;12</title>
<path fill="none" stroke="grey" stroke-width="2" d="M954.39,-431.31C948.13,-421.43 941.22,-408.6 938,-396 934.04,-380.5 933.92,-375.47 938,-360 940.19,-351.68 944.02,-343.29 948.23,-335.72"/>
<polygon fill="grey" stroke="grey" stroke-width="2" points="951.19,-337.58 953.39,-327.22 945.21,-333.95 951.19,-337.58"/>
</g>
<!-- 13 -->
<g id="node14" class="node">
<title>13</title>
<path fill="none" stroke="#d85656" stroke-width="2" d="M1072.75,-396C1072.75,-396 959.25,-396 959.25,-396 953.25,-396 947.25,-390 947.25,-384 947.25,-384 947.25,-372 947.25,-372 947.25,-366 953.25,-360 959.25,-360 959.25,-360 1072.75,-360 1072.75,-360 1078.75,-360 1084.75,-366 1084.75,-372 1084.75,-372 1084.75,-384 1084.75,-384 1084.75,-390 1078.75,-396 1072.75,-396"/>
<text text-anchor="middle" x="1016" y="-374.12" font-family="sans" font-size="10.00">run_downsample_bam_prep</text>
</g>
<!-- 11&#45;&gt;13 -->
<g id="edge33" class="edge">
<title>11&#45;&gt;13</title>
<path fill="none" stroke="grey" stroke-width="2" d="M979.36,-431.34C984.43,-424.1 990.43,-415.53 996.08,-407.45"/>
<polygon fill="grey" stroke="grey" stroke-width="2" points="998.87,-409.58 1001.73,-399.38 993.13,-405.57 998.87,-409.58"/>
</g>
<!-- 15 -->
<g id="node16" class="node">
<title>15</title>
<path fill="none" stroke="#56d882" stroke-width="2" d="M696.38,-252C696.38,-252 553.62,-252 553.62,-252 547.62,-252 541.62,-246 541.62,-240 541.62,-240 541.62,-228 541.62,-228 541.62,-222 547.62,-216 553.62,-216 553.62,-216 696.38,-216 696.38,-216 702.38,-216 708.38,-222 708.38,-228 708.38,-228 708.38,-240 708.38,-240 708.38,-246 702.38,-252 696.38,-252"/>
<text text-anchor="middle" x="625" y="-230.12" font-family="sans" font-size="10.00">run_TPMCalculator_numbered_chr</text>
</g>
<!-- 11&#45;&gt;15 -->
<g id="edge35" class="edge">
<title>11&#45;&gt;15</title>
<path fill="none" stroke="grey" stroke-width="2" d="M938.43,-431.12C877.45,-392.96 734.43,-303.48 664.67,-259.82"/>
<polygon fill="grey" stroke="grey" stroke-width="2" points="666.63,-256.92 656.3,-254.58 662.92,-262.85 666.63,-256.92"/>
</g>
<!-- 11&#45;&gt;24 -->
<g id="edge46" class="edge">
<title>11&#45;&gt;24</title>
<path fill="none" stroke="grey" stroke-width="2" d="M1038.54,-442.72C1120.02,-431.18 1242,-398.61 1242,-307 1242,-307 1242,-307 1242,-233 1242,-194.65 1242,-150.48 1242,-121.72"/>
<polygon fill="grey" stroke="grey" stroke-width="2" points="1245.5,-121.96 1242,-111.96 1238.5,-121.96 1245.5,-121.96"/>
</g>
<!-- 12&#45;&gt;0 -->
<g id="edge13" class="edge">
<title>12&#45;&gt;0</title>
<path fill="none" stroke="grey" stroke-width="2" d="M910.43,-288.86C834.83,-264.53 716.41,-213.79 759,-144 807.51,-64.51 922.15,-34.78 983.54,-24.3"/>
<polygon fill="grey" stroke="grey" stroke-width="2" points="983.83,-27.8 993.16,-22.77 982.73,-20.89 983.83,-27.8"/>
</g>
<!-- 16 -->
<g id="node17" class="node">
<title>16</title>
<path fill="none" stroke="#56d892" stroke-width="2" d="M880,-180C880,-180 780,-180 780,-180 774,-180 768,-174 768,-168 768,-168 768,-156 768,-156 768,-150 774,-144 780,-144 780,-144 880,-144 880,-144 886,-144 892,-150 892,-156 892,-156 892,-168 892,-168 892,-174 886,-180 880,-180"/>
<text text-anchor="middle" x="830" y="-158.12" font-family="sans" font-size="10.00">run_htseq_downsampled</text>
</g>
<!-- 12&#45;&gt;16 -->
<g id="edge36" class="edge">
<title>12&#45;&gt;16</title>
<path fill="none" stroke="grey" stroke-width="2" d="M947.83,-287C936.75,-276.92 922.88,-264.01 911,-252 891.13,-231.92 869.65,-208.22 853.81,-190.33"/>
<polygon fill="grey" stroke="grey" stroke-width="2" points="856.65,-188.26 847.41,-183.07 851.39,-192.88 856.65,-188.26"/>
</g>
<!-- 23 -->
<g id="node24" class="node">
<title>23</title>
<path fill="none" stroke="#56b1d8" stroke-width="2" d="M1073.62,-252C1073.62,-252 932.38,-252 932.38,-252 926.38,-252 920.38,-246 920.38,-240 920.38,-240 920.38,-228 920.38,-228 920.38,-222 926.38,-216 932.38,-216 932.38,-216 1073.62,-216 1073.62,-216 1079.62,-216 1085.62,-222 1085.62,-228 1085.62,-228 1085.62,-240 1085.62,-240 1085.62,-246 1079.62,-252 1073.62,-252"/>
<text text-anchor="middle" x="1003" y="-230.12" font-family="sans" font-size="10.00">run_TPMCalculator_downsampled</text>
</g>
<!-- 12&#45;&gt;23 -->
<g id="edge43" class="edge">
<title>12&#45;&gt;23</title>
<path fill="none" stroke="grey" stroke-width="2" d="M976.83,-287.34C980.33,-280.34 984.44,-272.12 988.36,-264.28"/>
<polygon fill="grey" stroke="grey" stroke-width="2" points="991.35,-266.12 992.7,-255.61 985.09,-262.99 991.35,-266.12"/>
</g>
<!-- 12&#45;&gt;24 -->
<g id="edge55" class="edge">
<title>12&#45;&gt;24</title>
<path fill="none" stroke="grey" stroke-width="2" d="M1021.05,-287.05C1044.53,-278.07 1071.97,-266.09 1095,-252 1137.23,-226.16 1146.68,-216.62 1180,-180 1197.03,-161.29 1213.26,-137.7 1224.84,-119.52"/>
<polygon fill="grey" stroke="grey" stroke-width="2" points="1227.65,-121.62 1229.97,-111.28 1221.71,-117.91 1227.65,-121.62"/>
</g>
<!-- 13&#45;&gt;12 -->
<g id="edge31" class="edge">
<title>13&#45;&gt;12</title>
<path fill="none" stroke="grey" stroke-width="2" d="M1003.89,-359.34C998.92,-352.1 993.05,-343.53 987.51,-335.45"/>
<polygon fill="grey" stroke="grey" stroke-width="2" points="990.53,-333.67 981.99,-327.4 984.76,-337.62 990.53,-333.67"/>
</g>
<!-- 14&#45;&gt;0 -->
<g id="edge12" class="edge">
<title>14&#45;&gt;0</title>
<path fill="none" stroke="grey" stroke-width="2" d="M1371,-143.25C1352.65,-122.75 1319.6,-89.61 1284,-72 1212.01,-36.4 1117.5,-24.71 1064.53,-20.87"/>
<polygon fill="grey" stroke="grey" stroke-width="2" points="1064.9,-17.39 1054.7,-20.23 1064.45,-24.37 1064.9,-17.39"/>
</g>
<!-- 14&#45;&gt;24 -->
<g id="edge54" class="edge">
<title>14&#45;&gt;24</title>
<path fill="none" stroke="grey" stroke-width="2" d="M1349.29,-143.15C1330.43,-133.99 1307.28,-122.73 1287.32,-113.03"/>
<polygon fill="grey" stroke="grey" stroke-width="2" points="1288.93,-109.92 1278.4,-108.7 1285.87,-116.22 1288.93,-109.92"/>
</g>
<!-- 15&#45;&gt;0 -->
<g id="edge14" class="edge">
<title>15&#45;&gt;0</title>
<path fill="none" stroke="grey" stroke-width="2" d="M563.36,-215.06C546.74,-207.09 530.69,-195.81 521,-180 512.64,-166.36 512.51,-157.56 521,-144 570.71,-64.54 872.57,-31.63 983.31,-22.13"/>
<polygon fill="grey" stroke="grey" stroke-width="2" points="983.45,-25.63 993.12,-21.31 982.87,-18.65 983.45,-25.63"/>
</g>
<!-- 21 -->
<g id="node22" class="node">
<title>21</title>
<path fill="none" stroke="#566bd8" stroke-width="2" d="M699.88,-180C699.88,-180 542.12,-180 542.12,-180 536.12,-180 530.12,-174 530.12,-168 530.12,-168 530.12,-156 530.12,-156 530.12,-150 536.12,-144 542.12,-144 542.12,-144 699.88,-144 699.88,-144 705.88,-144 711.88,-150 711.88,-156 711.88,-156 711.88,-168 711.88,-168 711.88,-174 705.88,-180 699.88,-180"/>
<text text-anchor="middle" x="621" y="-158.12" font-family="sans" font-size="10.00">run_merge_gene_tpms_numbered_chr</text>
</g>
<!-- 15&#45;&gt;21 -->
<g id="edge41" class="edge">
<title>15&#45;&gt;21</title>
<path fill="none" stroke="grey" stroke-width="2" d="M623.99,-215.34C623.61,-208.75 623.18,-201.08 622.75,-193.67"/>
<polygon fill="grey" stroke="grey" stroke-width="2" points="626.26,-193.71 622.2,-183.92 619.27,-194.11 626.26,-193.71"/>
</g>
<!-- 15&#45;&gt;24 -->
<g id="edge56" class="edge">
<title>15&#45;&gt;24</title>
<path fill="none" stroke="grey" stroke-width="2" d="M709.32,-227.41C846.88,-217.84 1108.19,-197.66 1147,-180 1155.21,-176.27 1190.11,-142.59 1215.23,-117.76"/>
<polygon fill="grey" stroke="grey" stroke-width="2" points="1217.52,-120.42 1222.15,-110.89 1212.59,-115.45 1217.52,-120.42"/>
</g>
<!-- 16&#45;&gt;0 -->
<g id="edge15" class="edge">
<title>16&#45;&gt;0</title>
<path fill="none" stroke="grey" stroke-width="2" d="M854.57,-143.02C888.68,-118.05 950.55,-72.76 989.34,-44.37"/>
<polygon fill="grey" stroke="grey" stroke-width="2" points="991.18,-47.36 997.19,-38.63 987.05,-41.71 991.18,-47.36"/>
</g>
<!-- 16&#45;&gt;24 -->
<g id="edge57" class="edge">
<title>16&#45;&gt;24</title>
<path fill="none" stroke="grey" stroke-width="2" d="M892.66,-145.71C895.47,-145.11 898.26,-144.54 901,-144 1005.49,-123.41 1129.28,-105.86 1195.19,-97.06"/>
<polygon fill="grey" stroke="grey" stroke-width="2" points="1195.51,-100.54 1204.96,-95.76 1194.59,-93.6 1195.51,-100.54"/>
</g>
<!-- 17&#45;&gt;0 -->
<g id="edge18" class="edge">
<title>17&#45;&gt;0</title>
<path fill="none" stroke="grey" stroke-width="2" d="M1605.25,-229.43C1720.04,-222.72 1941.6,-206.47 1965,-180 1975.6,-168.01 1975.26,-156.28 1965,-144 1906.17,-73.58 1237.47,-31.08 1064.59,-21.22"/>
<polygon fill="grey" stroke="grey" stroke-width="2" points="1064.87,-17.73 1054.68,-20.66 1064.47,-24.72 1064.87,-17.73"/>
</g>
<!-- 18 -->
<g id="node19" class="node">
<title>18</title>
<path fill="none" stroke="#a7d856" stroke-width="2" d="M1583.88,-180C1583.88,-180 1456.12,-180 1456.12,-180 1450.12,-180 1444.12,-174 1444.12,-168 1444.12,-168 1444.12,-156 1444.12,-156 1444.12,-150 1450.12,-144 1456.12,-144 1456.12,-144 1583.88,-144 1583.88,-144 1589.88,-144 1595.88,-150 1595.88,-156 1595.88,-156 1595.88,-168 1595.88,-168 1595.88,-174 1589.88,-180 1583.88,-180"/>
<text text-anchor="middle" x="1520" y="-158.12" font-family="sans" font-size="10.00">run_convert_interact_to_bigbed</text>
</g>
<!-- 17&#45;&gt;18 -->
<g id="edge38" class="edge">
<title>17&#45;&gt;18</title>
<path fill="none" stroke="grey" stroke-width="2" d="M1532.71,-215.34C1531.09,-208.67 1529.2,-200.89 1527.38,-193.39"/>
<polygon fill="grey" stroke="grey" stroke-width="2" points="1530.82,-192.73 1525.06,-183.84 1524.02,-194.39 1530.82,-192.73"/>
</g>
<!-- 17&#45;&gt;24 -->
<g id="edge60" class="edge">
<title>17&#45;&gt;24</title>
<path fill="none" stroke="grey" stroke-width="2" d="M1468.56,-223.48C1428.39,-215.84 1377.69,-202.54 1337,-180 1321.78,-171.57 1290.49,-141.07 1267.98,-118.11"/>
<polygon fill="grey" stroke="grey" stroke-width="2" points="1270.53,-115.72 1261.05,-110.99 1265.51,-120.6 1270.53,-115.72"/>
</g>
<!-- 18&#45;&gt;0 -->
<g id="edge8" class="edge">
<title>18&#45;&gt;0</title>
<path fill="none" stroke="grey" stroke-width="2" d="M1487.18,-143.1C1448.86,-122.94 1383.06,-90.57 1323,-72 1232.82,-44.12 1122.52,-29.31 1064.36,-22.93"/>
<polygon fill="grey" stroke="grey" stroke-width="2" points="1065.07,-19.49 1054.76,-21.91 1064.33,-26.45 1065.07,-19.49"/>
</g>
<!-- 18&#45;&gt;24 -->
<g id="edge50" class="edge">
<title>18&#45;&gt;24</title>
<path fill="none" stroke="grey" stroke-width="2" d="M1448.77,-143.06C1398.36,-130.37 1332.21,-113.72 1288.47,-102.7"/>
<polygon fill="grey" stroke="grey" stroke-width="2" points="1289.42,-99.33 1278.86,-100.28 1287.71,-106.12 1289.42,-99.33"/>
</g>
<!-- 19&#45;&gt;0 -->
<g id="edge19" class="edge">
<title>19&#45;&gt;0</title>
<path fill="none" stroke="grey" stroke-width="2" d="M1630.39,-143.07C1570.59,-123.25 1469.74,-91.56 1381,-72 1267.37,-46.95 1130.73,-30.35 1064.27,-23.13"/>
<polygon fill="grey" stroke="grey" stroke-width="2" points="1064.88,-19.67 1054.57,-22.09 1064.14,-26.63 1064.88,-19.67"/>
</g>
<!-- 19&#45;&gt;24 -->
<g id="edge61" class="edge">
<title>19&#45;&gt;24</title>
<path fill="none" stroke="grey" stroke-width="2" d="M1613.31,-145.56C1610.5,-145.02 1607.73,-144.5 1605,-144 1491.68,-123.4 1357.31,-105.46 1288.19,-96.7"/>
<polygon fill="grey" stroke="grey" stroke-width="2" points="1289.02,-93.27 1278.66,-95.5 1288.15,-100.22 1289.02,-93.27"/>
</g>
<!-- 20&#45;&gt;0 -->
<g id="edge5" class="edge">
<title>20&#45;&gt;0</title>
<path fill="none" stroke="grey" stroke-width="2" d="M2336.91,-143.18C2284.57,-121.94 2191.98,-87.41 2109,-72 1902.74,-33.7 1235.55,-21.94 1064.34,-19.52"/>
<polygon fill="grey" stroke="grey" stroke-width="2" points="1064.61,-16.02 1054.56,-19.38 1064.51,-23.02 1064.61,-16.02"/>
</g>
<!-- 20&#45;&gt;24 -->
<g id="edge47" class="edge">
<title>20&#45;&gt;24</title>
<path fill="none" stroke="grey" stroke-width="2" d="M2320.83,-145.34C2318.19,-144.84 2315.57,-144.39 2313,-144 2110.98,-113.31 1467.92,-96.28 1288.74,-92.05"/>
<polygon fill="grey" stroke="grey" stroke-width="2" points="1289.04,-88.56 1278.96,-91.82 1288.88,-95.56 1289.04,-88.56"/>
</g>
<!-- 21&#45;&gt;0 -->
<g id="edge21" class="edge">
<title>21&#45;&gt;0</title>
<path fill="none" stroke="grey" stroke-width="2" d="M636.48,-143.1C655.4,-122.47 689.45,-89.19 726,-72 811.59,-31.75 924.12,-21.9 983.41,-19.6"/>
<polygon fill="grey" stroke="grey" stroke-width="2" points="983.35,-23.1 993.24,-19.28 983.13,-16.11 983.35,-23.1"/>
</g>
<!-- 21&#45;&gt;24 -->
<g id="edge63" class="edge">
<title>21&#45;&gt;24</title>
<path fill="none" stroke="grey" stroke-width="2" d="M712.65,-149.54C728.12,-147.65 744.01,-145.75 759,-144 918.87,-125.38 1108.72,-105.08 1195.07,-95.94"/>
<polygon fill="grey" stroke="grey" stroke-width="2" points="1195.43,-99.42 1205.01,-94.89 1194.7,-92.46 1195.43,-99.42"/>
</g>
<!-- 22 -->
<g id="node23" class="node">
<title>22</title>
<path fill="none" stroke="#56c1d8" stroke-width="2" d="M1126.12,-180C1126.12,-180 921.88,-180 921.88,-180 915.88,-180 909.88,-174 909.88,-168 909.88,-168 909.88,-156 909.88,-156 909.88,-150 915.88,-144 921.88,-144 921.88,-144 1126.12,-144 1126.12,-144 1132.12,-144 1138.12,-150 1138.12,-156 1138.12,-156 1138.12,-168 1138.12,-168 1138.12,-174 1132.12,-180 1126.12,-180"/>
<text text-anchor="middle" x="1024" y="-158.12" font-family="sans" font-size="10.00">run_merge_gene_tpms_numbered_downsampled</text>
</g>
<!-- 22&#45;&gt;0 -->
<g id="edge17" class="edge">
<title>22&#45;&gt;0</title>
<path fill="none" stroke="grey" stroke-width="2" d="M1024,-143.02C1024,-119.54 1024,-78.11 1024,-49.64"/>
<polygon fill="grey" stroke="grey" stroke-width="2" points="1027.5,-49.87 1024,-39.87 1020.5,-49.87 1027.5,-49.87"/>
</g>
<!-- 22&#45;&gt;24 -->
<g id="edge59" class="edge">
<title>22&#45;&gt;24</title>
<path fill="none" stroke="grey" stroke-width="2" d="M1079.86,-143.06C1115.77,-131.53 1161.86,-116.73 1195.72,-105.86"/>
<polygon fill="grey" stroke="grey" stroke-width="2" points="1196.72,-109.22 1205.17,-102.83 1194.57,-102.55 1196.72,-109.22"/>
</g>
<!-- 23&#45;&gt;22 -->
<g id="edge42" class="edge">
<title>23&#45;&gt;22</title>
<path fill="none" stroke="grey" stroke-width="2" d="M1008.3,-215.34C1010.32,-208.59 1012.69,-200.69 1014.97,-193.11"/>
<polygon fill="grey" stroke="grey" stroke-width="2" points="1018.24,-194.39 1017.76,-183.8 1011.53,-192.37 1018.24,-194.39"/>
</g>
<!-- 24&#45;&gt;0 -->
<g id="edge3" class="edge">
<title>24&#45;&gt;0</title>
<path fill="none" stroke="grey" stroke-width="2" d="M1207.94,-78.06C1169.06,-65.58 1105.53,-45.18 1064.25,-31.92"/>
<polygon fill="grey" stroke="grey" stroke-width="2" points="1065.42,-28.62 1054.82,-28.9 1063.28,-35.29 1065.42,-28.62"/>
</g>
</g>
</svg>
