<?xml version="1.0" encoding="UTF-8" standalone="no"?>
<!DOCTYPE svg PUBLIC "-//W3C//DTD SVG 1.1//EN"
 "http://www.w3.org/Graphics/SVG/1.1/DTD/svg11.dtd">
<!-- Generated by graphviz version 2.47.0 (0)
 -->
<!-- Title: snakemake_dag Pages: 1 -->
<svg width="213pt" height="260pt"
 viewBox="0.00 0.00 212.78 260.00" xmlns="http://www.w3.org/2000/svg" xmlns:xlink="http://www.w3.org/1999/xlink">
<g id="graph0" class="graph" transform="scale(1 1) rotate(0) translate(4 256)">
<title>snakemake_dag</title>
<polygon fill="white" stroke="transparent" points="-4,4 -4,-256 208.78,-256 208.78,4 -4,4"/>
<!-- 0 -->
<g id="node1" class="node">
<title>0</title>
<path fill="none" stroke="#56c1d8" stroke-width="2" d="M52.78,-36C52.78,-36 22.78,-36 22.78,-36 16.78,-36 10.78,-30 10.78,-24 10.78,-24 10.78,-12 10.78,-12 10.78,-6 16.78,0 22.78,0 22.78,0 52.78,0 52.78,0 58.78,0 64.78,-6 64.78,-12 64.78,-12 64.78,-24 64.78,-24 64.78,-30 58.78,-36 52.78,-36"/>
<text text-anchor="middle" x="37.78" y="-15.5" font-family="sans" font-size="10.00">all</text>
</g>
<!-- 1 -->
<g id="node2" class="node">
<title>1</title>
<path fill="none" stroke="#d8bc56" stroke-width="2" d="M61.28,-252C61.28,-252 30.28,-252 30.28,-252 24.28,-252 18.28,-246 18.28,-240 18.28,-240 18.28,-228 18.28,-228 18.28,-222 24.28,-216 30.28,-216 30.28,-216 61.28,-216 61.28,-216 67.28,-216 73.28,-222 73.28,-228 73.28,-228 73.28,-240 73.28,-240 73.28,-246 67.28,-252 61.28,-252"/>
<text text-anchor="middle" x="45.78" y="-231.5" font-family="sans" font-size="10.00">trimming</text>
</g>
<!-- 1&#45;&gt;0 -->
<g id="edge2" class="edge">
<title>1&#45;&gt;0</title>
<path fill="none" stroke="grey" stroke-width="2" d="M30.17,-215.77C22.41,-206.03 13.84,-193.18 9.78,-180 -4.33,-134.12 -1.77,-118.59 9.78,-72 12.07,-62.75 16.31,-53.34 20.8,-45.07"/>
<polygon fill="grey" stroke="grey" stroke-width="2" points="23.91,-46.68 25.89,-36.28 17.85,-43.17 23.91,-46.68"/>
</g>
<!-- 2 -->
<g id="node3" class="node">
<title>2</title>
<path fill="none" stroke="#d85656" stroke-width="2" d="M60.78,-180C60.78,-180 30.78,-180 30.78,-180 24.78,-180 18.78,-174 18.78,-168 18.78,-168 18.78,-156 18.78,-156 18.78,-150 24.78,-144 30.78,-144 30.78,-144 60.78,-144 60.78,-144 66.78,-144 72.78,-150 72.78,-156 72.78,-156 72.78,-168 72.78,-168 72.78,-174 66.78,-180 60.78,-180"/>
<text text-anchor="middle" x="45.78" y="-159.5" font-family="sans" font-size="10.00">align</text>
</g>
<!-- 1&#45;&gt;2 -->
<g id="edge5" class="edge">
<title>1&#45;&gt;2</title>
<path fill="none" stroke="grey" stroke-width="2" d="M45.78,-215.7C45.78,-207.98 45.78,-198.71 45.78,-190.11"/>
<polygon fill="grey" stroke="grey" stroke-width="2" points="49.28,-190.1 45.78,-180.1 42.28,-190.1 49.28,-190.1"/>
</g>
<!-- 3 -->
<g id="node4" class="node">
<title>3</title>
<path fill="none" stroke="#88d856" stroke-width="2" d="M192.78,-108C192.78,-108 162.78,-108 162.78,-108 156.78,-108 150.78,-102 150.78,-96 150.78,-96 150.78,-84 150.78,-84 150.78,-78 156.78,-72 162.78,-72 162.78,-72 192.78,-72 192.78,-72 198.78,-72 204.78,-78 204.78,-84 204.78,-84 204.78,-96 204.78,-96 204.78,-102 198.78,-108 192.78,-108"/>
<text text-anchor="middle" x="177.78" y="-87.5" font-family="sans" font-size="10.00">salmon</text>
</g>
<!-- 1&#45;&gt;3 -->
<g id="edge6" class="edge">
<title>1&#45;&gt;3</title>
<path fill="none" stroke="grey" stroke-width="2" d="M61.7,-215.87C84.89,-190.92 128.1,-144.45 154.75,-115.77"/>
<polygon fill="grey" stroke="grey" stroke-width="2" points="157.56,-117.9 161.8,-108.19 152.43,-113.13 157.56,-117.9"/>
</g>
<!-- 2&#45;&gt;0 -->
<g id="edge1" class="edge">
<title>2&#45;&gt;0</title>
<path fill="none" stroke="grey" stroke-width="2" d="M33.06,-143.85C26.5,-133.92 19.18,-120.88 15.78,-108 11.71,-92.53 12.65,-87.69 15.78,-72 17.57,-63.01 20.92,-53.64 24.47,-45.32"/>
<polygon fill="grey" stroke="grey" stroke-width="2" points="27.7,-46.67 28.65,-36.12 21.33,-43.77 27.7,-46.67"/>
</g>
<!-- 4 -->
<g id="node5" class="node">
<title>4</title>
<path fill="none" stroke="#56d88a" stroke-width="2" d="M120.28,-108C120.28,-108 37.28,-108 37.28,-108 31.28,-108 25.28,-102 25.28,-96 25.28,-96 25.28,-84 25.28,-84 25.28,-78 31.28,-72 37.28,-72 37.28,-72 120.28,-72 120.28,-72 126.28,-72 132.28,-78 132.28,-84 132.28,-84 132.28,-96 132.28,-96 132.28,-102 126.28,-108 120.28,-108"/>
<text text-anchor="middle" x="78.78" y="-87.5" font-family="sans" font-size="10.00">bamCoverage_CPM</text>
</g>
<!-- 2&#45;&gt;4 -->
<g id="edge7" class="edge">
<title>2&#45;&gt;4</title>
<path fill="none" stroke="grey" stroke-width="2" d="M53.94,-143.7C57.7,-135.73 62.23,-126.1 66.4,-117.26"/>
<polygon fill="grey" stroke="grey" stroke-width="2" points="69.62,-118.64 70.72,-108.1 63.29,-115.66 69.62,-118.64"/>
</g>
<!-- 3&#45;&gt;0 -->
<g id="edge4" class="edge">
<title>3&#45;&gt;0</title>
<path fill="none" stroke="grey" stroke-width="2" d="M150.46,-75.34C128.68,-64.45 97.99,-49.1 74.14,-37.18"/>
<polygon fill="grey" stroke="grey" stroke-width="2" points="75.55,-33.97 65.04,-32.63 72.42,-40.23 75.55,-33.97"/>
</g>
<!-- 4&#45;&gt;0 -->
<g id="edge3" class="edge">
<title>4&#45;&gt;0</title>
<path fill="none" stroke="grey" stroke-width="2" d="M68.65,-71.7C63.93,-63.64 58.22,-53.89 53,-44.98"/>
<polygon fill="grey" stroke="grey" stroke-width="2" points="55.87,-42.96 47.8,-36.1 49.83,-46.5 55.87,-42.96"/>
</g>
</g>
</svg>
