<?xml version="1.0" encoding="UTF-8" standalone="no"?>
<!DOCTYPE svg PUBLIC "-//W3C//DTD SVG 1.1//EN"
 "http://www.w3.org/Graphics/SVG/1.1/DTD/svg11.dtd">
<!-- Generated by graphviz version 3.0.0 (20220226.1711)
 -->
<!-- Title: snakemake_dag Pages: 1 -->
<svg width="722pt" height="260pt"
 viewBox="0.00 0.00 721.79 260.00" xmlns="http://www.w3.org/2000/svg" xmlns:xlink="http://www.w3.org/1999/xlink">
<g id="graph0" class="graph" transform="scale(1 1) rotate(0) translate(4 256)">
<title>snakemake_dag</title>
<polygon fill="white" stroke="transparent" points="-4,4 -4,-256 717.79,-256 717.79,4 -4,4"/>
<!-- 0 -->
<g id="node1" class="node">
<title>0</title>
<path fill="none" stroke="#56d892" stroke-width="2" d="M199.79,-36C199.79,-36 169.79,-36 169.79,-36 163.79,-36 157.79,-30 157.79,-24 157.79,-24 157.79,-12 157.79,-12 157.79,-6 163.79,0 169.79,0 169.79,0 199.79,0 199.79,0 205.79,0 211.79,-6 211.79,-12 211.79,-12 211.79,-24 211.79,-24 211.79,-30 205.79,-36 199.79,-36"/>
<text text-anchor="middle" x="184.79" y="-15.5" font-family="sans" font-size="10.00">all</text>
</g>
<!-- 1 -->
<g id="node2" class="node">
<title>1</title>
<path fill="none" stroke="#b6d856" stroke-width="2" d="M91.79,-252C91.79,-252 61.79,-252 61.79,-252 55.79,-252 49.79,-246 49.79,-240 49.79,-240 49.79,-228 49.79,-228 49.79,-222 55.79,-216 61.79,-216 61.79,-216 91.79,-216 91.79,-216 97.79,-216 103.79,-222 103.79,-228 103.79,-228 103.79,-240 103.79,-240 103.79,-246 97.79,-252 91.79,-252"/>
<text text-anchor="middle" x="76.79" y="-231.5" font-family="sans" font-size="10.00">trimming</text>
</g>
<!-- 1&#45;&gt;0 -->
<g id="edge3" class="edge">
<title>1&#45;&gt;0</title>
<path fill="none" stroke="grey" stroke-width="2" d="M49.71,-221.01C33.46,-212.21 14.17,-198.56 4.79,-180 -2.43,-165.72 0.08,-159.29 4.79,-144 16.18,-107.01 23.66,-96.3 53.79,-72 81.42,-49.71 119.68,-35.68 147.72,-27.7"/>
<polygon fill="grey" stroke="grey" stroke-width="2" points="148.81,-31.03 157.54,-25.03 146.98,-24.27 148.81,-31.03"/>
</g>
<!-- 2 -->
<g id="node3" class="node">
<title>2</title>
<path fill="none" stroke="#d8a456" stroke-width="2" d="M55.79,-180C55.79,-180 25.79,-180 25.79,-180 19.79,-180 13.79,-174 13.79,-168 13.79,-168 13.79,-156 13.79,-156 13.79,-150 19.79,-144 25.79,-144 25.79,-144 55.79,-144 55.79,-144 61.79,-144 67.79,-150 67.79,-156 67.79,-156 67.79,-168 67.79,-168 67.79,-174 61.79,-180 55.79,-180"/>
<text text-anchor="middle" x="40.79" y="-159.5" font-family="sans" font-size="10.00">fastqc</text>
</g>
<!-- 1&#45;&gt;2 -->
<g id="edge9" class="edge">
<title>1&#45;&gt;2</title>
<path fill="none" stroke="grey" stroke-width="2" d="M67.89,-215.7C63.79,-207.73 58.84,-198.1 54.29,-189.26"/>
<polygon fill="grey" stroke="grey" stroke-width="2" points="57.27,-187.4 49.58,-180.1 51.04,-190.6 57.27,-187.4"/>
</g>
<!-- 3 -->
<g id="node4" class="node">
<title>3</title>
<path fill="none" stroke="#8fd856" stroke-width="2" d="M127.79,-180C127.79,-180 97.79,-180 97.79,-180 91.79,-180 85.79,-174 85.79,-168 85.79,-168 85.79,-156 85.79,-156 85.79,-150 91.79,-144 97.79,-144 97.79,-144 127.79,-144 127.79,-144 133.79,-144 139.79,-150 139.79,-156 139.79,-156 139.79,-168 139.79,-168 139.79,-174 133.79,-180 127.79,-180"/>
<text text-anchor="middle" x="112.79" y="-159.5" font-family="sans" font-size="10.00">salmon</text>
</g>
<!-- 1&#45;&gt;3 -->
<g id="edge10" class="edge">
<title>1&#45;&gt;3</title>
<path fill="none" stroke="grey" stroke-width="2" d="M85.69,-215.7C89.78,-207.73 94.74,-198.1 99.28,-189.26"/>
<polygon fill="grey" stroke="grey" stroke-width="2" points="102.53,-190.6 103.99,-180.1 96.3,-187.4 102.53,-190.6"/>
</g>
<!-- 5 -->
<g id="node6" class="node">
<title>5</title>
<path fill="none" stroke="#d85656" stroke-width="2" d="M317.79,-180C317.79,-180 287.79,-180 287.79,-180 281.79,-180 275.79,-174 275.79,-168 275.79,-168 275.79,-156 275.79,-156 275.79,-150 281.79,-144 287.79,-144 287.79,-144 317.79,-144 317.79,-144 323.79,-144 329.79,-150 329.79,-156 329.79,-156 329.79,-168 329.79,-168 329.79,-174 323.79,-180 317.79,-180"/>
<text text-anchor="middle" x="302.79" y="-159.5" font-family="sans" font-size="10.00">align</text>
</g>
<!-- 1&#45;&gt;5 -->
<g id="edge12" class="edge">
<title>1&#45;&gt;5</title>
<path fill="none" stroke="grey" stroke-width="2" d="M104.05,-224.56C144.54,-212.01 220.67,-188.43 266.04,-174.38"/>
<polygon fill="grey" stroke="grey" stroke-width="2" points="267.26,-177.67 275.78,-171.36 265.19,-170.98 267.26,-177.67"/>
</g>
<!-- 2&#45;&gt;0 -->
<g id="edge2" class="edge">
<title>2&#45;&gt;0</title>
<path fill="none" stroke="grey" stroke-width="2" d="M44.54,-143.98C49.59,-124.48 60.3,-92.58 79.79,-72 98.38,-52.37 125.83,-38.87 148,-30.4"/>
<polygon fill="grey" stroke="grey" stroke-width="2" points="149.24,-33.68 157.45,-26.98 146.85,-27.1 149.24,-33.68"/>
</g>
<!-- 3&#45;&gt;0 -->
<g id="edge4" class="edge">
<title>3&#45;&gt;0</title>
<path fill="none" stroke="grey" stroke-width="2" d="M100.76,-143.88C89.22,-125.14 75.37,-94.74 88.79,-72 101.54,-50.39 126.61,-36.98 147.94,-29.06"/>
<polygon fill="grey" stroke="grey" stroke-width="2" points="149.1,-32.36 157.41,-25.8 146.82,-25.74 149.1,-32.36"/>
</g>
<!-- 4 -->
<g id="node5" class="node">
<title>4</title>
<path fill="none" stroke="#56d0d8" stroke-width="2" d="M155.79,-108C155.79,-108 109.79,-108 109.79,-108 103.79,-108 97.79,-102 97.79,-96 97.79,-96 97.79,-84 97.79,-84 97.79,-78 103.79,-72 109.79,-72 109.79,-72 155.79,-72 155.79,-72 161.79,-72 167.79,-78 167.79,-84 167.79,-84 167.79,-96 167.79,-96 167.79,-102 161.79,-108 155.79,-108"/>
<text text-anchor="middle" x="132.79" y="-87.5" font-family="sans" font-size="10.00">run_regtools</text>
</g>
<!-- 4&#45;&gt;0 -->
<g id="edge6" class="edge">
<title>4&#45;&gt;0</title>
<path fill="none" stroke="grey" stroke-width="2" d="M145.64,-71.7C151.81,-63.39 159.32,-53.28 166.11,-44.14"/>
<polygon fill="grey" stroke="grey" stroke-width="2" points="168.93,-46.22 172.08,-36.1 163.31,-42.04 168.93,-46.22"/>
</g>
<!-- 5&#45;&gt;4 -->
<g id="edge11" class="edge">
<title>5&#45;&gt;4</title>
<path fill="none" stroke="grey" stroke-width="2" d="M275.47,-149.75C249.02,-138.86 208.45,-122.16 177.33,-109.34"/>
<polygon fill="grey" stroke="grey" stroke-width="2" points="178.58,-106.07 168,-105.5 175.91,-112.54 178.58,-106.07"/>
</g>
<!-- 6 -->
<g id="node7" class="node">
<title>6</title>
<path fill="none" stroke="#d8cb56" stroke-width="2" d="M275.29,-108C275.29,-108 198.29,-108 198.29,-108 192.29,-108 186.29,-102 186.29,-96 186.29,-96 186.29,-84 186.29,-84 186.29,-78 192.29,-72 198.29,-72 198.29,-72 275.29,-72 275.29,-72 281.29,-72 287.29,-78 287.29,-84 287.29,-84 287.29,-96 287.29,-96 287.29,-102 281.29,-108 275.29,-108"/>
<text text-anchor="middle" x="236.79" y="-87.5" font-family="sans" font-size="10.00">run_TPMCalculator</text>
</g>
<!-- 5&#45;&gt;6 -->
<g id="edge13" class="edge">
<title>5&#45;&gt;6</title>
<path fill="none" stroke="grey" stroke-width="2" d="M286.47,-143.7C278.48,-135.22 268.72,-124.86 259.96,-115.58"/>
<polygon fill="grey" stroke="grey" stroke-width="2" points="262.32,-112.98 252.91,-108.1 257.23,-117.78 262.32,-112.98"/>
</g>
<!-- 7 -->
<g id="node8" class="node">
<title>7</title>
<path fill="none" stroke="#567bd8" stroke-width="2" d="M421.79,-108C421.79,-108 317.79,-108 317.79,-108 311.79,-108 305.79,-102 305.79,-96 305.79,-96 305.79,-84 305.79,-84 305.79,-78 311.79,-72 317.79,-72 317.79,-72 421.79,-72 421.79,-72 427.79,-72 433.79,-78 433.79,-84 433.79,-84 433.79,-96 433.79,-96 433.79,-102 427.79,-108 421.79,-108"/>
<text text-anchor="middle" x="369.79" y="-87.5" font-family="sans" font-size="10.00">run_bam_selected_genes</text>
</g>
<!-- 5&#45;&gt;7 -->
<g id="edge14" class="edge">
<title>5&#45;&gt;7</title>
<path fill="none" stroke="grey" stroke-width="2" d="M319.35,-143.7C327.46,-135.22 337.37,-124.86 346.26,-115.58"/>
<polygon fill="grey" stroke="grey" stroke-width="2" points="349.03,-117.75 353.42,-108.1 343.97,-112.91 349.03,-117.75"/>
</g>
<!-- 8 -->
<g id="node9" class="node">
<title>8</title>
<path fill="none" stroke="#56a9d8" stroke-width="2" d="M545.29,-108C545.29,-108 464.29,-108 464.29,-108 458.29,-108 452.29,-102 452.29,-96 452.29,-96 452.29,-84 452.29,-84 452.29,-78 458.29,-72 464.29,-72 464.29,-72 545.29,-72 545.29,-72 551.29,-72 557.29,-78 557.29,-84 557.29,-84 557.29,-96 557.29,-96 557.29,-102 551.29,-108 545.29,-108"/>
<text text-anchor="middle" x="504.79" y="-87.5" font-family="sans" font-size="10.00">bamCoverage_CPM</text>
</g>
<!-- 5&#45;&gt;8 -->
<g id="edge15" class="edge">
<title>5&#45;&gt;8</title>
<path fill="none" stroke="grey" stroke-width="2" d="M330.03,-151.56C359.61,-141.31 407.76,-124.62 446.04,-111.36"/>
<polygon fill="grey" stroke="grey" stroke-width="2" points="447.24,-114.65 455.54,-108.07 444.94,-108.03 447.24,-114.65"/>
</g>
<!-- 9 -->
<g id="node10" class="node">
<title>9</title>
<path fill="none" stroke="#56d86b" stroke-width="2" d="M701.79,-108C701.79,-108 587.79,-108 587.79,-108 581.79,-108 575.79,-102 575.79,-96 575.79,-96 575.79,-84 575.79,-84 575.79,-78 581.79,-72 587.79,-72 587.79,-72 701.79,-72 701.79,-72 707.79,-72 713.79,-78 713.79,-84 713.79,-84 713.79,-96 713.79,-96 713.79,-102 707.79,-108 701.79,-108"/>
<text text-anchor="middle" x="644.79" y="-87.5" font-family="sans" font-size="10.00">run_merge_junctions_STAR</text>
</g>
<!-- 5&#45;&gt;9 -->
<g id="edge16" class="edge">
<title>5&#45;&gt;9</title>
<path fill="none" stroke="grey" stroke-width="2" d="M329.8,-155.73C375.94,-146.69 473.16,-127.51 565.41,-108.27"/>
<polygon fill="grey" stroke="grey" stroke-width="2" points="566.4,-111.64 575.48,-106.17 564.97,-104.79 566.4,-111.64"/>
</g>
<!-- 6&#45;&gt;0 -->
<g id="edge1" class="edge">
<title>6&#45;&gt;0</title>
<path fill="none" stroke="grey" stroke-width="2" d="M223.93,-71.7C217.76,-63.39 210.25,-53.28 203.46,-44.14"/>
<polygon fill="grey" stroke="grey" stroke-width="2" points="206.27,-42.04 197.49,-36.1 200.65,-46.22 206.27,-42.04"/>
</g>
<!-- 7&#45;&gt;0 -->
<g id="edge8" class="edge">
<title>7&#45;&gt;0</title>
<path fill="none" stroke="grey" stroke-width="2" d="M324.53,-71.88C292.82,-59.88 250.97,-44.04 221.36,-32.84"/>
<polygon fill="grey" stroke="grey" stroke-width="2" points="222.42,-29.5 211.83,-29.23 219.94,-36.04 222.42,-29.5"/>
</g>
<!-- 8&#45;&gt;0 -->
<g id="edge7" class="edge">
<title>8&#45;&gt;0</title>
<path fill="none" stroke="grey" stroke-width="2" d="M452.08,-74.3C448.94,-73.5 445.83,-72.73 442.79,-72 364.74,-53.3 272.44,-35.33 222.11,-25.88"/>
<polygon fill="grey" stroke="grey" stroke-width="2" points="222.5,-22.39 212.03,-23.99 221.22,-29.27 222.5,-22.39"/>
</g>
<!-- 9&#45;&gt;0 -->
<g id="edge5" class="edge">
<title>9&#45;&gt;0</title>
<path fill="none" stroke="grey" stroke-width="2" d="M575.52,-73.61C572.57,-73.05 569.65,-72.51 566.79,-72 441.33,-49.66 291.28,-31.24 222.55,-23.26"/>
<polygon fill="grey" stroke="grey" stroke-width="2" points="222.56,-19.74 212.23,-22.07 221.76,-26.7 222.56,-19.74"/>
</g>
</g>
</svg>
