<?xml version="1.0" encoding="UTF-8" standalone="no"?>
<!DOCTYPE svg PUBLIC "-//W3C//DTD SVG 1.1//EN"
 "http://www.w3.org/Graphics/SVG/1.1/DTD/svg11.dtd">
<!-- Generated by graphviz version 3.0.0 (20220226.1711)
 -->
<!-- Title: snakemake_dag Pages: 1 -->
<svg width="565pt" height="260pt"
 viewBox="0.00 0.00 565.37 260.00" xmlns="http://www.w3.org/2000/svg" xmlns:xlink="http://www.w3.org/1999/xlink">
<g id="graph0" class="graph" transform="scale(1 1) rotate(0) translate(4 256)">
<title>snakemake_dag</title>
<polygon fill="white" stroke="transparent" points="-4,4 -4,-256 561.37,-256 561.37,4 -4,4"/>
<!-- 0 -->
<g id="node1" class="node">
<title>0</title>
<path fill="none" stroke="#d8ac56" stroke-width="2" d="M147.87,-36C147.87,-36 117.87,-36 117.87,-36 111.87,-36 105.87,-30 105.87,-24 105.87,-24 105.87,-12 105.87,-12 105.87,-6 111.87,0 117.87,0 117.87,0 147.87,0 147.87,0 153.87,0 159.87,-6 159.87,-12 159.87,-12 159.87,-24 159.87,-24 159.87,-30 153.87,-36 147.87,-36"/>
<text text-anchor="middle" x="132.87" y="-15.5" font-family="sans" font-size="10.00">all</text>
</g>
<!-- 1 -->
<g id="node2" class="node">
<title>1</title>
<path fill="none" stroke="#d88556" stroke-width="2" d="M91.87,-252C91.87,-252 61.87,-252 61.87,-252 55.87,-252 49.87,-246 49.87,-240 49.87,-240 49.87,-228 49.87,-228 49.87,-222 55.87,-216 61.87,-216 61.87,-216 91.87,-216 91.87,-216 97.87,-216 103.87,-222 103.87,-228 103.87,-228 103.87,-240 103.87,-240 103.87,-246 97.87,-252 91.87,-252"/>
<text text-anchor="middle" x="76.87" y="-231.5" font-family="sans" font-size="10.00">trimming</text>
</g>
<!-- 1&#45;&gt;0 -->
<g id="edge2" class="edge">
<title>1&#45;&gt;0</title>
<path fill="none" stroke="grey" stroke-width="2" d="M49.8,-221.01C33.55,-212.21 14.26,-198.56 4.87,-180 -2.34,-165.72 -0.19,-159.18 4.87,-144 20.27,-97.81 64.81,-61.32 97.02,-39.96"/>
<polygon fill="grey" stroke="grey" stroke-width="2" points="99.24,-42.7 105.75,-34.35 95.45,-36.82 99.24,-42.7"/>
</g>
<!-- 2 -->
<g id="node3" class="node">
<title>2</title>
<path fill="none" stroke="#d85656" stroke-width="2" d="M55.87,-180C55.87,-180 25.87,-180 25.87,-180 19.87,-180 13.87,-174 13.87,-168 13.87,-168 13.87,-156 13.87,-156 13.87,-150 19.87,-144 25.87,-144 25.87,-144 55.87,-144 55.87,-144 61.87,-144 67.87,-150 67.87,-156 67.87,-156 67.87,-168 67.87,-168 67.87,-174 61.87,-180 55.87,-180"/>
<text text-anchor="middle" x="40.87" y="-159.5" font-family="sans" font-size="10.00">fastqc</text>
</g>
<!-- 1&#45;&gt;2 -->
<g id="edge8" class="edge">
<title>1&#45;&gt;2</title>
<path fill="none" stroke="grey" stroke-width="2" d="M67.98,-215.7C63.88,-207.73 58.93,-198.1 54.38,-189.26"/>
<polygon fill="grey" stroke="grey" stroke-width="2" points="57.36,-187.4 49.67,-180.1 51.13,-190.6 57.36,-187.4"/>
</g>
<!-- 3 -->
<g id="node4" class="node">
<title>3</title>
<path fill="none" stroke="#afd856" stroke-width="2" d="M127.87,-180C127.87,-180 97.87,-180 97.87,-180 91.87,-180 85.87,-174 85.87,-168 85.87,-168 85.87,-156 85.87,-156 85.87,-150 91.87,-144 97.87,-144 97.87,-144 127.87,-144 127.87,-144 133.87,-144 139.87,-150 139.87,-156 139.87,-156 139.87,-168 139.87,-168 139.87,-174 133.87,-180 127.87,-180"/>
<text text-anchor="middle" x="112.87" y="-159.5" font-family="sans" font-size="10.00">salmon</text>
</g>
<!-- 1&#45;&gt;3 -->
<g id="edge9" class="edge">
<title>1&#45;&gt;3</title>
<path fill="none" stroke="grey" stroke-width="2" d="M85.77,-215.7C89.87,-207.73 94.82,-198.1 99.37,-189.26"/>
<polygon fill="grey" stroke="grey" stroke-width="2" points="102.62,-190.6 104.08,-180.1 96.39,-187.4 102.62,-190.6"/>
</g>
<!-- 5 -->
<g id="node6" class="node">
<title>5</title>
<path fill="none" stroke="#56d8d8" stroke-width="2" d="M251.87,-180C251.87,-180 221.87,-180 221.87,-180 215.87,-180 209.87,-174 209.87,-168 209.87,-168 209.87,-156 209.87,-156 209.87,-150 215.87,-144 221.87,-144 221.87,-144 251.87,-144 251.87,-144 257.87,-144 263.87,-150 263.87,-156 263.87,-156 263.87,-168 263.87,-168 263.87,-174 257.87,-180 251.87,-180"/>
<text text-anchor="middle" x="236.87" y="-159.5" font-family="sans" font-size="10.00">align</text>
</g>
<!-- 1&#45;&gt;5 -->
<g id="edge11" class="edge">
<title>1&#45;&gt;5</title>
<path fill="none" stroke="grey" stroke-width="2" d="M104.02,-221.13C130.53,-209.53 171.07,-191.79 200.39,-178.96"/>
<polygon fill="grey" stroke="grey" stroke-width="2" points="202.11,-182.03 209.87,-174.82 199.3,-175.62 202.11,-182.03"/>
</g>
<!-- 2&#45;&gt;0 -->
<g id="edge1" class="edge">
<title>2&#45;&gt;0</title>
<path fill="none" stroke="grey" stroke-width="2" d="M46.86,-143.71C53.74,-125.09 66.15,-95.04 81.87,-72 88.78,-61.88 97.67,-51.91 106.09,-43.39"/>
<polygon fill="grey" stroke="grey" stroke-width="2" points="108.61,-45.81 113.3,-36.31 103.71,-40.82 108.61,-45.81"/>
</g>
<!-- 3&#45;&gt;0 -->
<g id="edge3" class="edge">
<title>3&#45;&gt;0</title>
<path fill="none" stroke="grey" stroke-width="2" d="M101.98,-143.68C92.02,-125.55 80.07,-96.39 88.87,-72 92.63,-61.6 99.41,-51.8 106.54,-43.52"/>
<polygon fill="grey" stroke="grey" stroke-width="2" points="109.2,-45.81 113.4,-36.08 104.05,-41.06 109.2,-45.81"/>
</g>
<!-- 4 -->
<g id="node5" class="node">
<title>4</title>
<path fill="none" stroke="#56d8a9" stroke-width="2" d="M155.87,-108C155.87,-108 109.87,-108 109.87,-108 103.87,-108 97.87,-102 97.87,-96 97.87,-96 97.87,-84 97.87,-84 97.87,-78 103.87,-72 109.87,-72 109.87,-72 155.87,-72 155.87,-72 161.87,-72 167.87,-78 167.87,-84 167.87,-84 167.87,-96 167.87,-96 167.87,-102 161.87,-108 155.87,-108"/>
<text text-anchor="middle" x="132.87" y="-87.5" font-family="sans" font-size="10.00">run_regtools</text>
</g>
<!-- 4&#45;&gt;0 -->
<g id="edge5" class="edge">
<title>4&#45;&gt;0</title>
<path fill="none" stroke="grey" stroke-width="2" d="M132.87,-71.7C132.87,-63.98 132.87,-54.71 132.87,-46.11"/>
<polygon fill="grey" stroke="grey" stroke-width="2" points="136.37,-46.1 132.87,-36.1 129.37,-46.1 136.37,-46.1"/>
</g>
<!-- 5&#45;&gt;4 -->
<g id="edge10" class="edge">
<title>5&#45;&gt;4</title>
<path fill="none" stroke="grey" stroke-width="2" d="M211.43,-143.88C198.09,-134.89 181.55,-123.76 167.1,-114.03"/>
<polygon fill="grey" stroke="grey" stroke-width="2" points="168.66,-110.87 158.41,-108.19 164.76,-116.68 168.66,-110.87"/>
</g>
<!-- 6 -->
<g id="node7" class="node">
<title>6</title>
<path fill="none" stroke="#56a9d8" stroke-width="2" d="M275.37,-108C275.37,-108 198.37,-108 198.37,-108 192.37,-108 186.37,-102 186.37,-96 186.37,-96 186.37,-84 186.37,-84 186.37,-78 192.37,-72 198.37,-72 198.37,-72 275.37,-72 275.37,-72 281.37,-72 287.37,-78 287.37,-84 287.37,-84 287.37,-96 287.37,-96 287.37,-102 281.37,-108 275.37,-108"/>
<text text-anchor="middle" x="236.87" y="-87.5" font-family="sans" font-size="10.00">run_TPMCalculator</text>
</g>
<!-- 5&#45;&gt;6 -->
<g id="edge12" class="edge">
<title>5&#45;&gt;6</title>
<path fill="none" stroke="grey" stroke-width="2" d="M236.87,-143.7C236.87,-135.98 236.87,-126.71 236.87,-118.11"/>
<polygon fill="grey" stroke="grey" stroke-width="2" points="240.37,-118.1 236.87,-108.1 233.37,-118.1 240.37,-118.1"/>
</g>
<!-- 7 -->
<g id="node8" class="node">
<title>7</title>
<path fill="none" stroke="#80d856" stroke-width="2" d="M421.87,-108C421.87,-108 317.87,-108 317.87,-108 311.87,-108 305.87,-102 305.87,-96 305.87,-96 305.87,-84 305.87,-84 305.87,-78 311.87,-72 317.87,-72 317.87,-72 421.87,-72 421.87,-72 427.87,-72 433.87,-78 433.87,-84 433.87,-84 433.87,-96 433.87,-96 433.87,-102 427.87,-108 421.87,-108"/>
<text text-anchor="middle" x="369.87" y="-87.5" font-family="sans" font-size="10.00">run_bam_selected_genes</text>
</g>
<!-- 5&#45;&gt;7 -->
<g id="edge13" class="edge">
<title>5&#45;&gt;7</title>
<path fill="none" stroke="grey" stroke-width="2" d="M264.11,-146.67C282.65,-136.91 307.52,-123.82 328.49,-112.78"/>
<polygon fill="grey" stroke="grey" stroke-width="2" points="330.3,-115.79 337.51,-108.03 327.04,-109.59 330.3,-115.79"/>
</g>
<!-- 8 -->
<g id="node9" class="node">
<title>8</title>
<path fill="none" stroke="#56d882" stroke-width="2" d="M545.37,-108C545.37,-108 464.37,-108 464.37,-108 458.37,-108 452.37,-102 452.37,-96 452.37,-96 452.37,-84 452.37,-84 452.37,-78 458.37,-72 464.37,-72 464.37,-72 545.37,-72 545.37,-72 551.37,-72 557.37,-78 557.37,-84 557.37,-84 557.37,-96 557.37,-96 557.37,-102 551.37,-108 545.37,-108"/>
<text text-anchor="middle" x="504.87" y="-87.5" font-family="sans" font-size="10.00">bamCoverage_CPM</text>
</g>
<!-- 5&#45;&gt;8 -->
<g id="edge14" class="edge">
<title>5&#45;&gt;8</title>
<path fill="none" stroke="grey" stroke-width="2" d="M263.9,-154.19C301.54,-144.68 372.1,-126.73 442.23,-108.15"/>
<polygon fill="grey" stroke="grey" stroke-width="2" points="443.36,-111.47 452.12,-105.52 441.56,-104.71 443.36,-111.47"/>
</g>
<!-- 6&#45;&gt;0 -->
<g id="edge7" class="edge">
<title>6&#45;&gt;0</title>
<path fill="none" stroke="grey" stroke-width="2" d="M211.43,-71.88C198.09,-62.89 181.55,-51.76 167.1,-42.03"/>
<polygon fill="grey" stroke="grey" stroke-width="2" points="168.66,-38.87 158.41,-36.19 164.76,-44.68 168.66,-38.87"/>
</g>
<!-- 7&#45;&gt;0 -->
<g id="edge4" class="edge">
<title>7&#45;&gt;0</title>
<path fill="none" stroke="grey" stroke-width="2" d="M312.2,-71.97C267.8,-58.85 207.77,-41.12 169.68,-29.87"/>
<polygon fill="grey" stroke="grey" stroke-width="2" points="170.6,-26.49 160.02,-27.02 168.62,-33.21 170.6,-26.49"/>
</g>
<!-- 8&#45;&gt;0 -->
<g id="edge6" class="edge">
<title>8&#45;&gt;0</title>
<path fill="none" stroke="grey" stroke-width="2" d="M452.2,-74.18C449.05,-73.41 445.93,-72.68 442.87,-72 345.28,-50.33 228.7,-32.55 170.23,-24.17"/>
<polygon fill="grey" stroke="grey" stroke-width="2" points="170.39,-20.66 160,-22.72 169.41,-27.59 170.39,-20.66"/>
</g>
</g>
</svg>
