<?xml version="1.0" encoding="UTF-8" standalone="no"?>
<!DOCTYPE svg PUBLIC "-//W3C//DTD SVG 1.1//EN"
 "http://www.w3.org/Graphics/SVG/1.1/DTD/svg11.dtd">
<!-- Generated by graphviz version 2.40.1 (0)
 -->
<!-- Title: snakemake_dag Pages: 1 -->
<svg width="2017pt" height="620pt"
 viewBox="0.00 0.00 2016.65 620.00" xmlns="http://www.w3.org/2000/svg" xmlns:xlink="http://www.w3.org/1999/xlink">
<g id="graph0" class="graph" transform="scale(1 1) rotate(0) translate(4 616)">
<title>snakemake_dag</title>
<polygon fill="#ffffff" stroke="transparent" points="-4,4 -4,-616 2012.6486,-616 2012.6486,4 -4,4"/>
<!-- 0 -->
<g id="node1" class="node">
<title>0</title>
<path fill="none" stroke="#5682d8" stroke-width="2" d="M814.3678,-36C814.3678,-36 784.3678,-36 784.3678,-36 778.3678,-36 772.3678,-30 772.3678,-24 772.3678,-24 772.3678,-12 772.3678,-12 772.3678,-6 778.3678,0 784.3678,0 784.3678,0 814.3678,0 814.3678,0 820.3678,0 826.3678,-6 826.3678,-12 826.3678,-12 826.3678,-24 826.3678,-24 826.3678,-30 820.3678,-36 814.3678,-36"/>
<text text-anchor="middle" x="799.3678" y="-15.5" font-family="sans" font-size="10.00" fill="#000000">all</text>
</g>
<!-- 1 -->
<g id="node2" class="node">
<title>1</title>
<path fill="none" stroke="#b6d856" stroke-width="2" d="M162.3678,-612C162.3678,-612 124.3678,-612 124.3678,-612 118.3678,-612 112.3678,-606 112.3678,-600 112.3678,-600 112.3678,-588 112.3678,-588 112.3678,-582 118.3678,-576 124.3678,-576 124.3678,-576 162.3678,-576 162.3678,-576 168.3678,-576 174.3678,-582 174.3678,-588 174.3678,-588 174.3678,-600 174.3678,-600 174.3678,-606 168.3678,-612 162.3678,-612"/>
<text text-anchor="middle" x="143.3678" y="-591.5" font-family="sans" font-size="10.00" fill="#000000">trimming</text>
</g>
<!-- 1&#45;&gt;0 -->
<g id="edge10" class="edge">
<title>1&#45;&gt;0</title>
<path fill="none" stroke="#c0c0c0" stroke-width="2" d="M112.3001,-576.7927C74.7019,-553.4185 16.3678,-507.8341 16.3678,-450 16.3678,-450 16.3678,-450 16.3678,-162 16.3678,-121.8138 -72.429,-144.0602 168.3678,-72 280.727,-38.3757 644.0363,-23.2913 762.0008,-19.1977"/>
<polygon fill="#c0c0c0" stroke="#c0c0c0" stroke-width="2" points="762.4414,-22.6848 772.3164,-18.8462 762.203,-15.6889 762.4414,-22.6848"/>
</g>
<!-- 2 -->
<g id="node3" class="node">
<title>2</title>
<path fill="none" stroke="#56a9d8" stroke-width="2" d="M86.3678,-180C86.3678,-180 56.3678,-180 56.3678,-180 50.3678,-180 44.3678,-174 44.3678,-168 44.3678,-168 44.3678,-156 44.3678,-156 44.3678,-150 50.3678,-144 56.3678,-144 56.3678,-144 86.3678,-144 86.3678,-144 92.3678,-144 98.3678,-150 98.3678,-156 98.3678,-156 98.3678,-168 98.3678,-168 98.3678,-174 92.3678,-180 86.3678,-180"/>
<text text-anchor="middle" x="71.3678" y="-159.5" font-family="sans" font-size="10.00" fill="#000000">fastqc</text>
</g>
<!-- 1&#45;&gt;2 -->
<g id="edge17" class="edge">
<title>1&#45;&gt;2</title>
<path fill="none" stroke="#c0c0c0" stroke-width="2" d="M131.4336,-575.7554C115.2576,-549.2192 88.3678,-497.903 88.3678,-450 88.3678,-450 88.3678,-450 88.3678,-306 88.3678,-265.5973 81.6859,-219.2552 76.7004,-190.3013"/>
<polygon fill="#c0c0c0" stroke="#c0c0c0" stroke-width="2" points="80.0843,-189.3387 74.8902,-180.1045 73.1921,-190.5623 80.0843,-189.3387"/>
</g>
<!-- 4 -->
<g id="node5" class="node">
<title>4</title>
<path fill="none" stroke="#56d8b1" stroke-width="2" d="M597.3678,-540C597.3678,-540 567.3678,-540 567.3678,-540 561.3678,-540 555.3678,-534 555.3678,-528 555.3678,-528 555.3678,-516 555.3678,-516 555.3678,-510 561.3678,-504 567.3678,-504 567.3678,-504 597.3678,-504 597.3678,-504 603.3678,-504 609.3678,-510 609.3678,-516 609.3678,-516 609.3678,-528 609.3678,-528 609.3678,-534 603.3678,-540 597.3678,-540"/>
<text text-anchor="middle" x="582.3678" y="-519.5" font-family="sans" font-size="10.00" fill="#000000">align</text>
</g>
<!-- 1&#45;&gt;4 -->
<g id="edge19" class="edge">
<title>1&#45;&gt;4</title>
<path fill="none" stroke="#c0c0c0" stroke-width="2" d="M174.5876,-588.8797C253.4715,-575.942 460.5313,-541.9823 545.3386,-528.0731"/>
<polygon fill="#c0c0c0" stroke="#c0c0c0" stroke-width="2" points="545.9924,-531.5127 555.2941,-526.4403 544.8594,-524.605 545.9924,-531.5127"/>
</g>
<!-- 5 -->
<g id="node6" class="node">
<title>5</title>
<path fill="none" stroke="#9fd856" stroke-width="2" d="M158.3678,-180C158.3678,-180 128.3678,-180 128.3678,-180 122.3678,-180 116.3678,-174 116.3678,-168 116.3678,-168 116.3678,-156 116.3678,-156 116.3678,-150 122.3678,-144 128.3678,-144 128.3678,-144 158.3678,-144 158.3678,-144 164.3678,-144 170.3678,-150 170.3678,-156 170.3678,-156 170.3678,-168 170.3678,-168 170.3678,-174 164.3678,-180 158.3678,-180"/>
<text text-anchor="middle" x="143.3678" y="-159.5" font-family="sans" font-size="10.00" fill="#000000">salmon</text>
</g>
<!-- 1&#45;&gt;5 -->
<g id="edge20" class="edge">
<title>1&#45;&gt;5</title>
<path fill="none" stroke="#c0c0c0" stroke-width="2" d="M143.3678,-575.8146C143.3678,-548.4983 143.3678,-495.25 143.3678,-450 143.3678,-450 143.3678,-450 143.3678,-306 143.3678,-265.876 143.3678,-219.4631 143.3678,-190.4177"/>
<polygon fill="#c0c0c0" stroke="#c0c0c0" stroke-width="2" points="146.8679,-190.1853 143.3678,-180.1854 139.8679,-190.1854 146.8679,-190.1853"/>
</g>
<!-- 20 -->
<g id="node21" class="node">
<title>20</title>
<path fill="none" stroke="#d8d356" stroke-width="2" d="M949.3678,-108C949.3678,-108 899.3678,-108 899.3678,-108 893.3678,-108 887.3678,-102 887.3678,-96 887.3678,-96 887.3678,-84 887.3678,-84 887.3678,-78 893.3678,-72 899.3678,-72 899.3678,-72 949.3678,-72 949.3678,-72 955.3678,-72 961.3678,-78 961.3678,-84 961.3678,-84 961.3678,-96 961.3678,-96 961.3678,-102 955.3678,-108 949.3678,-108"/>
<text text-anchor="middle" x="924.3678" y="-87.5" font-family="sans" font-size="10.00" fill="#000000">run_multiqc</text>
</g>
<!-- 1&#45;&gt;20 -->
<g id="edge44" class="edge">
<title>1&#45;&gt;20</title>
<path fill="none" stroke="#c0c0c0" stroke-width="2" d="M174.7773,-591.9232C325.8388,-581.5263 970.3678,-532.3412 970.3678,-450 970.3678,-450 970.3678,-450 970.3678,-306 970.3678,-233.3976 969.5188,-213.7499 949.3678,-144 946.8122,-135.1543 943.0059,-125.9227 939.1296,-117.6461"/>
<polygon fill="#c0c0c0" stroke="#c0c0c0" stroke-width="2" points="942.1643,-115.8853 934.6176,-108.449 935.8798,-118.9684 942.1643,-115.8853"/>
</g>
<!-- 2&#45;&gt;0 -->
<g id="edge11" class="edge">
<title>2&#45;&gt;0</title>
<path fill="none" stroke="#c0c0c0" stroke-width="2" d="M98.6571,-145.7678C135.3736,-124.7954 203.3624,-88.9692 266.3678,-72 360.3572,-46.6859 656.9653,-26.6672 762.028,-20.2073"/>
<polygon fill="#c0c0c0" stroke="#c0c0c0" stroke-width="2" points="762.3903,-23.6918 772.1589,-19.59 761.9645,-16.7047 762.3903,-23.6918"/>
</g>
<!-- 2&#45;&gt;20 -->
<g id="edge45" class="edge">
<title>2&#45;&gt;20</title>
<path fill="none" stroke="#c0c0c0" stroke-width="2" d="M98.4378,-147.0681C101.3895,-145.8646 104.4003,-144.8047 107.3678,-144 253.907,-104.2596 724.7856,-93.2412 876.664,-90.6823"/>
<polygon fill="#c0c0c0" stroke="#c0c0c0" stroke-width="2" points="877.0978,-94.1758 887.0391,-90.5124 876.9831,-87.1767 877.0978,-94.1758"/>
</g>
<!-- 3 -->
<g id="node4" class="node">
<title>3</title>
<path fill="none" stroke="#566bd8" stroke-width="2" d="M726.8678,-180C726.8678,-180 639.8678,-180 639.8678,-180 633.8678,-180 627.8678,-174 627.8678,-168 627.8678,-168 627.8678,-156 627.8678,-156 627.8678,-150 633.8678,-144 639.8678,-144 639.8678,-144 726.8678,-144 726.8678,-144 732.8678,-144 738.8678,-150 738.8678,-156 738.8678,-156 738.8678,-168 738.8678,-168 738.8678,-174 732.8678,-180 726.8678,-180"/>
<text text-anchor="middle" x="683.3678" y="-159.5" font-family="sans" font-size="10.00" fill="#000000">bamCoverage_CPM</text>
</g>
<!-- 3&#45;&gt;0 -->
<g id="edge14" class="edge">
<title>3&#45;&gt;0</title>
<path fill="none" stroke="#c0c0c0" stroke-width="2" d="M697.0803,-143.8851C711.0269,-125.577 733.3716,-96.561 753.3678,-72 760.8686,-62.7868 769.2484,-52.8491 776.7797,-44.0413"/>
<polygon fill="#c0c0c0" stroke="#c0c0c0" stroke-width="2" points="779.5479,-46.19 783.4079,-36.3233 774.2375,-41.6293 779.5479,-46.19"/>
</g>
<!-- 3&#45;&gt;20 -->
<g id="edge48" class="edge">
<title>3&#45;&gt;20</title>
<path fill="none" stroke="#c0c0c0" stroke-width="2" d="M738.9606,-145.3913C780.8656,-132.872 837.698,-115.893 877.3533,-104.0458"/>
<polygon fill="#c0c0c0" stroke="#c0c0c0" stroke-width="2" points="878.4659,-107.3664 887.0455,-101.1502 876.4621,-100.6593 878.4659,-107.3664"/>
</g>
<!-- 4&#45;&gt;3 -->
<g id="edge18" class="edge">
<title>4&#45;&gt;3</title>
<path fill="none" stroke="#c0c0c0" stroke-width="2" d="M592.1232,-503.9518C605.6261,-477.2403 628.3678,-425.2402 628.3678,-378 628.3678,-378 628.3678,-378 628.3678,-306 628.3678,-262.9621 650.073,-217.1692 666.2128,-189.0671"/>
<polygon fill="#c0c0c0" stroke="#c0c0c0" stroke-width="2" points="669.353,-190.6331 671.4336,-180.2446 663.3287,-187.0682 669.353,-190.6331"/>
</g>
<!-- 6 -->
<g id="node7" class="node">
<title>6</title>
<path fill="none" stroke="#5692d8" stroke-width="2" d="M854.8678,-252C854.8678,-252 771.8678,-252 771.8678,-252 765.8678,-252 759.8678,-246 759.8678,-240 759.8678,-240 759.8678,-228 759.8678,-228 759.8678,-222 765.8678,-216 771.8678,-216 771.8678,-216 854.8678,-216 854.8678,-216 860.8678,-216 866.8678,-222 866.8678,-228 866.8678,-228 866.8678,-240 866.8678,-240 866.8678,-246 860.8678,-252 854.8678,-252"/>
<text text-anchor="middle" x="813.3678" y="-231.5" font-family="sans" font-size="10.00" fill="#000000">run_TPMCalculator</text>
</g>
<!-- 4&#45;&gt;6 -->
<g id="edge21" class="edge">
<title>4&#45;&gt;6</title>
<path fill="none" stroke="#c0c0c0" stroke-width="2" d="M604.7696,-503.7775C616.5122,-493.7583 630.8145,-480.7927 642.3678,-468 705.3107,-398.3041 767.3678,-305.8538 796.3739,-260.8743"/>
<polygon fill="#c0c0c0" stroke="#c0c0c0" stroke-width="2" points="799.4354,-262.584 801.8877,-252.2768 793.543,-258.805 799.4354,-262.584"/>
</g>
<!-- 7 -->
<g id="node8" class="node">
<title>7</title>
<path fill="none" stroke="#56d8c9" stroke-width="2" d="M1183.3678,-180C1183.3678,-180 1067.3678,-180 1067.3678,-180 1061.3678,-180 1055.3678,-174 1055.3678,-168 1055.3678,-168 1055.3678,-156 1055.3678,-156 1055.3678,-150 1061.3678,-144 1067.3678,-144 1067.3678,-144 1183.3678,-144 1183.3678,-144 1189.3678,-144 1195.3678,-150 1195.3678,-156 1195.3678,-156 1195.3678,-168 1195.3678,-168 1195.3678,-174 1189.3678,-180 1183.3678,-180"/>
<text text-anchor="middle" x="1125.3678" y="-159.5" font-family="sans" font-size="10.00" fill="#000000">run_bam_selected_genes</text>
</g>
<!-- 4&#45;&gt;7 -->
<g id="edge22" class="edge">
<title>4&#45;&gt;7</title>
<path fill="none" stroke="#c0c0c0" stroke-width="2" d="M609.5091,-505.745C626.998,-495.1728 650.1617,-480.9862 670.3678,-468 829.2158,-365.9103 1015.0664,-238.3154 1090.7096,-186.0295"/>
<polygon fill="#c0c0c0" stroke="#c0c0c0" stroke-width="2" points="1092.7229,-188.8927 1098.9565,-180.3257 1088.741,-183.1355 1092.7229,-188.8927"/>
</g>
<!-- 8 -->
<g id="node9" class="node">
<title>8</title>
<path fill="none" stroke="#56d863" stroke-width="2" d="M1481.3678,-468C1481.3678,-468 1347.3678,-468 1347.3678,-468 1341.3678,-468 1335.3678,-462 1335.3678,-456 1335.3678,-456 1335.3678,-444 1335.3678,-444 1335.3678,-438 1341.3678,-432 1347.3678,-432 1347.3678,-432 1481.3678,-432 1481.3678,-432 1487.3678,-432 1493.3678,-438 1493.3678,-444 1493.3678,-444 1493.3678,-456 1493.3678,-456 1493.3678,-462 1487.3678,-468 1481.3678,-468"/>
<text text-anchor="middle" x="1414.3678" y="-447.5" font-family="sans" font-size="10.00" fill="#000000">run_bam_just_numbered_chr</text>
</g>
<!-- 4&#45;&gt;8 -->
<g id="edge23" class="edge">
<title>4&#45;&gt;8</title>
<path fill="none" stroke="#c0c0c0" stroke-width="2" d="M609.5769,-519.6454C720.2637,-510.0667 1139.6213,-473.7761 1325.1494,-457.7208"/>
<polygon fill="#c0c0c0" stroke="#c0c0c0" stroke-width="2" points="1325.4881,-461.2047 1335.1491,-456.8555 1324.8845,-454.2307 1325.4881,-461.2047"/>
</g>
<!-- 11 -->
<g id="node12" class="node">
<title>11</title>
<path fill="none" stroke="#56c1d8" stroke-width="2" d="M265.8678,-180C265.8678,-180 200.8678,-180 200.8678,-180 194.8678,-180 188.8678,-174 188.8678,-168 188.8678,-168 188.8678,-156 188.8678,-156 188.8678,-150 194.8678,-144 200.8678,-144 200.8678,-144 265.8678,-144 265.8678,-144 271.8678,-144 277.8678,-150 277.8678,-156 277.8678,-156 277.8678,-168 277.8678,-168 277.8678,-174 271.8678,-180 265.8678,-180"/>
<text text-anchor="middle" x="233.3678" y="-159.5" font-family="sans" font-size="10.00" fill="#000000">run_bam_stats</text>
</g>
<!-- 4&#45;&gt;11 -->
<g id="edge27" class="edge">
<title>4&#45;&gt;11</title>
<path fill="none" stroke="#c0c0c0" stroke-width="2" d="M555.3434,-520.1313C487.1286,-513.8039 313.3678,-486.9896 313.3678,-378 313.3678,-378 313.3678,-378 313.3678,-306 313.3678,-259.9277 281.6875,-214.8164 258.199,-187.7014"/>
<polygon fill="#c0c0c0" stroke="#c0c0c0" stroke-width="2" points="260.7893,-185.3474 251.521,-180.2141 255.5652,-190.0067 260.7893,-185.3474"/>
</g>
<!-- 12 -->
<g id="node13" class="node">
<title>12</title>
<path fill="none" stroke="#61d856" stroke-width="2" d="M430.3678,-180C430.3678,-180 308.3678,-180 308.3678,-180 302.3678,-180 296.3678,-174 296.3678,-168 296.3678,-168 296.3678,-156 296.3678,-156 296.3678,-150 302.3678,-144 308.3678,-144 308.3678,-144 430.3678,-144 430.3678,-144 436.3678,-144 442.3678,-150 442.3678,-156 442.3678,-156 442.3678,-168 442.3678,-168 442.3678,-174 436.3678,-180 430.3678,-180"/>
<text text-anchor="middle" x="369.3678" y="-159.5" font-family="sans" font-size="10.00" fill="#000000">run_convert_SJ_to_interact</text>
</g>
<!-- 4&#45;&gt;12 -->
<g id="edge28" class="edge">
<title>4&#45;&gt;12</title>
<path fill="none" stroke="#c0c0c0" stroke-width="2" d="M555.2962,-505.4684C520.4585,-481.8816 464.3678,-435.0475 464.3678,-378 464.3678,-378 464.3678,-378 464.3678,-306 464.3678,-258.0912 427.2765,-213.8312 399.4467,-187.3654"/>
<polygon fill="#c0c0c0" stroke="#c0c0c0" stroke-width="2" points="401.6042,-184.5938 391.8814,-180.3843 396.857,-189.7382 401.6042,-184.5938"/>
</g>
<!-- 14 -->
<g id="node15" class="node">
<title>14</title>
<path fill="none" stroke="#d86e56" stroke-width="2" d="M597.8678,-180C597.8678,-180 472.8678,-180 472.8678,-180 466.8678,-180 460.8678,-174 460.8678,-168 460.8678,-168 460.8678,-156 460.8678,-156 460.8678,-150 466.8678,-144 472.8678,-144 472.8678,-144 597.8678,-144 597.8678,-144 603.8678,-144 609.8678,-150 609.8678,-156 609.8678,-156 609.8678,-168 609.8678,-168 609.8678,-174 603.8678,-180 597.8678,-180"/>
<text text-anchor="middle" x="535.3678" y="-159.5" font-family="sans" font-size="10.00" fill="#000000">run_merge_junctions_STAR</text>
</g>
<!-- 4&#45;&gt;14 -->
<g id="edge30" class="edge">
<title>4&#45;&gt;14</title>
<path fill="none" stroke="#c0c0c0" stroke-width="2" d="M577.3949,-503.9753C570.3652,-476.864 558.3678,-423.8742 558.3678,-378 558.3678,-378 558.3678,-378 558.3678,-306 558.3678,-265.1884 549.2478,-218.6758 542.4935,-189.8247"/>
<polygon fill="#c0c0c0" stroke="#c0c0c0" stroke-width="2" points="545.8802,-188.9385 540.1334,-180.0377 539.0753,-190.5796 545.8802,-188.9385"/>
</g>
<!-- 5&#45;&gt;0 -->
<g id="edge12" class="edge">
<title>5&#45;&gt;0</title>
<path fill="none" stroke="#c0c0c0" stroke-width="2" d="M170.6708,-148.239C173.9122,-146.7479 177.1956,-145.3016 180.3678,-144 272.8166,-106.0661 296.0499,-94.6939 393.3678,-72 526.7497,-40.8962 689.2546,-26.0278 761.5521,-20.5718"/>
<polygon fill="#c0c0c0" stroke="#c0c0c0" stroke-width="2" points="762.2412,-24.0306 771.9569,-19.805 761.7267,-17.0495 762.2412,-24.0306"/>
</g>
<!-- 5&#45;&gt;20 -->
<g id="edge46" class="edge">
<title>5&#45;&gt;20</title>
<path fill="none" stroke="#c0c0c0" stroke-width="2" d="M170.3953,-147.4241C173.6861,-146.0793 177.0565,-144.8902 180.3678,-144 312.7517,-108.4119 734.9786,-94.7551 877.1377,-91.0943"/>
<polygon fill="#c0c0c0" stroke="#c0c0c0" stroke-width="2" points="877.3669,-94.5897 887.2752,-90.8381 877.19,-87.592 877.3669,-94.5897"/>
</g>
<!-- 6&#45;&gt;0 -->
<g id="edge13" class="edge">
<title>6&#45;&gt;0</title>
<path fill="none" stroke="#c0c0c0" stroke-width="2" d="M801.6169,-215.8241C795.7819,-205.7142 789.3539,-192.6495 786.3678,-180 775.4877,-133.9112 784.4615,-78.6235 791.9329,-46.0087"/>
<polygon fill="#c0c0c0" stroke="#c0c0c0" stroke-width="2" points="795.3428,-46.7978 794.2788,-36.2566 788.537,-45.1606 795.3428,-46.7978"/>
</g>
<!-- 15 -->
<g id="node16" class="node">
<title>15</title>
<path fill="none" stroke="#d8ac56" stroke-width="2" d="M911.3678,-180C911.3678,-180 807.3678,-180 807.3678,-180 801.3678,-180 795.3678,-174 795.3678,-168 795.3678,-168 795.3678,-156 795.3678,-156 795.3678,-150 801.3678,-144 807.3678,-144 807.3678,-144 911.3678,-144 911.3678,-144 917.3678,-144 923.3678,-150 923.3678,-156 923.3678,-156 923.3678,-168 923.3678,-168 923.3678,-174 917.3678,-180 911.3678,-180"/>
<text text-anchor="middle" x="859.3678" y="-159.5" font-family="sans" font-size="10.00" fill="#000000">run_merge_gene_tpms</text>
</g>
<!-- 6&#45;&gt;15 -->
<g id="edge31" class="edge">
<title>6&#45;&gt;15</title>
<path fill="none" stroke="#c0c0c0" stroke-width="2" d="M824.9755,-215.8314C830.1655,-207.7079 836.3909,-197.9637 842.1102,-189.0118"/>
<polygon fill="#c0c0c0" stroke="#c0c0c0" stroke-width="2" points="845.1692,-190.7246 847.6037,-180.4133 839.2703,-186.9559 845.1692,-190.7246"/>
</g>
<!-- 6&#45;&gt;20 -->
<g id="edge47" class="edge">
<title>6&#45;&gt;20</title>
<path fill="none" stroke="#c0c0c0" stroke-width="2" d="M866.8768,-223.5583C891.2271,-215.8469 917.8057,-202.5992 932.3678,-180 944.1795,-161.6691 940.8039,-136.7073 935.2523,-117.7217"/>
<polygon fill="#c0c0c0" stroke="#c0c0c0" stroke-width="2" points="938.5542,-116.5576 932.1237,-108.1374 931.8997,-118.7299 938.5542,-116.5576"/>
</g>
<!-- 7&#45;&gt;0 -->
<g id="edge16" class="edge">
<title>7&#45;&gt;0</title>
<path fill="none" stroke="#c0c0c0" stroke-width="2" d="M1098.3385,-143.8328C1068.147,-124.1375 1017.3326,-92.7468 970.3678,-72 925.6572,-52.2491 871.4705,-36.4135 836.2476,-27.1196"/>
<polygon fill="#c0c0c0" stroke="#c0c0c0" stroke-width="2" points="836.9573,-23.6879 826.3985,-24.5611 835.1973,-30.463 836.9573,-23.6879"/>
</g>
<!-- 7&#45;&gt;20 -->
<g id="edge50" class="edge">
<title>7&#45;&gt;20</title>
<path fill="none" stroke="#c0c0c0" stroke-width="2" d="M1074.9064,-143.9243C1043.1118,-132.5352 1002.3464,-117.9326 971.2577,-106.7964"/>
<polygon fill="#c0c0c0" stroke="#c0c0c0" stroke-width="2" points="972.1222,-103.3883 961.5276,-103.311 969.7615,-109.9783 972.1222,-103.3883"/>
</g>
<!-- 8&#45;&gt;0 -->
<g id="edge2" class="edge">
<title>8&#45;&gt;0</title>
<path fill="none" stroke="#c0c0c0" stroke-width="2" d="M1493.6094,-445.306C1643.4319,-434.2487 1953.3678,-400.0131 1953.3678,-306 1953.3678,-306 1953.3678,-306 1953.3678,-162 1953.3678,-102.9183 2166.7239,-162.8584 1750.3678,-72 1571.4835,-32.9634 990.5294,-21.0562 836.9126,-18.5525"/>
<polygon fill="#c0c0c0" stroke="#c0c0c0" stroke-width="2" points="836.6566,-15.0481 826.6021,-18.3882 836.5451,-22.0472 836.6566,-15.0481"/>
</g>
<!-- 9 -->
<g id="node10" class="node">
<title>9</title>
<path fill="none" stroke="#c6d856" stroke-width="2" d="M1476.8678,-324C1476.8678,-324 1373.8678,-324 1373.8678,-324 1367.8678,-324 1361.8678,-318 1361.8678,-312 1361.8678,-312 1361.8678,-300 1361.8678,-300 1361.8678,-294 1367.8678,-288 1373.8678,-288 1373.8678,-288 1476.8678,-288 1476.8678,-288 1482.8678,-288 1488.8678,-294 1488.8678,-300 1488.8678,-300 1488.8678,-312 1488.8678,-312 1488.8678,-318 1482.8678,-324 1476.8678,-324"/>
<text text-anchor="middle" x="1425.3678" y="-303.5" font-family="sans" font-size="10.00" fill="#000000">run_downsample_bam</text>
</g>
<!-- 8&#45;&gt;9 -->
<g id="edge25" class="edge">
<title>8&#45;&gt;9</title>
<path fill="none" stroke="#c0c0c0" stroke-width="2" d="M1429.4818,-431.7768C1436.7226,-421.8586 1444.6201,-408.9858 1448.3678,-396 1454.4046,-375.082 1447.6783,-351.1977 1439.9713,-333.2928"/>
<polygon fill="#c0c0c0" stroke="#c0c0c0" stroke-width="2" points="1443.0502,-331.6128 1435.6635,-324.0176 1436.7015,-334.5614 1443.0502,-331.6128"/>
</g>
<!-- 10 -->
<g id="node11" class="node">
<title>10</title>
<path fill="none" stroke="#d85656" stroke-width="2" d="M1427.3678,-396C1427.3678,-396 1297.3678,-396 1297.3678,-396 1291.3678,-396 1285.3678,-390 1285.3678,-384 1285.3678,-384 1285.3678,-372 1285.3678,-372 1285.3678,-366 1291.3678,-360 1297.3678,-360 1297.3678,-360 1427.3678,-360 1427.3678,-360 1433.3678,-360 1439.3678,-366 1439.3678,-372 1439.3678,-372 1439.3678,-384 1439.3678,-384 1439.3678,-390 1433.3678,-396 1427.3678,-396"/>
<text text-anchor="middle" x="1362.3678" y="-375.5" font-family="sans" font-size="10.00" fill="#000000">run_downsample_bam_prep</text>
</g>
<!-- 8&#45;&gt;10 -->
<g id="edge26" class="edge">
<title>8&#45;&gt;10</title>
<path fill="none" stroke="#c0c0c0" stroke-width="2" d="M1401.246,-431.8314C1395.3179,-423.6232 1388.1948,-413.7606 1381.6744,-404.7323"/>
<polygon fill="#c0c0c0" stroke="#c0c0c0" stroke-width="2" points="1384.3586,-402.4708 1375.6662,-396.4133 1378.6838,-406.5693 1384.3586,-402.4708"/>
</g>
<!-- 17 -->
<g id="node18" class="node">
<title>17</title>
<path fill="none" stroke="#d89556" stroke-width="2" d="M1687.3678,-396C1687.3678,-396 1529.3678,-396 1529.3678,-396 1523.3678,-396 1517.3678,-390 1517.3678,-384 1517.3678,-384 1517.3678,-372 1517.3678,-372 1517.3678,-366 1523.3678,-360 1529.3678,-360 1529.3678,-360 1687.3678,-360 1687.3678,-360 1693.3678,-360 1699.3678,-366 1699.3678,-372 1699.3678,-372 1699.3678,-384 1699.3678,-384 1699.3678,-390 1693.3678,-396 1687.3678,-396"/>
<text text-anchor="middle" x="1608.3678" y="-375.5" font-family="sans" font-size="10.00" fill="#000000">run_TPMCalculator_numbered_chr</text>
</g>
<!-- 8&#45;&gt;17 -->
<g id="edge33" class="edge">
<title>8&#45;&gt;17</title>
<path fill="none" stroke="#c0c0c0" stroke-width="2" d="M1463.3221,-431.8314C1489.7298,-422.0306 1522.4934,-409.8709 1550.1963,-399.5894"/>
<polygon fill="#c0c0c0" stroke="#c0c0c0" stroke-width="2" points="1551.6081,-402.7988 1559.7654,-396.038 1549.1724,-396.2362 1551.6081,-402.7988"/>
</g>
<!-- 8&#45;&gt;20 -->
<g id="edge37" class="edge">
<title>8&#45;&gt;20</title>
<path fill="none" stroke="#c0c0c0" stroke-width="2" d="M1354.317,-431.9919C1329.2097,-423.0948 1300.357,-411.0135 1276.3678,-396 1136.3962,-308.4001 1132.5376,-246.8637 1003.3678,-144 990.1485,-133.4729 974.9619,-122.786 961.4584,-113.7284"/>
<polygon fill="#c0c0c0" stroke="#c0c0c0" stroke-width="2" points="963.1336,-110.6396 952.8653,-108.0295 959.2648,-116.4733 963.1336,-110.6396"/>
</g>
<!-- 9&#45;&gt;0 -->
<g id="edge4" class="edge">
<title>9&#45;&gt;0</title>
<path fill="none" stroke="#c0c0c0" stroke-width="2" d="M1489.2144,-291.5303C1581.8506,-267.6941 1736.0719,-215.5841 1674.3678,-144 1618.5337,-79.2259 996.6873,-31.7336 836.7139,-20.5288"/>
<polygon fill="#c0c0c0" stroke="#c0c0c0" stroke-width="2" points="836.6493,-17.016 826.4307,-19.8142 836.164,-23.9991 836.6493,-17.016"/>
</g>
<!-- 13 -->
<g id="node14" class="node">
<title>13</title>
<path fill="none" stroke="#56d8a2" stroke-width="2" d="M1377.3678,-180C1377.3678,-180 1263.3678,-180 1263.3678,-180 1257.3678,-180 1251.3678,-174 1251.3678,-168 1251.3678,-168 1251.3678,-156 1251.3678,-156 1251.3678,-150 1257.3678,-144 1263.3678,-144 1263.3678,-144 1377.3678,-144 1377.3678,-144 1383.3678,-144 1389.3678,-150 1389.3678,-156 1389.3678,-156 1389.3678,-168 1389.3678,-168 1389.3678,-174 1383.3678,-180 1377.3678,-180"/>
<text text-anchor="middle" x="1320.3678" y="-159.5" font-family="sans" font-size="10.00" fill="#000000">run_htseq_downsampled</text>
</g>
<!-- 9&#45;&gt;13 -->
<g id="edge29" class="edge">
<title>9&#45;&gt;13</title>
<path fill="none" stroke="#c0c0c0" stroke-width="2" d="M1412.0694,-287.7623C1393.7657,-262.66 1360.6919,-217.3017 1339.6667,-188.4671"/>
<polygon fill="#c0c0c0" stroke="#c0c0c0" stroke-width="2" points="1342.2779,-186.1076 1333.5581,-180.0896 1336.6218,-190.2318 1342.2779,-186.1076"/>
</g>
<!-- 19 -->
<g id="node20" class="node">
<title>19</title>
<path fill="none" stroke="#d87d56" stroke-width="2" d="M1566.8678,-252C1566.8678,-252 1409.8678,-252 1409.8678,-252 1403.8678,-252 1397.8678,-246 1397.8678,-240 1397.8678,-240 1397.8678,-228 1397.8678,-228 1397.8678,-222 1403.8678,-216 1409.8678,-216 1409.8678,-216 1566.8678,-216 1566.8678,-216 1572.8678,-216 1578.8678,-222 1578.8678,-228 1578.8678,-228 1578.8678,-240 1578.8678,-240 1578.8678,-246 1572.8678,-252 1566.8678,-252"/>
<text text-anchor="middle" x="1488.3678" y="-231.5" font-family="sans" font-size="10.00" fill="#000000">run_TPMCalculator_downsampled</text>
</g>
<!-- 9&#45;&gt;19 -->
<g id="edge35" class="edge">
<title>9&#45;&gt;19</title>
<path fill="none" stroke="#c0c0c0" stroke-width="2" d="M1441.2653,-287.8314C1448.5955,-279.454 1457.4338,-269.3531 1465.4647,-260.1749"/>
<polygon fill="#c0c0c0" stroke="#c0c0c0" stroke-width="2" points="1468.3051,-262.2438 1472.2561,-252.4133 1463.037,-257.6343 1468.3051,-262.2438"/>
</g>
<!-- 9&#45;&gt;20 -->
<g id="edge39" class="edge">
<title>9&#45;&gt;20</title>
<path fill="none" stroke="#c0c0c0" stroke-width="2" d="M1396.1653,-287.8947C1359.1908,-264.5261 1294.0782,-221.8744 1242.3678,-180 1224.2879,-165.3592 1225.0899,-154.5748 1204.3678,-144 1127.0348,-104.5361 1097.5669,-124.6998 1012.3678,-108 999.0757,-105.3946 984.6729,-102.4851 971.4433,-99.7777"/>
<polygon fill="#c0c0c0" stroke="#c0c0c0" stroke-width="2" points="972.0926,-96.3381 961.593,-97.7551 970.6846,-103.195 972.0926,-96.3381"/>
</g>
<!-- 10&#45;&gt;9 -->
<g id="edge24" class="edge">
<title>10&#45;&gt;9</title>
<path fill="none" stroke="#c0c0c0" stroke-width="2" d="M1378.2653,-359.8314C1385.5955,-351.454 1394.4338,-341.3531 1402.4647,-332.1749"/>
<polygon fill="#c0c0c0" stroke="#c0c0c0" stroke-width="2" points="1405.3051,-334.2438 1409.2561,-324.4133 1400.037,-329.6343 1405.3051,-334.2438"/>
</g>
<!-- 11&#45;&gt;0 -->
<g id="edge9" class="edge">
<title>11&#45;&gt;0</title>
<path fill="none" stroke="#c0c0c0" stroke-width="2" d="M278.1241,-146.9697C281.2491,-145.9546 284.3535,-144.9562 287.3678,-144 393.1124,-110.4557 418.7147,-98.795 526.3678,-72 609.8793,-51.2138 709.3459,-33.2102 762.1333,-24.1804"/>
<polygon fill="#c0c0c0" stroke="#c0c0c0" stroke-width="2" points="762.7773,-27.6212 772.0499,-22.4959 761.6049,-20.7201 762.7773,-27.6212"/>
</g>
<!-- 11&#45;&gt;20 -->
<g id="edge43" class="edge">
<title>11&#45;&gt;20</title>
<path fill="none" stroke="#c0c0c0" stroke-width="2" d="M277.9335,-146.2389C281.1038,-145.3978 284.2705,-144.638 287.3678,-144 400.2366,-120.7487 749.1459,-99.6867 876.8838,-92.5618"/>
<polygon fill="#c0c0c0" stroke="#c0c0c0" stroke-width="2" points="877.3315,-96.0424 887.1224,-91.9942 876.944,-89.0532 877.3315,-96.0424"/>
</g>
<!-- 12&#45;&gt;0 -->
<g id="edge15" class="edge">
<title>12&#45;&gt;0</title>
<path fill="none" stroke="#c0c0c0" stroke-width="2" d="M420.9657,-143.9367C473.7313,-125.5445 558.1168,-96.3511 631.3678,-72 676.4822,-57.0024 728.6338,-40.3449 762.7136,-29.5507"/>
<polygon fill="#c0c0c0" stroke="#c0c0c0" stroke-width="2" points="763.7749,-32.886 772.2535,-26.5328 761.6635,-26.212 763.7749,-32.886"/>
</g>
<!-- 12&#45;&gt;20 -->
<g id="edge49" class="edge">
<title>12&#45;&gt;20</title>
<path fill="none" stroke="#c0c0c0" stroke-width="2" d="M442.6122,-145.7013C445.904,-145.0996 449.1673,-144.5288 452.3678,-144 606.8454,-118.478 791.7614,-101.1138 877.0311,-93.8426"/>
<polygon fill="#c0c0c0" stroke="#c0c0c0" stroke-width="2" points="877.5015,-97.3154 887.1712,-92.9856 876.9119,-90.3403 877.5015,-97.3154"/>
</g>
<!-- 13&#45;&gt;0 -->
<g id="edge8" class="edge">
<title>13&#45;&gt;0</title>
<path fill="none" stroke="#c0c0c0" stroke-width="2" d="M1262.3055,-143.9842C1201.2873,-125.2457 1102.4032,-95.4282 1016.3678,-72 953.4264,-54.8605 879.6233,-36.9565 836.333,-26.6756"/>
<polygon fill="#c0c0c0" stroke="#c0c0c0" stroke-width="2" points="837.0685,-23.253 826.531,-24.3543 835.4553,-30.0646 837.0685,-23.253"/>
</g>
<!-- 13&#45;&gt;20 -->
<g id="edge42" class="edge">
<title>13&#45;&gt;20</title>
<path fill="none" stroke="#c0c0c0" stroke-width="2" d="M1251.1218,-146.7513C1246.4716,-145.7987 1241.8544,-144.8731 1237.3678,-144 1143.4753,-125.7282 1033.1152,-107.4248 971.7139,-97.5219"/>
<polygon fill="#c0c0c0" stroke="#c0c0c0" stroke-width="2" points="971.9906,-94.0215 961.5617,-95.8892 970.8791,-100.9327 971.9906,-94.0215"/>
</g>
<!-- 14&#45;&gt;0 -->
<g id="edge7" class="edge">
<title>14&#45;&gt;0</title>
<path fill="none" stroke="#c0c0c0" stroke-width="2" d="M568.5362,-143.9081C618.3109,-116.7583 711.9549,-65.6798 763.3477,-37.6473"/>
<polygon fill="#c0c0c0" stroke="#c0c0c0" stroke-width="2" points="765.0263,-40.7186 772.1292,-32.8574 761.6743,-34.5733 765.0263,-40.7186"/>
</g>
<!-- 14&#45;&gt;20 -->
<g id="edge41" class="edge">
<title>14&#45;&gt;20</title>
<path fill="none" stroke="#c0c0c0" stroke-width="2" d="M609.9943,-145.8634C613.1593,-145.225 616.294,-144.6012 619.3678,-144 710.4146,-126.191 817.2626,-107.8612 877.2661,-97.8004"/>
<polygon fill="#c0c0c0" stroke="#c0c0c0" stroke-width="2" points="877.9121,-101.2411 887.1975,-96.1391 876.7571,-94.337 877.9121,-101.2411"/>
</g>
<!-- 15&#45;&gt;0 -->
<g id="edge1" class="edge">
<title>15&#45;&gt;0</title>
<path fill="none" stroke="#c0c0c0" stroke-width="2" d="M851.7687,-143.7623C841.4447,-118.9846 822.8975,-74.4714 810.8652,-45.5939"/>
<polygon fill="#c0c0c0" stroke="#c0c0c0" stroke-width="2" points="813.9821,-43.9742 806.9051,-36.0896 807.5205,-46.6666 813.9821,-43.9742"/>
</g>
<!-- 15&#45;&gt;20 -->
<g id="edge36" class="edge">
<title>15&#45;&gt;20</title>
<path fill="none" stroke="#c0c0c0" stroke-width="2" d="M875.77,-143.8314C883.4093,-135.3694 892.6361,-125.1489 900.9884,-115.8971"/>
<polygon fill="#c0c0c0" stroke="#c0c0c0" stroke-width="2" points="903.6416,-118.1813 907.7447,-108.4133 898.4457,-113.4906 903.6416,-118.1813"/>
</g>
<!-- 16 -->
<g id="node17" class="node">
<title>16</title>
<path fill="none" stroke="#d8bc56" stroke-width="2" d="M1912.8678,-180C1912.8678,-180 1733.8678,-180 1733.8678,-180 1727.8678,-180 1721.8678,-174 1721.8678,-168 1721.8678,-168 1721.8678,-156 1721.8678,-156 1721.8678,-150 1727.8678,-144 1733.8678,-144 1733.8678,-144 1912.8678,-144 1912.8678,-144 1918.8678,-144 1924.8678,-150 1924.8678,-156 1924.8678,-156 1924.8678,-168 1924.8678,-168 1924.8678,-174 1918.8678,-180 1912.8678,-180"/>
<text text-anchor="middle" x="1823.3678" y="-159.5" font-family="sans" font-size="10.00" fill="#000000">run_merge_gene_tpms_numbered_chr</text>
</g>
<!-- 16&#45;&gt;0 -->
<g id="edge3" class="edge">
<title>16&#45;&gt;0</title>
<path fill="none" stroke="#c0c0c0" stroke-width="2" d="M1806.9884,-143.896C1786.2178,-122.3427 1748.1665,-87.3393 1707.3678,-72 1625.0055,-41.0339 997.8096,-23.0563 836.8959,-18.9228"/>
<polygon fill="#c0c0c0" stroke="#c0c0c0" stroke-width="2" points="836.6405,-15.4153 826.5548,-18.6598 836.4625,-22.413 836.6405,-15.4153"/>
</g>
<!-- 16&#45;&gt;20 -->
<g id="edge38" class="edge">
<title>16&#45;&gt;20</title>
<path fill="none" stroke="#c0c0c0" stroke-width="2" d="M1721.6476,-149.0467C1705.8332,-147.2251 1689.67,-145.4743 1674.3678,-144 1409.1653,-118.4488 1090.1372,-99.317 971.6614,-92.6087"/>
<polygon fill="#c0c0c0" stroke="#c0c0c0" stroke-width="2" points="971.6704,-89.1038 961.4893,-92.0355 971.2765,-96.0927 971.6704,-89.1038"/>
</g>
<!-- 17&#45;&gt;16 -->
<g id="edge32" class="edge">
<title>17&#45;&gt;16</title>
<path fill="none" stroke="#c0c0c0" stroke-width="2" d="M1626.3287,-359.9555C1664.586,-321.5203 1754.2011,-231.4884 1798.1555,-187.3295"/>
<polygon fill="#c0c0c0" stroke="#c0c0c0" stroke-width="2" points="1800.7326,-189.7017 1805.3067,-180.1451 1795.7714,-184.7634 1800.7326,-189.7017"/>
</g>
<!-- 18 -->
<g id="node19" class="node">
<title>18</title>
<path fill="none" stroke="#56d88a" stroke-width="2" d="M1652.8678,-180C1652.8678,-180 1419.8678,-180 1419.8678,-180 1413.8678,-180 1407.8678,-174 1407.8678,-168 1407.8678,-168 1407.8678,-156 1407.8678,-156 1407.8678,-150 1413.8678,-144 1419.8678,-144 1419.8678,-144 1652.8678,-144 1652.8678,-144 1658.8678,-144 1664.8678,-150 1664.8678,-156 1664.8678,-156 1664.8678,-168 1664.8678,-168 1664.8678,-174 1658.8678,-180 1652.8678,-180"/>
<text text-anchor="middle" x="1536.3678" y="-159.5" font-family="sans" font-size="10.00" fill="#000000">run_merge_gene_tpms_numbered_downsampled</text>
</g>
<!-- 18&#45;&gt;0 -->
<g id="edge6" class="edge">
<title>18&#45;&gt;0</title>
<path fill="none" stroke="#c0c0c0" stroke-width="2" d="M1449.6787,-143.9545C1360.2505,-125.4501 1216.6901,-96.0546 1092.3678,-72 1000.5295,-54.2306 892.2274,-34.6188 836.5529,-24.6351"/>
<polygon fill="#c0c0c0" stroke="#c0c0c0" stroke-width="2" points="836.9232,-21.1458 826.4627,-22.8279 835.689,-28.0362 836.9232,-21.1458"/>
</g>
<!-- 18&#45;&gt;20 -->
<g id="edge40" class="edge">
<title>18&#45;&gt;20</title>
<path fill="none" stroke="#c0c0c0" stroke-width="2" d="M1407.8267,-145.1641C1404.6425,-144.7695 1401.4855,-144.3809 1398.3678,-144 1242.3015,-124.9332 1057.0531,-104.4507 971.7178,-95.1363"/>
<polygon fill="#c0c0c0" stroke="#c0c0c0" stroke-width="2" points="971.8913,-91.6346 961.5708,-94.0301 971.1325,-98.5934 971.8913,-91.6346"/>
</g>
<!-- 19&#45;&gt;18 -->
<g id="edge34" class="edge">
<title>19&#45;&gt;18</title>
<path fill="none" stroke="#c0c0c0" stroke-width="2" d="M1500.4802,-215.8314C1505.8959,-207.7079 1512.3919,-197.9637 1518.3599,-189.0118"/>
<polygon fill="#c0c0c0" stroke="#c0c0c0" stroke-width="2" points="1521.4574,-190.6753 1524.0922,-180.4133 1515.633,-186.7923 1521.4574,-190.6753"/>
</g>
<!-- 20&#45;&gt;0 -->
<g id="edge5" class="edge">
<title>20&#45;&gt;0</title>
<path fill="none" stroke="#c0c0c0" stroke-width="2" d="M892.825,-71.8314C875.4569,-61.8273 853.8218,-49.3655 835.7431,-38.9522"/>
<polygon fill="#c0c0c0" stroke="#c0c0c0" stroke-width="2" points="837.067,-35.6757 826.6547,-33.7173 833.5731,-41.7414 837.067,-35.6757"/>
</g>
</g>
</svg>
